.SFNSText-SemiLight.ufo
<glyph name="exclam" format="2">
  <advance width="240"/>
  <unicode hex="0021"/>
  <outline>
    <contour>
      <point x="134" y="682" type="line"/>
      <point x="105" y="682" type="line"/>
      <point x="105" y="208" type="line"/>
      <point x="134" y="208" type="line"/>
    </contour>
    <contour>
      <point x="120" y="49" type="curve" smooth="yes"/>
      <point x="102" y="49"/>
      <point x="90" y="36"/>
      <point x="90" y="19" type="curve" smooth="yes"/>
      <point x="90" y="3"/>
      <point x="102" y="-10"/>
      <point x="120" y="-10" type="curve" smooth="yes"/>
      <point x="139" y="-10"/>
      <point x="150" y="3"/>
      <point x="150" y="19" type="curve" smooth="yes"/>
      <point x="150" y="36"/>
      <point x="139" y="49"/>
    </contour>
  </outline>
</glyph>
<glyph name="quotesingle" format="2">
  <advance width="192"/>
  <unicode hex="0027"/>
  <outline>
    <contour>
      <point x="84" y="439" type="line"/>
      <point x="108" y="439" type="line"/>
      <point x="112" y="682" type="line"/>
      <point x="80" y="682" type="line"/>
    </contour>
  </outline>
</glyph>
<glyph name="comma" format="2">
  <advance width="180"/>
  <unicode hex="002C"/>
  <outline>
    <contour>
      <point x="90" y="49" type="curve" smooth="yes"/>
      <point x="72" y="49"/>
      <point x="60" y="36"/>
      <point x="60" y="19" type="curve" smooth="yes"/>
      <point x="60" y="7"/>
      <point x="66" y="-3"/>
      <point x="78" y="-7" type="curve"/>
      <point x="38" y="-139" type="line"/>
      <point x="61" y="-139" type="line"/>
      <point x="108" y="-22" type="line" smooth="yes"/>
      <point x="113" y="-9"/>
      <point x="120" y="6"/>
      <point x="120" y="19" type="curve" smooth="yes"/>
      <point x="120" y="36"/>
      <point x="109" y="49"/>
    </contour>
  </outline>
</glyph>
<glyph name="seven" format="2">
  <advance width="431"/>
  <unicode hex="0037"/>
  <outline>
    <contour>
      <point x="391" y="662" type="line"/>
      <point x="35" y="662" type="line"/>
      <point x="35" y="634" type="line"/>
      <point x="358" y="634" type="line"/>
      <point x="90" y="4" type="line"/>
      <point x="119" y="-6" type="line"/>
      <point x="391" y="637" type="line"/>
    </contour>
  </outline>
</glyph>
<glyph name="A" format="2">
  <advance width="558"/>
  <unicode hex="0041"/>
  <anchor x="279" y="0" name="bottom"/>
  <anchor x="543" y="0" name="ogonek"/>
  <anchor x="279" y="682" name="top"/>
  <anchor x="170" y="682" name="topleft"/>
  <outline>
    <contour>
      <point x="298" y="682" type="line"/>
      <point x="260" y="682" type="line"/>
      <point x="25" y="0" type="line"/>
      <point x="56" y="0" type="line"/>
      <point x="279" y="657" type="line"/>
      <point x="500" y="0" type="line"/>
      <point x="533" y="0" type="line"/>
    </contour>
    <contour>
      <point x="434" y="228" type="line"/>
      <point x="123" y="228" type="line"/>
      <point x="112" y="199" type="line"/>
      <point x="444" y="199" type="line"/>
    </contour>
  </outline>
</glyph>
<glyph name="B" format="2">
  <advance width="589"/>
  <unicode hex="0042"/>
  <anchor x="310" y="0" name="bottom"/>
  <anchor x="291" y="682" name="top"/>
  <outline>
    <contour>
      <point x="264" y="682" type="curve" smooth="yes"/>
      <point x="120" y="682" type="line"/>
      <point x="120" y="0" type="line"/>
      <point x="304" y="0" type="line" smooth="yes"/>
      <point x="447" y="0"/>
      <point x="529" y="67"/>
      <point x="529" y="185" type="curve" smooth="yes"/>
      <point x="529" y="304"/>
      <point x="457" y="357"/>
      <point x="372" y="362" type="curve"/>
      <point x="447" y="375"/>
      <point x="495" y="422"/>
      <point x="495" y="513" type="curve" smooth="yes"/>
      <point x="495" y="626"/>
      <point x="410" y="682"/>
    </contour>
    <contour>
      <point x="268" y="653" type="line" smooth="yes"/>
      <point x="393" y="653"/>
      <point x="463" y="609"/>
      <point x="463" y="512" type="curve" smooth="yes"/>
      <point x="463" y="426"/>
      <point x="405" y="374"/>
      <point x="317" y="374" type="curve" smooth="yes"/>
      <point x="144" y="374" type="line"/>
      <point x="144" y="346" type="line"/>
      <point x="322" y="346" type="line" smooth="yes"/>
      <point x="424" y="346"/>
      <point x="497" y="295"/>
      <point x="497" y="185" type="curve" smooth="yes"/>
      <point x="497" y="81"/>
      <point x="425" y="29"/>
      <point x="305" y="29" type="curve" smooth="yes"/>
      <point x="151" y="29" type="line"/>
      <point x="151" y="653" type="line"/>
    </contour>
  </outline>
</glyph>
<glyph name="D" format="2">
  <advance width="622"/>
  <unicode hex="0044"/>
  <anchor x="300" y="0" name="bottom"/>
  <anchor x="317" y="341" name="center"/>
  <anchor x="297" y="682" name="top"/>
  <outline>
    <contour>
      <point x="249" y="682" type="curve" smooth="yes"/>
      <point x="120" y="682" type="line"/>
      <point x="120" y="0" type="line"/>
      <point x="252" y="0" type="line" smooth="yes"/>
      <point x="386" y="0"/>
      <point x="547" y="61"/>
      <point x="547" y="348" type="curve" smooth="yes"/>
      <point x="547" y="627"/>
      <point x="395" y="682"/>
    </contour>
    <contour>
      <point x="246" y="653" type="line" smooth="yes"/>
      <point x="375" y="653"/>
      <point x="515" y="614"/>
      <point x="515" y="348" type="curve" smooth="yes"/>
      <point x="515" y="87"/>
      <point x="380" y="29"/>
      <point x="253" y="29" type="curve" smooth="yes"/>
      <point x="151" y="29" type="line"/>
      <point x="151" y="653" type="line"/>
    </contour>
  </outline>
</glyph>
<glyph name="G" format="2">
  <advance width="608"/>
  <unicode hex="0047"/>
  <anchor x="337" y="0" name="bottom"/>
  <anchor x="349" y="682" name="top"/>
  <outline>
    <contour>
      <point x="348" y="692" type="curve" smooth="yes"/>
      <point x="215" y="692"/>
      <point x="75" y="583"/>
      <point x="75" y="345" type="curve" smooth="yes"/>
      <point x="75" y="109"/>
      <point x="189" y="-10"/>
      <point x="353" y="-10" type="curve" smooth="yes"/>
      <point x="416" y="-10"/>
      <point x="481" y="8"/>
      <point x="538" y="42" type="curve"/>
      <point x="538" y="359" type="line"/>
      <point x="360" y="359" type="line"/>
      <point x="364" y="330" type="line"/>
      <point x="507" y="330" type="line"/>
      <point x="507" y="58" type="line"/>
      <point x="462" y="33"/>
      <point x="418" y="19"/>
      <point x="353" y="19" type="curve" smooth="yes"/>
      <point x="207" y="19"/>
      <point x="107" y="125"/>
      <point x="107" y="345" type="curve" smooth="yes"/>
      <point x="107" y="574"/>
      <point x="233" y="663"/>
      <point x="348" y="663" type="curve" smooth="yes"/>
      <point x="411" y="663"/>
      <point x="456" y="647"/>
      <point x="504" y="610" type="curve"/>
      <point x="523" y="631" type="line"/>
      <point x="470" y="672"/>
      <point x="422" y="692"/>
    </contour>
  </outline>
</glyph>
<glyph name="H" format="2">
  <advance width="662"/>
  <unicode hex="0048"/>
  <anchor x="331" y="0" name="bottom"/>
  <anchor x="552" y="0" name="bottomright"/>
  <anchor x="329" y="341" name="center"/>
  <anchor x="329" y="682" name="top"/>
  <anchor x="90" y="682" name="topleft"/>
  <outline>
    <contour>
      <point x="511" y="0" type="line"/>
      <point x="542" y="0" type="line"/>
      <point x="542" y="682" type="line"/>
      <point x="511" y="682" type="line"/>
      <point x="511" y="374" type="line"/>
      <point x="151" y="374" type="line"/>
      <point x="151" y="682" type="line"/>
      <point x="120" y="682" type="line"/>
      <point x="120" y="0" type="line"/>
      <point x="151" y="0" type="line"/>
      <point x="151" y="345" type="line"/>
      <point x="511" y="345" type="line"/>
    </contour>
  </outline>
</glyph>
<glyph name="I" format="2">
  <advance width="271"/>
  <unicode hex="0049"/>
  <anchor x="136" y="0" name="bottom"/>
  <anchor x="161" y="0" name="ogonek"/>
  <anchor x="135" y="682" name="top"/>
  <anchor x="90" y="682" name="topleft"/>
  <outline>
    <contour>
      <point x="151" y="682" type="line"/>
      <point x="120" y="682" type="line"/>
      <point x="120" y="0" type="line"/>
      <point x="151" y="0" type="line"/>
    </contour>
  </outline>
</glyph>
<glyph name="J" format="2">
  <advance width="279"/>
  <unicode hex="004A"/>
  <anchor x="139.5" y="-193" name="bottom"/>
  <anchor x="147" y="682" name="top"/>
  <outline>
    <contour>
      <point x="165" y="682" type="line"/>
      <point x="134" y="682" type="line"/>
      <point x="134" y="90" type="line" smooth="yes"/>
      <point x="134" y="-3"/>
      <point x="111" y="-37"/>
      <point x="20" y="-81" type="curve"/>
      <point x="29" y="-104" type="line"/>
      <point x="141" y="-54"/>
      <point x="165" y="-15"/>
      <point x="165" y="88" type="curve" smooth="yes"/>
    </contour>
  </outline>
</glyph>
<glyph name="K" format="2">
  <advance width="513"/>
  <unicode hex="004B"/>
  <anchor x="300" y="0" name="bottom"/>
  <anchor x="290" y="682" name="top"/>
  <outline>
    <contour>
      <point x="497" y="682" type="line"/>
      <point x="460" y="682" type="line"/>
      <point x="154" y="367" type="line"/>
      <point x="475" y="0" type="line"/>
      <point x="513" y="0" type="line"/>
      <point x="194" y="367" type="line"/>
    </contour>
    <contour>
      <point x="151" y="682" type="line"/>
      <point x="120" y="682" type="line"/>
      <point x="120" y="0" type="line"/>
      <point x="151" y="0" type="line"/>
    </contour>
  </outline>
</glyph>
<glyph name="L" format="2">
  <advance width="460"/>
  <unicode hex="004C"/>
  <anchor x="281" y="0" name="bottom"/>
  <anchor x="352" y="354" name="center"/>
  <anchor x="136" y="682" name="top"/>
  <anchor x="181" y="682" name="topright"/>
  <outline>
    <contour>
      <point x="151" y="682" type="line"/>
      <point x="120" y="682" type="line"/>
      <point x="120" y="0" type="line"/>
      <point x="434" y="0" type="line"/>
      <point x="440" y="30" type="line"/>
      <point x="151" y="30" type="line"/>
    </contour>
  </outline>
</glyph>
<glyph name="T" format="2">
  <advance width="477"/>
  <unicode hex="0054"/>
  <anchor x="239" y="0" name="bottom"/>
  <anchor x="264" y="0" name="bottomright"/>
  <anchor x="239" y="348" name="center"/>
  <anchor x="239" y="682" name="top"/>
  <outline>
    <contour>
      <point x="467" y="682" type="line"/>
      <point x="15" y="682" type="line"/>
      <point x="15" y="652" type="line"/>
      <point x="223" y="652" type="line"/>
      <point x="223" y="0" type="line"/>
      <point x="254" y="0" type="line"/>
      <point x="254" y="652" type="line"/>
      <point x="462" y="652" type="line"/>
    </contour>
  </outline>
</glyph>
<glyph name="V" format="2">
  <advance width="538"/>
  <unicode hex="0056"/>
  <anchor x="269" y="0" name="bottom"/>
  <anchor x="269" y="682" name="top"/>
  <outline>
    <contour>
      <point x="513" y="682" type="line"/>
      <point x="480" y="682" type="line"/>
      <point x="269" y="29" type="line"/>
      <point x="58" y="682" type="line"/>
      <point x="25" y="682" type="line"/>
      <point x="249" y="0" type="line"/>
      <point x="288" y="0" type="line"/>
    </contour>
  </outline>
</glyph>
<glyph name="W" format="2">
  <advance width="796"/>
  <unicode hex="0057"/>
  <anchor x="398" y="0" name="bottom"/>
  <anchor x="398" y="682" name="top"/>
  <outline>
    <contour>
      <point x="761" y="682" type="line"/>
      <point x="729" y="682" type="line"/>
      <point x="584" y="32" type="line"/>
      <point x="417" y="682" type="line"/>
      <point x="379" y="682" type="line"/>
      <point x="214" y="32" type="line"/>
      <point x="68" y="682" type="line"/>
      <point x="35" y="682" type="line"/>
      <point x="194" y="0" type="line"/>
      <point x="230" y="0" type="line"/>
      <point x="398" y="652" type="line"/>
      <point x="566" y="0" type="line"/>
      <point x="602" y="0" type="line"/>
    </contour>
  </outline>
</glyph>
<glyph name="X" format="2">
  <advance width="489"/>
  <unicode hex="0058"/>
  <anchor x="244.5" y="0" name="bottom"/>
  <anchor x="453" y="0" name="bottomright"/>
  <anchor x="244.5" y="682" name="top"/>
  <outline>
    <contour>
      <point x="72" y="682" type="line"/>
      <point x="37" y="682" type="line"/>
      <point x="225" y="369" type="line"/>
      <point x="243" y="350" type="line"/>
      <point x="443" y="0" type="line"/>
      <point x="478" y="0" type="line"/>
      <point x="261" y="370" type="line"/>
      <point x="243" y="388" type="line"/>
    </contour>
    <contour>
      <point x="446" y="682" type="line"/>
      <point x="412" y="682" type="line"/>
      <point x="243" y="388" type="line"/>
      <point x="225" y="369" type="line"/>
      <point x="15" y="0" type="line"/>
      <point x="49" y="0" type="line"/>
      <point x="243" y="350" type="line"/>
      <point x="261" y="370" type="line"/>
    </contour>
  </outline>
</glyph>
<glyph name="Z" format="2">
  <advance width="511"/>
  <unicode hex="005A"/>
  <anchor x="258" y="0" name="bottom"/>
  <anchor x="256" y="682" name="top"/>
  <outline>
    <contour>
      <point x="461" y="682" type="line"/>
      <point x="78" y="682" type="line"/>
      <point x="78" y="653" type="line"/>
      <point x="425" y="653" type="line"/>
      <point x="40" y="28" type="line"/>
      <point x="40" y="0" type="line"/>
      <point x="445" y="0" type="line"/>
      <point x="449" y="30" type="line"/>
      <point x="77" y="30" type="line"/>
      <point x="461" y="655" type="line"/>
    </contour>
  </outline>
</glyph>
<glyph name="f" format="2">
  <advance width="310"/>
  <unicode hex="0066"/>
  <anchor x="133" y="0" name="bottom"/>
  <anchor x="250" y="734" name="top"/>
  <outline>
    <contour>
      <point x="247" y="738" type="curve" smooth="yes"/>
      <point x="170" y="738"/>
      <point x="118" y="695"/>
      <point x="118" y="617" type="curve" smooth="yes"/>
      <point x="118" y="0" type="line"/>
      <point x="148" y="0" type="line"/>
      <point x="148" y="613" type="line" smooth="yes"/>
      <point x="148" y="683"/>
      <point x="188" y="710"/>
      <point x="249" y="710" type="curve" smooth="yes"/>
      <point x="286" y="710"/>
      <point x="319" y="701"/>
      <point x="353" y="685" type="curve"/>
      <point x="365" y="709" type="line"/>
      <point x="330" y="727"/>
      <point x="288" y="738"/>
    </contour>
    <contour>
      <point x="294" y="520" type="line"/>
      <point x="30" y="520" type="line"/>
      <point x="30" y="493" type="line"/>
      <point x="289" y="493" type="line"/>
    </contour>
  </outline>
</glyph>
<glyph name="k" format="2">
  <advance width="469"/>
  <unicode hex="006B"/>
  <anchor x="268" y="0" name="bottom"/>
  <anchor x="260" y="734" name="top"/>
  <outline>
    <contour>
      <point x="430" y="520" type="line"/>
      <point x="392" y="520" type="line"/>
      <point x="151" y="284" type="line"/>
      <point x="417" y="0" type="line"/>
      <point x="454" y="0" type="line"/>
      <point x="189" y="285" type="line"/>
    </contour>
    <contour>
      <point x="145" y="738" type="line"/>
      <point x="115" y="734" type="line"/>
      <point x="115" y="0" type="line"/>
      <point x="145" y="0" type="line"/>
    </contour>
  </outline>
</glyph>
<glyph name="l" format="2">
  <advance width="277"/>
  <unicode hex="006C"/>
  <anchor x="179" y="0" name="bottom"/>
  <anchor x="262" y="375" name="center"/>
  <anchor x="125" y="734" name="top"/>
  <anchor x="170" y="734" name="topright"/>
  <outline>
    <contour>
      <point x="188" y="-10" type="curve" smooth="yes"/>
      <point x="206" y="-10"/>
      <point x="224" y="-5"/>
      <point x="237" y="1" type="curve"/>
      <point x="228" y="26" type="line"/>
      <point x="216" y="21"/>
      <point x="203" y="18"/>
      <point x="189" y="18" type="curve" smooth="yes"/>
      <point x="157" y="18"/>
      <point x="140" y="37"/>
      <point x="140" y="76" type="curve" smooth="yes"/>
      <point x="140" y="738" type="line"/>
      <point x="110" y="734" type="line"/>
      <point x="110" y="75" type="line" smooth="yes"/>
      <point x="110" y="15"/>
      <point x="143" y="-10"/>
    </contour>
  </outline>
</glyph>
<glyph name="t" format="2">
  <advance width="325"/>
  <unicode hex="0074"/>
  <anchor x="222" y="0" name="bottom"/>
  <anchor x="157" y="260" name="center"/>
  <anchor x="125" y="650" name="top"/>
  <anchor x="156" y="735" name="topright"/>
  <outline>
    <contour>
      <point x="140" y="653" type="line"/>
      <point x="110" y="650" type="line"/>
      <point x="110" y="118" type="line" smooth="yes"/>
      <point x="110" y="32"/>
      <point x="155" y="-10"/>
      <point x="226" y="-10" type="curve" smooth="yes"/>
      <point x="267" y="-10"/>
      <point x="301" y="2"/>
      <point x="330" y="20" type="curve"/>
      <point x="316" y="43" type="line"/>
      <point x="290" y="28"/>
      <point x="262" y="18"/>
      <point x="228" y="18" type="curve" smooth="yes"/>
      <point x="169" y="18"/>
      <point x="140" y="53"/>
      <point x="140" y="120" type="curve" smooth="yes"/>
    </contour>
    <contour>
      <point x="283" y="520" type="line"/>
      <point x="25" y="520" type="line"/>
      <point x="25" y="493" type="line"/>
      <point x="278" y="493" type="line"/>
    </contour>
  </outline>
</glyph>
<glyph name="v" format="2">
  <advance width="452"/>
  <unicode hex="0076"/>
  <anchor x="231" y="0" name="bottom"/>
  <anchor x="227" y="520" name="top"/>
  <outline>
    <contour>
      <point x="432" y="520" type="line"/>
      <point x="399" y="520" type="line"/>
      <point x="230" y="26" type="line"/>
      <point x="54" y="520" type="line"/>
      <point x="20" y="520" type="line"/>
      <point x="211" y="0" type="line"/>
      <point x="251" y="0" type="line"/>
    </contour>
  </outline>
</glyph>
<glyph name="w" format="2">
  <advance width="683"/>
  <unicode hex="0077"/>
  <anchor x="343" y="0" name="bottom"/>
  <anchor x="342" y="520" name="top"/>
  <outline>
    <contour>
      <point x="653" y="520" type="line"/>
      <point x="622" y="520" type="line"/>
      <point x="499" y="28" type="line"/>
      <point x="362" y="520" type="line"/>
      <point x="325" y="520" type="line"/>
      <point x="188" y="29" type="line"/>
      <point x="63" y="520" type="line"/>
      <point x="30" y="520" type="line"/>
      <point x="167" y="0" type="line"/>
      <point x="207" y="0" type="line"/>
      <point x="343" y="490" type="line"/>
      <point x="479" y="0" type="line"/>
      <point x="519" y="0" type="line"/>
    </contour>
  </outline>
</glyph>
<glyph name="y" format="2">
  <advance width="448"/>
  <unicode hex="0079"/>
  <anchor x="226" y="-193" name="bottom"/>
  <anchor x="224" y="520" name="top"/>
  <outline>
    <contour>
      <point x="428" y="520" type="line"/>
      <point x="394" y="520" type="line"/>
      <point x="226" y="23" type="line"/>
      <point x="53" y="520" type="line"/>
      <point x="20" y="520" type="line"/>
      <point x="205" y="0" type="line"/>
      <point x="217" y="0" type="line"/>
      <point x="180" y="-100"/>
      <point x="158" y="-142"/>
      <point x="54" y="-173" type="curve"/>
      <point x="58" y="-197" type="line"/>
      <point x="170" y="-165"/>
      <point x="205" y="-117"/>
      <point x="245" y="-2" type="curve" smooth="yes"/>
    </contour>
  </outline>
</glyph>
<glyph name="z" format="2">
  <advance width="410"/>
  <unicode hex="007A"/>
  <anchor x="207" y="0" name="bottom"/>
  <anchor x="214" y="520" name="top"/>
  <outline>
    <contour>
      <point x="375" y="520" type="line"/>
      <point x="55" y="520" type="line"/>
      <point x="55" y="492" type="line"/>
      <point x="338" y="492" type="line"/>
      <point x="30" y="25" type="line"/>
      <point x="30" y="0" type="line"/>
      <point x="366" y="0" type="line"/>
      <point x="369" y="28" type="line"/>
      <point x="68" y="28" type="line"/>
      <point x="375" y="495" type="line"/>
    </contour>
  </outline>
</glyph>
<glyph name="bar" format="2">
  <advance width="410"/>
  <unicode hex="007C"/>
  <outline>
    <contour>
      <point x="220" y="802" type="line"/>
      <point x="190" y="802" type="line"/>
      <point x="190" y="-99" type="line"/>
      <point x="220" y="-99" type="line"/>
    </contour>
  </outline>
</glyph>
<glyph name="cent" format="2">
  <advance width="462"/>
  <unicode hex="00A2"/>
  <anchor x="282" y="520" name="top"/>
  <anchor x="283" y="0" name="bottom"/>
  <outline>
    <contour>
      <point x="296" y="677" type="line"/>
      <point x="270" y="677" type="line"/>
      <point x="270" y="527" type="line"/>
      <point x="296" y="527" type="line"/>
    </contour>
    <contour>
      <point x="269" y="-7" type="line"/>
      <point x="269" y="-147" type="line"/>
      <point x="296" y="-147" type="line"/>
      <point x="296" y="-6" type="line"/>
    </contour>
    <component base="c"/>
  </outline>
</glyph>
<glyph name="dieresis" format="2">
  <advance width="284"/>
  <unicode hex="00A8"/>
  <outline>
    <contour>
      <point x="228" y="720" type="curve" smooth="yes"/>
      <point x="212" y="720"/>
      <point x="202" y="709"/>
      <point x="202" y="695" type="curve" smooth="yes"/>
      <point x="202" y="681"/>
      <point x="212" y="670"/>
      <point x="228" y="670" type="curve" smooth="yes"/>
      <point x="243" y="670"/>
      <point x="253" y="681"/>
      <point x="253" y="695" type="curve" smooth="yes"/>
      <point x="253" y="709"/>
      <point x="243" y="720"/>
    </contour>
    <contour>
      <point x="55" y="720" type="curve" smooth="yes"/>
      <point x="40" y="720"/>
      <point x="30" y="709"/>
      <point x="30" y="695" type="curve" smooth="yes"/>
      <point x="30" y="681"/>
      <point x="40" y="670"/>
      <point x="55" y="670" type="curve" smooth="yes"/>
      <point x="71" y="670"/>
      <point x="81" y="681"/>
      <point x="81" y="695" type="curve" smooth="yes"/>
      <point x="81" y="709"/>
      <point x="71" y="720"/>
    </contour>
  </outline>
</glyph>
<glyph name="paragraph" format="2">
  <advance width="687"/>
  <unicode hex="00B6"/>
  <outline>
    <contour>
      <point x="527" y="682" type="line"/>
      <point x="330" y="681" type="line"/>
      <point x="327" y="648" type="line"/>
      <point x="327" y="-199" type="line"/>
      <point x="357" y="-193" type="line"/>
      <point x="357" y="654" type="line"/>
      <point x="497" y="654" type="line"/>
      <point x="497" y="-199" type="line"/>
      <point x="527" y="-193" type="line"/>
    </contour>
    <contour>
      <point x="330" y="681" type="line"/>
      <point x="189" y="681"/>
      <point x="110" y="613"/>
      <point x="110" y="493" type="curve" smooth="yes"/>
      <point x="110" y="390"/>
      <point x="166" y="304"/>
      <point x="341" y="304" type="curve"/>
    </contour>
  </outline>
</glyph>
<glyph name="AE" format="2">
  <advance width="757"/>
  <unicode hex="00C6"/>
  <anchor x="378.5" y="0" name="bottom"/>
  <anchor x="442" y="682" name="top"/>
  <outline>
    <contour>
      <point x="664" y="682" type="line"/>
      <point x="272" y="682" type="line"/>
      <point x="9" y="0" type="line"/>
      <point x="40" y="0" type="line"/>
      <point x="291" y="657" type="line"/>
      <point x="464" y="0" type="line"/>
      <point x="717" y="0" type="line"/>
      <point x="717" y="29" type="line"/>
      <point x="487" y="29" type="line"/>
      <point x="323" y="653" type="line"/>
      <point x="660" y="653" type="line"/>
    </contour>
    <contour>
      <point x="413" y="222" type="line"/>
      <point x="119" y="222" type="line"/>
      <point x="106" y="193" type="line"/>
      <point x="420" y="193" type="line"/>
    </contour>
    <contour>
      <point x="657" y="373" type="line"/>
      <point x="388" y="373" type="line"/>
      <point x="396" y="345" type="line"/>
      <point x="657" y="345" type="line"/>
    </contour>
  </outline>
</glyph>
<glyph name="Eth" format="2">
  <advance width="621"/>
  <unicode hex="00D0"/>
  <anchor x="296" y="682" name="top"/>
  <anchor x="316" y="341" name="center"/>
  <anchor x="299" y="0" name="bottom"/>
  <outline>
    <contour>
      <point x="340" y="367" type="line"/>
      <point x="119" y="367" type="line"/>
      <point x="25" y="367" type="line"/>
      <point x="25" y="337" type="line"/>
      <point x="340" y="337" type="line"/>
    </contour>
    <component base="D" xOffset="-1"/>
  </outline>
</glyph>
<glyph name="multiply" format="2">
  <advance width="488"/>
  <unicode hex="00D7"/>
  <outline>
    <contour>
      <point x="371" y="459" type="line"/>
      <point x="243" y="327" type="line"/>
      <point x="117" y="459" type="line"/>
      <point x="95" y="439" type="line"/>
      <point x="223" y="307" type="line"/>
      <point x="95" y="176" type="line"/>
      <point x="117" y="156" type="line"/>
      <point x="243" y="287" type="line"/>
      <point x="371" y="156" type="line"/>
      <point x="393" y="176" type="line"/>
      <point x="263" y="307" type="line"/>
      <point x="393" y="439" type="line"/>
    </contour>
  </outline>
</glyph>
<glyph name="Oslash" format="2">
  <advance width="690"/>
  <unicode hex="00D8"/>
  <anchor x="345" y="0" name="bottom"/>
  <anchor x="337" y="692" name="top"/>
  <outline>
    <contour>
      <point x="345" y="692" type="curve" smooth="yes"/>
      <point x="186" y="692"/>
      <point x="75" y="565"/>
      <point x="75" y="339" type="curve" smooth="yes"/>
      <point x="75" y="114"/>
      <point x="185" y="-10"/>
      <point x="345" y="-10" type="curve" smooth="yes"/>
      <point x="511" y="-10"/>
      <point x="615" y="118"/>
      <point x="615" y="340" type="curve" smooth="yes"/>
      <point x="615" y="571"/>
      <point x="506" y="692"/>
    </contour>
    <contour>
      <point x="345" y="663" type="curve"/>
      <point x="488" y="663"/>
      <point x="583" y="556"/>
      <point x="583" y="340" type="curve" smooth="yes"/>
      <point x="583" y="129"/>
      <point x="493" y="19"/>
      <point x="345" y="19" type="curve" smooth="yes"/>
      <point x="205" y="19"/>
      <point x="107" y="129"/>
      <point x="107" y="339" type="curve" smooth="yes"/>
      <point x="107" y="554"/>
      <point x="204" y="663"/>
    </contour>
    <contour>
      <point x="462" y="803" type="line"/>
      <point x="429" y="680" type="line"/>
      <point x="424" y="656" type="line"/>
      <point x="241" y="34" type="line"/>
      <point x="233" y="14" type="line"/>
      <point x="196" y="-105" type="line"/>
      <point x="227" y="-114" type="line"/>
      <point x="258" y="3" type="line"/>
      <point x="264" y="27" type="line"/>
      <point x="447" y="649" type="line"/>
      <point x="454" y="669" type="line"/>
      <point x="493" y="794" type="line"/>
    </contour>
  </outline>
</glyph>
<glyph name="Thorn" format="2">
  <advance width="561"/>
  <unicode hex="00DE"/>
  <anchor x="280.5" y="0" name="bottom"/>
  <anchor x="280.5" y="682" name="top"/>
  <outline>
    <contour>
      <point x="264" y="556" type="curve" smooth="yes"/>
      <point x="130" y="556" type="line"/>
      <point x="151" y="527" type="line"/>
      <point x="264" y="527" type="line" smooth="yes"/>
      <point x="399" y="527"/>
      <point x="474" y="483"/>
      <point x="474" y="356" type="curve" smooth="yes"/>
      <point x="474" y="214"/>
      <point x="385" y="173"/>
      <point x="262" y="173" type="curve" smooth="yes"/>
      <point x="144" y="173" type="line"/>
      <point x="144" y="144" type="line"/>
      <point x="259" y="144" type="line" smooth="yes"/>
      <point x="404" y="144"/>
      <point x="506" y="199"/>
      <point x="506" y="357" type="curve" smooth="yes"/>
      <point x="506" y="497"/>
      <point x="418" y="556"/>
    </contour>
    <contour>
      <point x="151" y="682" type="line"/>
      <point x="120" y="682" type="line"/>
      <point x="120" y="0" type="line"/>
      <point x="151" y="0" type="line"/>
    </contour>
  </outline>
</glyph>
<glyph name="oslash" format="2">
  <advance width="561"/>
  <unicode hex="00F8"/>
  <anchor x="280" y="0" name="bottom"/>
  <anchor x="281" y="520" name="top"/>
  <outline>
    <contour>
      <point x="281" y="530" type="curve" smooth="yes"/>
      <point x="154" y="530"/>
      <point x="70" y="431"/>
      <point x="70" y="259" type="curve" smooth="yes"/>
      <point x="70" y="91"/>
      <point x="150" y="-10"/>
      <point x="280" y="-10" type="curve" smooth="yes"/>
      <point x="408" y="-10"/>
      <point x="491" y="89"/>
      <point x="491" y="262" type="curve" smooth="yes"/>
      <point x="491" y="436"/>
      <point x="410" y="530"/>
    </contour>
    <contour>
      <point x="281" y="502" type="curve" smooth="yes"/>
      <point x="393" y="502"/>
      <point x="460" y="418"/>
      <point x="460" y="262" type="curve" smooth="yes"/>
      <point x="460" y="103"/>
      <point x="390" y="18"/>
      <point x="280" y="18" type="curve" smooth="yes"/>
      <point x="169" y="18"/>
      <point x="101" y="105"/>
      <point x="101" y="259" type="curve" smooth="yes"/>
      <point x="101" y="419"/>
      <point x="172" y="502"/>
    </contour>
    <contour>
      <point x="393" y="642" type="line"/>
      <point x="353" y="518" type="line"/>
      <point x="345" y="494" type="line"/>
      <point x="192" y="32" type="line"/>
      <point x="187" y="22" type="line"/>
      <point x="140" y="-113" type="line"/>
      <point x="167" y="-121" type="line"/>
      <point x="213" y="11" type="line"/>
      <point x="217" y="24" type="line"/>
      <point x="370" y="486" type="line"/>
      <point x="379" y="507" type="line"/>
      <point x="420" y="634" type="line"/>
    </contour>
  </outline>
</glyph>
<glyph name="dotlessi" format="2">
  <advance width="260"/>
  <unicode hex="0131"/>
  <anchor x="130" y="0" name="bottom"/>
  <anchor x="155" y="0" name="ogonek"/>
  <anchor x="130" y="520" name="top"/>
  <outline>
    <contour>
      <point x="145" y="520" type="line"/>
      <point x="115" y="520" type="line"/>
      <point x="115" y="0" type="line"/>
      <point x="145" y="0" type="line"/>
    </contour>
  </outline>
</glyph>
<glyph name="Lslash" format="2">
  <advance width="466"/>
  <unicode hex="0141"/>
  <anchor x="142" y="682" name="top"/>
  <anchor x="358" y="354" name="center"/>
  <anchor x="187" y="682" name="topright"/>
  <anchor x="287" y="0" name="bottom"/>
  <outline>
    <contour>
      <point x="355" y="475" type="line"/>
      <point x="126" y="331" type="line"/>
      <point x="42" y="279" type="line"/>
      <point x="55" y="257" type="line"/>
      <point x="368" y="453" type="line"/>
    </contour>
    <component base="L" xOffset="6"/>
  </outline>
</glyph>
<glyph name="lslash" format="2">
  <advance width="289"/>
  <unicode hex="0142"/>
  <anchor x="132" y="734" name="top"/>
  <anchor x="269" y="375" name="center"/>
  <anchor x="177" y="734" name="topright"/>
  <anchor x="186" y="0" name="bottom"/>
  <outline>
    <contour>
      <point x="54" y="301" type="line"/>
      <point x="264" y="430" type="line"/>
      <point x="251" y="452" type="line"/>
      <point x="118" y="370" type="line"/>
      <point x="41" y="322" type="line"/>
    </contour>
    <component base="l" xOffset="7"/>
  </outline>
</glyph>
<glyph name="napostrophe" format="2">
  <advance width="644"/>
  <unicode hex="0149"/>
  <anchor x="167" y="520" name="topleft"/>
  <anchor x="359" y="520" name="top"/>
  <anchor x="351" y="0" name="bottom"/>
  <outline>
    <contour>
      <point x="94" y="738" type="curve" smooth="yes"/>
      <point x="74" y="738"/>
      <point x="62" y="724"/>
      <point x="62" y="707" type="curve" smooth="yes"/>
      <point x="62" y="691"/>
      <point x="66" y="682"/>
      <point x="82" y="677" type="curve"/>
      <point x="55" y="558" type="line"/>
      <point x="76" y="558" type="line"/>
      <point x="108" y="650" type="line" smooth="yes"/>
      <point x="120" y="683"/>
      <point x="127" y="691"/>
      <point x="127" y="707" type="curve" smooth="yes"/>
      <point x="127" y="724"/>
      <point x="116" y="738"/>
    </contour>
    <component base="n" xOffset="62"/>
  </outline>
</glyph>
<glyph name="Tbar" format="2">
  <advance width="485"/>
  <unicode hex="0166"/>
  <anchor x="239" y="682" name="top"/>
  <anchor x="239" y="348" name="center"/>
  <anchor x="264" y="0" name="bottomright"/>
  <anchor x="239" y="0" name="bottom"/>
  <outline>
    <contour>
      <point x="378" y="382" type="line"/>
      <point x="99" y="382" type="line"/>
      <point x="99" y="354" type="line"/>
      <point x="223" y="354" type="line"/>
      <point x="378" y="354" type="line"/>
    </contour>
    <component base="T"/>
  </outline>
</glyph>
<glyph name="tbar" format="2">
  <advance width="325"/>
  <unicode hex="0167"/>
  <anchor x="125" y="650" name="top"/>
  <anchor x="157" y="260" name="center"/>
  <anchor x="156" y="735" name="topright"/>
  <anchor x="222" y="0" name="bottom"/>
  <outline>
    <contour>
      <point x="275" y="344" type="line"/>
      <point x="110" y="344" type="line"/>
      <point x="25" y="344" type="line"/>
      <point x="25" y="317" type="line"/>
      <point x="275" y="317" type="line"/>
    </contour>
    <component base="t"/>
  </outline>
</glyph>
<glyph name="tonesix" format="2">
  <advance width="491"/>
  <unicode hex="0185"/>
  <anchor x="245.5" y="0" name="bottom"/>
  <anchor x="245.5" y="520" name="top"/>
  <outline>
    <contour>
      <point x="115" y="0" type="line"/>
      <point x="262" y="0" type="line"/>
      <point x="373" y="0"/>
      <point x="451" y="54"/>
      <point x="451" y="175" type="curve" smooth="yes"/>
      <point x="451" y="276"/>
      <point x="394" y="338"/>
      <point x="256" y="338" type="curve" smooth="yes"/>
      <point x="138" y="338" type="line"/>
      <point x="138" y="310" type="line"/>
      <point x="257" y="310" type="line" smooth="yes"/>
      <point x="377" y="310"/>
      <point x="420" y="260"/>
      <point x="420" y="175" type="curve" smooth="yes"/>
      <point x="420" y="69"/>
      <point x="359" y="28"/>
      <point x="259" y="28" type="curve" smooth="yes"/>
      <point x="145" y="28" type="line"/>
      <point x="145" y="520" type="line"/>
      <point x="120" y="520" type="line"/>
      <point x="115" y="489" type="line"/>
    </contour>
    <contour>
      <point x="115" y="418" type="line"/>
      <point x="120" y="520" type="line"/>
      <point x="108" y="485"/>
      <point x="95" y="466"/>
      <point x="76" y="447" type="curve"/>
    </contour>
  </outline>
</glyph>
<glyph name="Ereversed" format="2">
  <advance width="493"/>
  <unicode hex="018E"/>
  <outline>
    <contour>
      <point x="47" y="682" type="line"/>
      <point x="47" y="653" type="line"/>
      <point x="342" y="653" type="line"/>
      <point x="342" y="373" type="line"/>
      <point x="90" y="373" type="line"/>
      <point x="90" y="345" type="line"/>
      <point x="342" y="345" type="line"/>
      <point x="342" y="29" type="line"/>
      <point x="40" y="29" type="line"/>
      <point x="40" y="0" type="line"/>
      <point x="373" y="0" type="line"/>
      <point x="373" y="682" type="line"/>
    </contour>
  </outline>
</glyph>
<glyph name="Iotaafrican" format="2">
  <advance width="325"/>
  <unicode hex="0196"/>
  <anchor x="193" y="0" name="bottom"/>
  <anchor x="126" y="682" name="top"/>
  <outline>
    <contour>
      <point x="141" y="682" type="line"/>
      <point x="110" y="682" type="line"/>
      <point x="110" y="189" type="line"/>
      <point x="141" y="189" type="line"/>
    </contour>
    <component base="hookHELPER.case" xScale="-1" xOffset="344" yOffset="189"/>
  </outline>
</glyph>
<glyph name="Nhookleft" format="2">
  <advance width="664"/>
  <unicode hex="019D"/>
  <anchor x="339" y="682" name="top"/>
  <anchor x="332" y="0" name="bottom"/>
  <outline>
    <contour>
      <point x="46" y="-199" type="curve" smooth="yes"/>
      <point x="106" y="-199"/>
      <point x="150" y="-161"/>
      <point x="150" y="-82" type="curve" smooth="yes"/>
      <point x="150" y="1" type="line"/>
      <point x="120" y="1" type="line"/>
      <point x="120" y="-81" type="line" smooth="yes"/>
      <point x="120" y="-150"/>
      <point x="86" y="-172"/>
      <point x="46" y="-172" type="curve" smooth="yes"/>
      <point x="11" y="-172"/>
      <point x="-11" y="-161"/>
      <point x="-30" y="-148" type="curve"/>
      <point x="-45" y="-168" type="line"/>
      <point x="-25" y="-183"/>
      <point x="5" y="-199"/>
    </contour>
    <component base="N"/>
  </outline>
</glyph>
<glyph name="nlegrightlong" format="2">
  <advance width="582"/>
  <unicode hex="019E"/>
  <anchor x="105" y="520" name="topleft"/>
  <anchor x="297" y="520" name="top"/>
  <anchor x="289" y="0" name="bottom"/>
  <outline>
    <contour>
      <point x="472" y="1" type="line"/>
      <point x="442" y="1" type="line"/>
      <point x="442" y="-193" type="line"/>
      <point x="472" y="-199" type="line"/>
    </contour>
    <component base="n"/>
  </outline>
</glyph>
<glyph name="eshreversedloop" format="2">
  <advance width="268"/>
  <unicode hex="01AA"/>
  <anchor x="134" y="-193" name="bottom"/>
  <anchor x="134" y="734" name="top"/>
  <outline>
    <contour>
      <point x="55" y="738" type="curve" smooth="yes"/>
      <point x="-3" y="738"/>
      <point x="-45" y="691"/>
      <point x="-45" y="626" type="curve" smooth="yes"/>
      <point x="-45" y="559"/>
      <point x="-3" y="519"/>
      <point x="56" y="519" type="curve" smooth="yes"/>
      <point x="91" y="519"/>
      <point x="120" y="531"/>
      <point x="140" y="550" type="curve"/>
      <point x="135" y="570" type="line"/>
      <point x="115" y="557"/>
      <point x="93" y="546"/>
      <point x="57" y="546" type="curve" smooth="yes"/>
      <point x="15" y="546"/>
      <point x="-15" y="570"/>
      <point x="-15" y="627" type="curve" smooth="yes"/>
      <point x="-15" y="678"/>
      <point x="12" y="711"/>
      <point x="55" y="711" type="curve" smooth="yes"/>
      <point x="97" y="711"/>
      <point x="120" y="681"/>
      <point x="120" y="632" type="curve" smooth="yes"/>
      <point x="120" y="0" type="line"/>
      <point x="150" y="0" type="line"/>
      <point x="150" y="633" type="line" smooth="yes"/>
      <point x="150" y="692"/>
      <point x="117" y="738"/>
    </contour>
    <component base="hookHELPER" xScale="-1" xOffset="354"/>
  </outline>
</glyph>
<glyph name="Ezh" format="2">
  <advance width="475"/>
  <unicode hex="01B7"/>
  <anchor x="237.5" y="0" name="bottom"/>
  <anchor x="219" y="682" name="top"/>
  <outline>
    <contour>
      <point x="216" y="-10" type="curve" smooth="yes"/>
      <point x="349" y="-10"/>
      <point x="425" y="72"/>
      <point x="425" y="183" type="curve" smooth="yes"/>
      <point x="425" y="307"/>
      <point x="351" y="377"/>
      <point x="207" y="377" type="curve" smooth="yes"/>
      <point x="159" y="377" type="line"/>
      <point x="128" y="348" type="line"/>
      <point x="209" y="348" type="line" smooth="yes"/>
      <point x="321" y="348"/>
      <point x="393" y="301"/>
      <point x="393" y="182" type="curve" smooth="yes"/>
      <point x="393" y="89"/>
      <point x="335" y="19"/>
      <point x="215" y="19" type="curve" smooth="yes"/>
      <point x="142" y="19"/>
      <point x="89" y="39"/>
      <point x="40" y="91" type="curve"/>
      <point x="20" y="73" type="line"/>
      <point x="69" y="20"/>
      <point x="128" y="-10"/>
    </contour>
    <contour>
      <point x="128" y="377" type="line"/>
      <point x="128" y="348" type="line"/>
      <point x="163" y="377" type="line"/>
      <point x="400" y="656" type="line"/>
      <point x="400" y="682" type="line"/>
      <point x="37" y="682" type="line"/>
      <point x="37" y="654" type="line"/>
      <point x="360" y="654" type="line"/>
    </contour>
  </outline>
</glyph>
<glyph name="glottalinvertedstroke" format="2">
  <advance width="492"/>
  <unicode hex="01BE"/>
  <anchor x="185" y="734" name="top"/>
  <anchor x="219" y="0" name="bottom"/>
  <outline>
    <contour>
      <point x="101" y="595" type="line"/>
      <point x="101" y="568" type="line"/>
      <point x="169" y="568" type="line"/>
      <point x="319" y="568" type="line"/>
      <point x="319" y="595" type="line"/>
    </contour>
    <component base="glottalstopinverted"/>
  </outline>
</glyph>
<glyph name="dotlessj" format="2">
  <advance width="261"/>
  <unicode hex="0237"/>
  <anchor x="131" y="-193" name="bottom"/>
  <anchor x="130" y="520" name="top"/>
  <outline>
    <contour>
      <point x="146" y="520" type="line"/>
      <point x="116" y="520" type="line"/>
      <point x="116" y="9" type="line" smooth="yes"/>
      <point x="116" y="-108"/>
      <point x="88" y="-138"/>
      <point x="19" y="-174" type="curve"/>
      <point x="28" y="-196" type="line"/>
      <point x="108" y="-156"/>
      <point x="146" y="-124"/>
      <point x="146" y="8" type="curve" smooth="yes"/>
    </contour>
  </outline>
</glyph>
<glyph name="Astroke" format="2">
  <advance width="558"/>
  <unicode hex="023A"/>
  <anchor x="279" y="0" name="bottom"/>
  <anchor x="279" y="682" name="top"/>
  <outline>
    <contour>
      <point x="383" y="740" type="line"/>
      <point x="172" y="-64" type="line"/>
      <point x="195" y="-70" type="line"/>
      <point x="405" y="734" type="line"/>
    </contour>
    <contour>
      <point x="298" y="682" type="line"/>
      <point x="260" y="682" type="line"/>
      <point x="25" y="0" type="line"/>
      <point x="56" y="0" type="line"/>
      <point x="279" y="657" type="line"/>
      <point x="500" y="0" type="line"/>
      <point x="533" y="0" type="line"/>
    </contour>
    <contour>
      <point x="434" y="228" type="line"/>
      <point x="123" y="228" type="line"/>
      <point x="112" y="199" type="line"/>
      <point x="444" y="199" type="line"/>
    </contour>
  </outline>
</glyph>
<glyph name="Cstroke" format="2">
  <advance width="542"/>
  <unicode hex="023B"/>
  <anchor x="271" y="0" name="bottom"/>
  <anchor x="271" y="682" name="top"/>
  <anchor x="328" y="344" name="center"/>
  <outline>
    <contour>
      <point x="413" y="740" type="line"/>
      <point x="202" y="-64" type="line"/>
      <point x="225" y="-70" type="line"/>
      <point x="435" y="734" type="line"/>
    </contour>
    <component base="C"/>
  </outline>
</glyph>
<glyph name="cstroke" format="2">
  <advance width="462"/>
  <unicode hex="023C"/>
  <anchor x="282" y="520" name="top"/>
  <anchor x="283" y="0" name="bottom"/>
  <outline>
    <contour>
      <point x="346" y="589" type="line"/>
      <point x="166" y="-64" type="line"/>
      <point x="189" y="-70" type="line"/>
      <point x="368" y="583" type="line"/>
    </contour>
    <component base="c"/>
  </outline>
</glyph>
<glyph name="Glottalstop" format="2">
  <advance width="457"/>
  <unicode hex="0241"/>
  <anchor x="228.5" y="0" name="bottom"/>
  <anchor x="228.5" y="682" name="top"/>
  <outline>
    <contour>
      <point x="163" y="0" type="line"/>
      <point x="194" y="0" type="line"/>
      <point x="194" y="271" type="line"/>
      <point x="239" y="282" type="line" smooth="yes"/>
      <point x="335" y="304"/>
      <point x="417" y="350"/>
      <point x="417" y="492" type="curve" smooth="yes"/>
      <point x="417" y="607"/>
      <point x="342" y="692"/>
      <point x="218" y="692" type="curve" smooth="yes"/>
      <point x="139" y="692"/>
      <point x="79" y="663"/>
      <point x="20" y="609" type="curve"/>
      <point x="40" y="589" type="line"/>
      <point x="91" y="634"/>
      <point x="146" y="663"/>
      <point x="217" y="663" type="curve" smooth="yes"/>
      <point x="323" y="663"/>
      <point x="385" y="593"/>
      <point x="385" y="492" type="curve" smooth="yes"/>
      <point x="385" y="375"/>
      <point x="325" y="333"/>
      <point x="236" y="311" type="curve" smooth="yes"/>
      <point x="163" y="293" type="line"/>
    </contour>
  </outline>
</glyph>
<glyph name="Bstroke" format="2">
  <advance width="585"/>
  <unicode hex="0243"/>
  <anchor x="287" y="682" name="top"/>
  <anchor x="306" y="0" name="bottom"/>
  <outline>
    <contour>
      <point x="337" y="208" type="line"/>
      <point x="116" y="208" type="line"/>
      <point x="25" y="208" type="line"/>
      <point x="25" y="180" type="line"/>
      <point x="337" y="180" type="line"/>
    </contour>
    <component base="B" xOffset="-4"/>
  </outline>
</glyph>
<glyph name="Ubar" format="2">
  <advance width="652"/>
  <unicode hex="0244"/>
  <anchor x="327" y="682" name="top"/>
  <anchor x="412" y="0" name="ogonek"/>
  <anchor x="548" y="682" name="topright"/>
  <anchor x="327" y="0" name="bottom"/>
  <outline>
    <contour>
      <point x="600" y="542" type="line"/>
      <point x="537" y="542" type="line"/>
      <point x="52" y="542" type="line"/>
      <point x="52" y="518" type="line"/>
      <point x="115" y="518" type="line"/>
      <point x="600" y="518" type="line"/>
    </contour>
    <component base="U" xOffset="5"/>
  </outline>
</glyph>
<glyph name="Estroke" format="2">
  <advance width="493"/>
  <unicode hex="0246"/>
  <anchor x="246.5" y="0" name="bottom"/>
  <anchor x="246.5" y="682" name="top"/>
  <anchor x="90" y="682" name="topleft"/>
  <anchor x="438" y="0" name="ogonek"/>
  <outline>
    <contour>
      <point x="383" y="740" type="line"/>
      <point x="172" y="-64" type="line"/>
      <point x="195" y="-70" type="line"/>
      <point x="405" y="734" type="line"/>
    </contour>
    <component base="E"/>
  </outline>
</glyph>
<glyph name="Ystroke" format="2">
  <advance width="500"/>
  <unicode hex="024E"/>
  <anchor x="250" y="0" name="bottom"/>
  <anchor x="250" y="682" name="top"/>
  <outline>
    <contour>
      <point x="480" y="587" type="line"/>
      <point x="429" y="587" type="line"/>
      <point x="71" y="587" type="line"/>
      <point x="20" y="587" type="line"/>
      <point x="20" y="563" type="line"/>
      <point x="480" y="563" type="line"/>
    </contour>
    <contour>
      <point x="480" y="682" type="line"/>
      <point x="445" y="682" type="line"/>
      <point x="252" y="297" type="line"/>
      <point x="55" y="682" type="line"/>
      <point x="20" y="682" type="line"/>
      <point x="236" y="270" type="line"/>
      <point x="236" y="0" type="line"/>
      <point x="267" y="0" type="line"/>
      <point x="267" y="271" type="line"/>
    </contour>
  </outline>
</glyph>
<glyph name="ystroke" format="2">
  <advance width="448"/>
  <unicode hex="024F"/>
  <anchor x="224" y="520" name="top"/>
  <anchor x="226" y="-193" name="bottom"/>
  <outline>
    <contour>
      <point x="20" y="357" type="line"/>
      <point x="428" y="357" type="line"/>
      <point x="428" y="382" type="line"/>
      <point x="378" y="382" type="line"/>
      <point x="70" y="382" type="line"/>
      <point x="20" y="382" type="line"/>
    </contour>
    <component base="y"/>
  </outline>
</glyph>
<glyph name="jdotlessstroke" format="2">
  <advance width="289"/>
  <unicode hex="025F"/>
  <anchor x="147" y="520" name="top"/>
  <anchor x="148" y="-193" name="bottom"/>
  <outline>
    <contour>
      <point x="20" y="229" type="line"/>
      <point x="269" y="229" type="line"/>
      <point x="269" y="257" type="line"/>
      <point x="20" y="257" type="line"/>
    </contour>
    <component base="dotlessj" xOffset="17"/>
  </outline>
</glyph>
<glyph name="lhookretroflex" format="2">
  <advance width="260"/>
  <unicode hex="026D"/>
  <anchor x="209" y="-193" name="bottom"/>
  <anchor x="130" y="734" name="top"/>
  <outline>
    <contour>
      <point x="115" y="0" type="line"/>
      <point x="145" y="0" type="line"/>
      <point x="145" y="738" type="line"/>
      <point x="115" y="734" type="line"/>
    </contour>
    <component base="hookHELPER" xScale="-1" xOffset="349"/>
  </outline>
</glyph>
<glyph name="lezh" format="2">
  <advance width="602"/>
  <unicode hex="026E"/>
  <anchor x="362" y="-193" name="bottom"/>
  <anchor x="332" y="734" name="top"/>
  <anchor x="170" y="734" name="topright"/>
  <anchor x="262" y="375" name="center"/>
  <outline>
    <contour>
      <point x="362" y="-199" type="curve" smooth="yes"/>
      <point x="491" y="-199"/>
      <point x="567" y="-116"/>
      <point x="567" y="1" type="curve" smooth="yes"/>
      <point x="567" y="125"/>
      <point x="500" y="195"/>
      <point x="333" y="195" type="curve" smooth="yes"/>
      <point x="319" y="195" type="line"/>
      <point x="285" y="167" type="line"/>
      <point x="336" y="167" type="line" smooth="yes"/>
      <point x="472" y="167"/>
      <point x="537" y="119"/>
      <point x="537" y="1" type="curve" smooth="yes"/>
      <point x="537" y="-101"/>
      <point x="477" y="-171"/>
      <point x="361" y="-171" type="curve" smooth="yes"/>
      <point x="302" y="-171"/>
      <point x="254" y="-154"/>
      <point x="207" y="-111" type="curve"/>
      <point x="189" y="-130" type="line"/>
      <point x="237" y="-174"/>
      <point x="289" y="-199"/>
    </contour>
    <contour>
      <point x="285" y="167" type="line"/>
      <point x="319" y="195" type="line"/>
      <point x="542" y="495" type="line"/>
      <point x="542" y="520" type="line"/>
      <point x="139" y="520" type="line"/>
      <point x="139" y="492" type="line"/>
      <point x="505" y="492" type="line"/>
      <point x="285" y="195" type="line"/>
    </contour>
    <component base="l"/>
  </outline>
</glyph>
<glyph name="mlonglegturned" format="2">
  <advance width="849"/>
  <unicode hex="0270"/>
  <anchor x="432" y="-193" name="bottom"/>
  <anchor x="425" y="520" name="top"/>
  <outline>
    <contour>
      <point x="704" y="118" type="line"/>
      <point x="704" y="-193" type="line"/>
      <point x="734" y="-199" type="line"/>
      <point x="734" y="117" type="line"/>
    </contour>
    <component base="mturned"/>
  </outline>
</glyph>
<glyph name="Nsmall" format="2">
  <advance width="585"/>
  <unicode hex="0274"/>
  <anchor x="293" y="0" name="bottom"/>
  <anchor x="293" y="520" name="top"/>
  <outline>
    <contour>
      <point x="470" y="520" type="line"/>
      <point x="441" y="520" type="line"/>
      <point x="441" y="205" type="line" smooth="yes"/>
      <point x="441" y="122"/>
      <point x="443" y="65"/>
      <point x="444" y="29" type="curve"/>
      <point x="153" y="520" type="line"/>
      <point x="115" y="520" type="line"/>
      <point x="115" y="0" type="line"/>
      <point x="144" y="0" type="line"/>
      <point x="144" y="298" type="line" smooth="yes"/>
      <point x="144" y="407"/>
      <point x="143" y="451"/>
      <point x="141" y="491" type="curve"/>
      <point x="432" y="0" type="line"/>
      <point x="470" y="0" type="line"/>
    </contour>
  </outline>
</glyph>
<glyph name="rlonglegturned" format="2">
  <advance width="363"/>
  <unicode hex="027A"/>
  <anchor x="157" y="0" name="bottom"/>
  <anchor x="233" y="734" name="top"/>
  <outline>
    <contour>
      <point x="218" y="519" type="line"/>
      <point x="248" y="519" type="line"/>
      <point x="248" y="734" type="line"/>
      <point x="218" y="738" type="line"/>
    </contour>
    <component base="rturned"/>
  </outline>
</glyph>
<glyph name="rlongleg" format="2">
  <advance width="363"/>
  <unicode hex="027C"/>
  <anchor x="130" y="-193" name="bottom"/>
  <anchor x="229" y="520" name="top"/>
  <outline>
    <contour>
      <point x="115" y="1" type="line"/>
      <point x="115" y="-199" type="line"/>
      <point x="145" y="-193" type="line"/>
      <point x="145" y="1" type="line"/>
    </contour>
    <component base="r"/>
  </outline>
</glyph>
<glyph name="Rsmall" format="2">
  <advance width="507"/>
  <unicode hex="0280"/>
  <anchor x="254" y="0" name="bottom"/>
  <anchor x="254" y="520" name="top"/>
  <outline>
    <contour>
      <point x="237" y="520" type="curve" smooth="yes"/>
      <point x="115" y="520" type="line"/>
      <point x="115" y="0" type="line"/>
      <point x="145" y="0" type="line"/>
      <point x="145" y="492" type="line"/>
      <point x="234" y="492" type="line" smooth="yes"/>
      <point x="359" y="492"/>
      <point x="405" y="450"/>
      <point x="405" y="373" type="curve" smooth="yes"/>
      <point x="405" y="296"/>
      <point x="347" y="255"/>
      <point x="242" y="255" type="curve" smooth="yes"/>
      <point x="138" y="255" type="line"/>
      <point x="138" y="228" type="line"/>
      <point x="280" y="228" type="line"/>
      <point x="371" y="241"/>
      <point x="436" y="284"/>
      <point x="436" y="373" type="curve" smooth="yes"/>
      <point x="436" y="467"/>
      <point x="374" y="520"/>
    </contour>
    <contour>
      <point x="290" y="252" type="line"/>
      <point x="259" y="247" type="line"/>
      <point x="421" y="0" type="line"/>
      <point x="457" y="0" type="line"/>
    </contour>
  </outline>
</glyph>
<glyph name="esh" format="2">
  <advance width="266"/>
  <unicode hex="0283"/>
  <anchor x="44" y="-193" name="bottom"/>
  <anchor x="221" y="734" name="top"/>
  <outline>
    <contour>
      <point x="148" y="520" type="line"/>
      <point x="118" y="520" type="line"/>
      <point x="118" y="0" type="line"/>
      <point x="148" y="0" type="line"/>
    </contour>
    <component base="hookaboveHELPER2" xOffset="79"/>
    <component base="hookHELPER" xOffset="-86"/>
  </outline>
</glyph>
<glyph name="jdotlessstrokehook" format="2">
  <advance width="289"/>
  <unicode hex="0284"/>
  <anchor x="148" y="-193" name="bottom"/>
  <anchor x="221" y="734" name="top"/>
  <outline>
    <contour>
      <point x="45" y="-196" type="line"/>
      <point x="125" y="-156"/>
      <point x="163" y="-124"/>
      <point x="163" y="8" type="curve" smooth="yes"/>
      <point x="163" y="520" type="line"/>
      <point x="133" y="520" type="line"/>
      <point x="133" y="9" type="line" smooth="yes"/>
      <point x="133" y="-108"/>
      <point x="105" y="-138"/>
      <point x="36" y="-174" type="curve"/>
    </contour>
    <contour>
      <point x="24" y="0" type="line"/>
      <point x="273" y="0" type="line"/>
      <point x="273" y="25" type="line"/>
      <point x="24" y="25" type="line"/>
    </contour>
    <component base="hookaboveHELPER2" xOffset="94"/>
  </outline>
</glyph>
<glyph name="eshsquatreversed" format="2">
  <advance width="370"/>
  <unicode hex="0285"/>
  <anchor x="272" y="0" name="bottom"/>
  <anchor x="97" y="520" name="top"/>
  <outline>
    <contour>
      <point x="170" y="312" type="line"/>
      <point x="170" y="190" type="line"/>
      <point x="200" y="190" type="line"/>
      <point x="200" y="312" type="line"/>
    </contour>
    <component base="hookaboveHELPER2" xScale="-1" xOffset="239" yOffset="-208"/>
    <component base="hookHELPER" xScale="-1" xOffset="404" yOffset="189"/>
  </outline>
</glyph>
<glyph name="tretroflexhook" format="2">
  <advance width="325"/>
  <unicode hex="0288"/>
  <anchor x="214" y="-193" name="bottom"/>
  <anchor x="124" y="650" name="top"/>
  <outline>
    <contour>
      <point x="110" y="0" type="line"/>
      <point x="140" y="0" type="line"/>
      <point x="140" y="653" type="line"/>
      <point x="110" y="650" type="line"/>
    </contour>
    <contour>
      <point x="25" y="493" type="line"/>
      <point x="278" y="493" type="line"/>
      <point x="283" y="520" type="line"/>
      <point x="25" y="520" type="line"/>
    </contour>
    <component base="hookHELPER" xScale="-1" xOffset="344"/>
  </outline>
</glyph>
<glyph name="ubar" format="2">
  <advance width="599"/>
  <unicode hex="0289"/>
  <anchor x="300" y="0" name="bottom"/>
  <anchor x="300" y="520" name="top"/>
  <anchor x="480" y="0" name="ogonek"/>
  <anchor x="480" y="520" name="topright"/>
  <outline>
    <contour>
      <point x="30" y="357" type="line"/>
      <point x="118" y="357" type="line"/>
      <point x="559" y="357" type="line"/>
      <point x="559" y="382" type="line"/>
      <point x="471" y="382" type="line"/>
      <point x="30" y="382" type="line"/>
    </contour>
    <component base="u" xOffset="8"/>
  </outline>
</glyph>
<glyph name="yturned" format="2">
  <advance width="448"/>
  <unicode hex="028E"/>
  <anchor x="222" y="0" name="bottom"/>
  <anchor x="227" y="734" name="top"/>
  <outline>
    <contour>
      <point x="20" y="0" type="line"/>
      <point x="54" y="0" type="line"/>
      <point x="222" y="497" type="line"/>
      <point x="395" y="0" type="line"/>
      <point x="428" y="0" type="line"/>
      <point x="243" y="520" type="line"/>
      <point x="231" y="520" type="line"/>
      <point x="273" y="642"/>
      <point x="295" y="683"/>
      <point x="394" y="714" type="curve"/>
      <point x="390" y="738" type="line"/>
      <point x="278" y="706"/>
      <point x="250" y="656"/>
      <point x="203" y="522" type="curve" smooth="yes"/>
    </contour>
  </outline>
</glyph>
<glyph name="Ysmall" format="2">
  <advance width="401"/>
  <unicode hex="028F"/>
  <anchor x="201" y="0" name="bottom"/>
  <anchor x="201" y="520" name="top"/>
  <outline>
    <contour>
      <point x="391" y="520" type="line"/>
      <point x="357" y="520" type="line"/>
      <point x="203" y="238" type="line"/>
      <point x="43" y="520" type="line"/>
      <point x="10" y="520" type="line"/>
      <point x="187" y="211" type="line"/>
      <point x="187" y="0" type="line"/>
      <point x="217" y="0" type="line"/>
      <point x="217" y="212" type="line"/>
    </contour>
  </outline>
</glyph>
<glyph name="kturned" format="2">
  <advance width="469"/>
  <unicode hex="029E"/>
  <anchor x="204" y="-193" name="bottom"/>
  <anchor x="193" y="520" name="top"/>
  <outline>
    <contour>
      <point x="39" y="0" type="line"/>
      <point x="77" y="0" type="line"/>
      <point x="318" y="236" type="line"/>
      <point x="52" y="520" type="line"/>
      <point x="15" y="520" type="line"/>
      <point x="280" y="235" type="line"/>
    </contour>
    <contour>
      <point x="324" y="-193" type="line"/>
      <point x="354" y="-199" type="line"/>
      <point x="354" y="520" type="line"/>
      <point x="324" y="520" type="line"/>
    </contour>
  </outline>
</glyph>
<glyph name="Lsmall" format="2">
  <advance width="400"/>
  <unicode hex="029F"/>
  <anchor x="250" y="0" name="bottom"/>
  <anchor x="130" y="520" name="top"/>
  <outline>
    <contour>
      <point x="145" y="520" type="line"/>
      <point x="115" y="520" type="line"/>
      <point x="115" y="0" type="line"/>
      <point x="384" y="0" type="line"/>
      <point x="390" y="28" type="line"/>
      <point x="145" y="28" type="line"/>
    </contour>
  </outline>
</glyph>
<glyph name="glottalstopstrokereversed" format="2">
  <advance width="427"/>
  <unicode hex="02A2"/>
  <anchor x="248" y="734" name="top"/>
  <anchor x="279" y="0" name="bottom"/>
  <outline>
    <contour>
      <point x="367" y="205" type="line"/>
      <point x="149" y="205" type="line"/>
      <point x="149" y="178" type="line"/>
      <point x="299" y="178" type="line"/>
      <point x="367" y="178" type="line"/>
    </contour>
    <component base="glottalstopreversed"/>
  </outline>
</glyph>
<glyph name="wmod" format="2">
  <advance width="458"/>
  <unicode hex="02B7"/>
  <outline>
    <contour>
      <point x="408" y="661" type="line"/>
      <point x="381" y="661" type="line"/>
      <point x="317" y="422" type="line"/>
      <point x="247" y="661" type="line"/>
      <point x="214" y="661" type="line"/>
      <point x="144" y="422" type="line"/>
      <point x="79" y="661" type="line"/>
      <point x="50" y="661" type="line"/>
      <point x="124" y="400" type="line"/>
      <point x="161" y="400" type="line"/>
      <point x="230" y="635" type="line"/>
      <point x="298" y="400" type="line"/>
      <point x="336" y="400" type="line"/>
    </contour>
  </outline>
</glyph>
<glyph name="circumflex" format="2">
  <advance width="325"/>
  <unicode hex="02C6"/>
  <outline>
    <contour>
      <point x="45" y="651" type="line"/>
      <point x="162" y="736" type="line"/>
      <point x="280" y="651" type="line"/>
      <point x="295" y="669" type="line"/>
      <point x="170" y="769" type="line"/>
      <point x="154" y="769" type="line"/>
      <point x="30" y="669" type="line"/>
    </contour>
  </outline>
</glyph>
<glyph name="caron" format="2">
  <advance width="325"/>
  <unicode hex="02C7"/>
  <outline>
    <contour>
      <point x="280" y="756" type="line"/>
      <point x="163" y="671" type="line"/>
      <point x="45" y="756" type="line"/>
      <point x="30" y="738" type="line"/>
      <point x="155" y="638" type="line"/>
      <point x="171" y="638" type="line"/>
      <point x="295" y="738" type="line"/>
    </contour>
  </outline>
</glyph>
<glyph name="breve" format="2">
  <advance width="286"/>
  <unicode hex="02D8"/>
  <outline>
    <contour>
      <point x="143" y="661" type="curve"/>
      <point x="203" y="661"/>
      <point x="247" y="699"/>
      <point x="256" y="753" type="curve"/>
      <point x="234" y="758" type="line"/>
      <point x="222" y="714"/>
      <point x="190" y="690"/>
      <point x="143" y="690" type="curve"/>
      <point x="96" y="690"/>
      <point x="64" y="714"/>
      <point x="52" y="758" type="curve"/>
      <point x="30" y="753" type="line"/>
      <point x="39" y="699"/>
      <point x="83" y="661"/>
    </contour>
  </outline>
</glyph>
<glyph name="lsuperior" format="2">
  <advance width="181"/>
  <unicode hex="02E1"/>
  <outline>
    <contour>
      <point x="99" y="395" type="curve" smooth="yes"/>
      <point x="111" y="395"/>
      <point x="122" y="397"/>
      <point x="131" y="401" type="curve"/>
      <point x="124" y="422" type="line"/>
      <point x="117" y="420"/>
      <point x="110" y="418"/>
      <point x="103" y="418" type="curve" smooth="yes"/>
      <point x="86" y="418"/>
      <point x="78" y="427"/>
      <point x="78" y="444" type="curve" smooth="yes"/>
      <point x="78" y="771" type="line"/>
      <point x="50" y="768" type="line"/>
      <point x="50" y="444" type="line" smooth="yes"/>
      <point x="50" y="411"/>
      <point x="70" y="395"/>
    </contour>
  </outline>
</glyph>
<glyph name="xsuperior" format="2">
  <advance width="340"/>
  <unicode hex="02E3"/>
  <outline>
    <contour>
      <point x="96" y="661" type="line"/>
      <point x="63" y="661" type="line"/>
      <point x="153" y="539" type="line"/>
      <point x="169" y="523" type="line"/>
      <point x="256" y="400" type="line"/>
      <point x="290" y="400" type="line"/>
      <point x="186" y="540" type="line"/>
      <point x="170" y="556" type="line"/>
    </contour>
    <contour>
      <point x="277" y="661" type="line"/>
      <point x="245" y="661" type="line"/>
      <point x="170" y="556" type="line"/>
      <point x="153" y="539" type="line"/>
      <point x="50" y="400" type="line"/>
      <point x="82" y="400" type="line"/>
      <point x="169" y="523" type="line"/>
      <point x="186" y="540" type="line"/>
    </contour>
  </outline>
</glyph>
<glyph name="gravecomb" format="2">
  <unicode hex="0300"/>
  <anchor x="127" y="520" name="_top"/>
  <anchor x="129" y="767" name="top"/>
  <outline>
    <contour>
      <point x="44" y="767" type="line"/>
      <point x="30" y="735" type="line"/>
      <point x="212" y="651" type="line"/>
      <point x="223" y="672" type="line"/>
    </contour>
  </outline>
</glyph>
<glyph name="acutecomb" format="2">
  <unicode hex="0301"/>
  <anchor x="137" y="520" name="_top"/>
  <anchor x="137" y="767" name="top"/>
  <outline>
    <contour>
      <point x="209" y="767" type="line"/>
      <point x="30" y="672" type="line"/>
      <point x="41" y="651" type="line"/>
      <point x="223" y="735" type="line"/>
    </contour>
  </outline>
</glyph>
<glyph name="circumflexcomb" format="2">
  <unicode hex="0302"/>
  <anchor x="163" y="520" name="_top"/>
  <anchor x="165" y="769" name="top"/>
  <outline>
    <contour>
      <point x="45" y="651" type="line"/>
      <point x="162" y="736" type="line"/>
      <point x="280" y="651" type="line"/>
      <point x="295" y="669" type="line"/>
      <point x="170" y="769" type="line"/>
      <point x="154" y="769" type="line"/>
      <point x="30" y="669" type="line"/>
    </contour>
  </outline>
</glyph>
<glyph name="tildecomb" format="2">
  <unicode hex="0303"/>
  <anchor x="167" y="520" name="_top"/>
  <anchor x="167" y="702" name="top"/>
  <outline>
    <contour>
      <point x="226" y="675" type="curve" smooth="yes"/>
      <point x="255" y="675"/>
      <point x="281" y="691"/>
      <point x="303" y="734" type="curve"/>
      <point x="284" y="745" type="line"/>
      <point x="262" y="713"/>
      <point x="247" y="702"/>
      <point x="226" y="702" type="curve" smooth="yes"/>
      <point x="186" y="702"/>
      <point x="147" y="745"/>
      <point x="108" y="745" type="curve" smooth="yes"/>
      <point x="77" y="745"/>
      <point x="51" y="726"/>
      <point x="30" y="694" type="curve"/>
      <point x="49" y="683" type="line"/>
      <point x="69" y="708"/>
      <point x="85" y="718"/>
      <point x="108" y="718" type="curve" smooth="yes"/>
      <point x="141" y="718"/>
      <point x="177" y="675"/>
    </contour>
  </outline>
</glyph>
<glyph name="macroncomb" format="2">
  <unicode hex="0304"/>
  <anchor x="137" y="520" name="_top"/>
  <anchor x="139" y="712" name="top"/>
  <outline>
    <contour>
      <point x="244" y="683" type="line"/>
      <point x="244" y="712" type="line"/>
      <point x="30" y="712" type="line"/>
      <point x="30" y="683" type="line"/>
    </contour>
  </outline>
</glyph>
<glyph name="brevecomb" format="2">
  <unicode hex="0306"/>
  <anchor x="143" y="520" name="_top"/>
  <anchor x="145" y="758" name="top"/>
  <outline>
    <contour>
      <point x="143" y="661" type="curve"/>
      <point x="203" y="661"/>
      <point x="247" y="699"/>
      <point x="256" y="753" type="curve"/>
      <point x="234" y="758" type="line"/>
      <point x="222" y="714"/>
      <point x="190" y="690"/>
      <point x="143" y="690" type="curve"/>
      <point x="96" y="690"/>
      <point x="64" y="714"/>
      <point x="52" y="758" type="curve"/>
      <point x="30" y="753" type="line"/>
      <point x="39" y="699"/>
      <point x="83" y="661"/>
    </contour>
  </outline>
</glyph>
<glyph name="dotaccentcomb" format="2">
  <unicode hex="0307"/>
  <anchor x="56" y="706" name="_center"/>
  <anchor x="56" y="520" name="_top"/>
  <anchor x="56" y="645" name="top"/>
  <outline>
    <contour>
      <point x="56" y="731" type="curve" smooth="yes"/>
      <point x="40" y="731"/>
      <point x="30" y="719"/>
      <point x="30" y="706" type="curve" smooth="yes"/>
      <point x="30" y="693"/>
      <point x="40" y="681"/>
      <point x="56" y="681" type="curve" smooth="yes"/>
      <point x="73" y="681"/>
      <point x="82" y="693"/>
      <point x="82" y="706" type="curve" smooth="yes"/>
      <point x="82" y="719"/>
      <point x="73" y="731"/>
    </contour>
  </outline>
</glyph>
<glyph name="dieresiscomb" format="2">
  <unicode hex="0308"/>
  <anchor x="142" y="520" name="_top"/>
  <anchor x="144" y="720" name="top"/>
  <outline>
    <contour>
      <point x="228" y="720" type="curve" smooth="yes"/>
      <point x="212" y="720"/>
      <point x="202" y="709"/>
      <point x="202" y="695" type="curve" smooth="yes"/>
      <point x="202" y="681"/>
      <point x="212" y="670"/>
      <point x="228" y="670" type="curve" smooth="yes"/>
      <point x="243" y="670"/>
      <point x="253" y="681"/>
      <point x="253" y="695" type="curve" smooth="yes"/>
      <point x="253" y="709"/>
      <point x="243" y="720"/>
    </contour>
    <contour>
      <point x="55" y="720" type="curve" smooth="yes"/>
      <point x="40" y="720"/>
      <point x="30" y="709"/>
      <point x="30" y="695" type="curve" smooth="yes"/>
      <point x="30" y="681"/>
      <point x="40" y="670"/>
      <point x="55" y="670" type="curve" smooth="yes"/>
      <point x="71" y="670"/>
      <point x="81" y="681"/>
      <point x="81" y="695" type="curve" smooth="yes"/>
      <point x="81" y="709"/>
      <point x="71" y="720"/>
    </contour>
  </outline>
</glyph>
<glyph name="ringcomb" format="2">
  <unicode hex="030A"/>
  <anchor x="116" y="520" name="_top"/>
  <anchor x="118" y="808" name="top"/>
  <outline>
    <contour>
      <point x="116" y="808" type="curve"/>
      <point x="65" y="808"/>
      <point x="30" y="775"/>
      <point x="30" y="724" type="curve" smooth="yes"/>
      <point x="30" y="673"/>
      <point x="65" y="640"/>
      <point x="116" y="640" type="curve"/>
      <point x="167" y="640"/>
      <point x="202" y="673"/>
      <point x="202" y="724" type="curve" smooth="yes"/>
      <point x="202" y="775"/>
      <point x="167" y="808"/>
    </contour>
    <contour>
      <point x="116" y="784" type="curve"/>
      <point x="153" y="784"/>
      <point x="173" y="762"/>
      <point x="173" y="724" type="curve" smooth="yes"/>
      <point x="173" y="686"/>
      <point x="153" y="664"/>
      <point x="116" y="664" type="curve"/>
      <point x="79" y="664"/>
      <point x="59" y="686"/>
      <point x="59" y="724" type="curve" smooth="yes"/>
      <point x="59" y="762"/>
      <point x="79" y="784"/>
    </contour>
  </outline>
</glyph>
<glyph name="hungarumlautcomb" format="2">
  <unicode hex="030B"/>
  <anchor x="99" y="520" name="_top"/>
  <outline>
    <contour>
      <point x="207" y="794" type="line"/>
      <point x="134" y="660" type="line"/>
      <point x="156" y="649" type="line"/>
      <point x="238" y="778" type="line"/>
    </contour>
    <contour>
      <point x="96" y="793" type="line"/>
      <point x="30" y="664" type="line"/>
      <point x="52" y="653" type="line"/>
      <point x="127" y="777" type="line"/>
    </contour>
  </outline>
</glyph>
<glyph name="caroncomb" format="2">
  <unicode hex="030C"/>
  <anchor x="163" y="520" name="_top"/>
  <anchor x="165" y="756" name="top"/>
  <outline>
    <contour>
      <point x="280" y="756" type="line"/>
      <point x="163" y="671" type="line"/>
      <point x="45" y="756" type="line"/>
      <point x="30" y="738" type="line"/>
      <point x="155" y="638" type="line"/>
      <point x="171" y="638" type="line"/>
      <point x="295" y="738" type="line"/>
    </contour>
  </outline>
</glyph>
<glyph name="verticallineabovecomb" format="2">
  <unicode hex="030D"/>
  <anchor x="46" y="520" name="_top"/>
  <anchor x="48" y="842" name="top"/>
  <outline>
    <contour>
      <point x="30" y="639" type="line"/>
      <point x="62" y="639" type="line"/>
      <point x="62" y="842" type="line"/>
      <point x="30" y="842" type="line"/>
    </contour>
  </outline>
</glyph>
<glyph name="leftangleabovecomb" format="2">
  <unicode hex="031A"/>
  <anchor x="106" y="520" name="_top"/>
  <anchor x="108" y="750" name="top"/>
  <outline>
    <contour>
      <point x="30" y="750" type="line"/>
      <point x="30" y="722" type="line"/>
      <point x="152" y="722" type="line"/>
      <point x="152" y="591" type="line"/>
      <point x="182" y="591" type="line"/>
      <point x="182" y="750" type="line"/>
    </contour>
  </outline>
</glyph>
<glyph name="commaaccentcomb" format="2">
  <unicode hex="0326"/>
  <anchor x="70" y="0" name="_bottom"/>
  <outline>
    <contour>
      <point x="69" y="-91" type="curve" smooth="yes"/>
      <point x="50" y="-91"/>
      <point x="37" y="-105"/>
      <point x="37" y="-122" type="curve" smooth="yes"/>
      <point x="37" y="-138"/>
      <point x="44" y="-147"/>
      <point x="57" y="-152" type="curve"/>
      <point x="23" y="-265" type="line"/>
      <point x="44" y="-265" type="line"/>
      <point x="83" y="-179" type="line" smooth="yes"/>
      <point x="97" y="-148"/>
      <point x="102" y="-138"/>
      <point x="102" y="-122" type="curve" smooth="yes"/>
      <point x="102" y="-105"/>
      <point x="91" y="-91"/>
    </contour>
  </outline>
</glyph>
<glyph name="cedillacomb" format="2">
  <unicode hex="0327"/>
  <anchor x="92" y="0" name="_bottom"/>
  <anchor x="113" y="-216" name="bottom"/>
  <outline>
    <contour>
      <point x="100" y="16" type="line"/>
      <point x="78" y="16" type="line"/>
      <point x="71" y="-93" type="line"/>
      <point x="133" y="-94"/>
      <point x="160" y="-108"/>
      <point x="160" y="-140" type="curve" smooth="yes"/>
      <point x="160" y="-173"/>
      <point x="133" y="-189"/>
      <point x="101" y="-189" type="curve" smooth="yes"/>
      <point x="75" y="-189"/>
      <point x="56" y="-182"/>
      <point x="43" y="-174" type="curve"/>
      <point x="30" y="-197" type="line"/>
      <point x="47" y="-207"/>
      <point x="69" y="-216"/>
      <point x="101" y="-216" type="curve" smooth="yes"/>
      <point x="149" y="-216"/>
      <point x="191" y="-188"/>
      <point x="191" y="-140" type="curve" smooth="yes"/>
      <point x="191" y="-99"/>
      <point x="162" y="-75"/>
      <point x="100" y="-71" type="curve"/>
    </contour>
  </outline>
</glyph>
<glyph name="bridgebelowcomb" format="2">
  <unicode hex="032A"/>
  <anchor x="156" y="0" name="_bottom"/>
  <anchor x="158" y="-220" name="bottom"/>
  <outline>
    <contour>
      <point x="30" y="-220" type="line"/>
      <point x="60" y="-220" type="line"/>
      <point x="60" y="-130" type="line"/>
      <point x="252" y="-130" type="line"/>
      <point x="252" y="-220" type="line"/>
      <point x="282" y="-220" type="line"/>
      <point x="282" y="-102" type="line"/>
      <point x="30" y="-102" type="line"/>
    </contour>
  </outline>
</glyph>
<glyph name="ypogegrammenicomb" format="2">
  <unicode hex="0345"/>
  <anchor x="45" y="0" name="_bottom"/>
  <anchor x="100" y="-159" name="bottom"/>
  <outline>
    <contour>
      <point x="100" y="-159" type="curve" smooth="yes"/>
      <point x="128" y="-159"/>
      <point x="148" y="-150"/>
      <point x="169" y="-134" type="curve"/>
      <point x="153" y="-115" type="line"/>
      <point x="136" y="-126"/>
      <point x="124" y="-132"/>
      <point x="101" y="-132" type="curve" smooth="yes"/>
      <point x="74" y="-132"/>
      <point x="60" y="-117"/>
      <point x="60" y="-86" type="curve" smooth="yes"/>
      <point x="60" y="-49" type="line"/>
      <point x="30" y="-49" type="line"/>
      <point x="30" y="-87" type="line" smooth="yes"/>
      <point x="30" y="-127"/>
      <point x="54" y="-159"/>
    </contour>
  </outline>
</glyph>
<glyph name="Archaicsampi" format="2">
  <advance width="497"/>
  <unicode hex="0372"/>
  <anchor x="248.5" y="0" name="bottom"/>
  <anchor x="248.5" y="682" name="top"/>
  <outline>
    <contour>
      <point x="233" y="0" type="line"/>
      <point x="264" y="0" type="line"/>
      <point x="264" y="652" type="line"/>
      <point x="482" y="652" type="line"/>
      <point x="482" y="682" type="line"/>
      <point x="15" y="682" type="line"/>
      <point x="15" y="652" type="line"/>
      <point x="233" y="652" type="line"/>
    </contour>
    <contour>
      <point x="15" y="457" type="line"/>
      <point x="45" y="457" type="line"/>
      <point x="45" y="665" type="line"/>
      <point x="15" y="665" type="line"/>
    </contour>
    <contour>
      <point x="452" y="457" type="line"/>
      <point x="482" y="457" type="line"/>
      <point x="482" y="665" type="line"/>
      <point x="452" y="665" type="line"/>
    </contour>
  </outline>
</glyph>
<glyph name="tonos" format="2">
  <advance width="127"/>
  <unicode hex="0384"/>
  <anchor x="40" y="520" name="_top"/>
  <outline>
    <contour>
      <point x="62" y="743" type="line"/>
      <point x="30" y="608" type="line"/>
      <point x="51" y="604" type="line"/>
      <point x="97" y="735" type="line"/>
    </contour>
  </outline>
</glyph>
<glyph name="dieresistonos" format="2">
  <advance width="283"/>
  <unicode hex="0385"/>
  <anchor x="142" y="520" name="_top"/>
  <outline>
    <contour>
      <point x="158" y="831" type="line"/>
      <point x="129" y="710" type="line"/>
      <point x="150" y="706" type="line"/>
      <point x="191" y="823" type="line"/>
    </contour>
    <contour>
      <point x="55" y="690" type="curve" smooth="yes"/>
      <point x="40" y="690"/>
      <point x="30" y="679"/>
      <point x="30" y="665" type="curve" smooth="yes"/>
      <point x="30" y="651"/>
      <point x="40" y="640"/>
      <point x="55" y="640" type="curve" smooth="yes"/>
      <point x="71" y="640"/>
      <point x="81" y="651"/>
      <point x="81" y="665" type="curve" smooth="yes"/>
      <point x="81" y="679"/>
      <point x="71" y="690"/>
    </contour>
    <contour>
      <point x="228" y="690" type="curve" smooth="yes"/>
      <point x="212" y="690"/>
      <point x="202" y="679"/>
      <point x="202" y="665" type="curve" smooth="yes"/>
      <point x="202" y="651"/>
      <point x="212" y="640"/>
      <point x="228" y="640" type="curve" smooth="yes"/>
      <point x="243" y="640"/>
      <point x="253" y="651"/>
      <point x="253" y="665" type="curve" smooth="yes"/>
      <point x="253" y="679"/>
      <point x="243" y="690"/>
    </contour>
  </outline>
</glyph>
<glyph name="Delta" format="2">
  <advance width="568"/>
  <unicode hex="0394"/>
  <anchor x="284" y="0" name="bottom"/>
  <anchor x="284" y="682" name="top"/>
  <outline>
    <contour>
      <point x="285" y="657" type="line"/>
      <point x="501" y="28" type="line"/>
      <point x="66" y="28" type="line"/>
    </contour>
    <contour>
      <point x="304" y="682" type="line"/>
      <point x="265" y="682" type="line"/>
      <point x="25" y="0" type="line"/>
      <point x="543" y="0" type="line"/>
    </contour>
  </outline>
</glyph>
<glyph name="Lambda" format="2">
  <advance width="558"/>
  <unicode hex="039B"/>
  <anchor x="287" y="0" name="bottom"/>
  <anchor x="279" y="682" name="top"/>
  <outline>
    <contour>
      <point x="298" y="682" type="line"/>
      <point x="260" y="682" type="line"/>
      <point x="25" y="0" type="line"/>
      <point x="56" y="0" type="line"/>
      <point x="279" y="657" type="line"/>
      <point x="500" y="0" type="line"/>
      <point x="533" y="0" type="line"/>
    </contour>
  </outline>
</glyph>
<glyph name="Xi" format="2">
  <advance width="486"/>
  <unicode hex="039E"/>
  <anchor x="243" y="0" name="bottom"/>
  <anchor x="243" y="682" name="top"/>
  <outline>
    <contour>
      <point x="431" y="31" type="line"/>
      <point x="55" y="31" type="line"/>
      <point x="55" y="0" type="line"/>
      <point x="431" y="0" type="line"/>
    </contour>
    <contour>
      <point x="375" y="374" type="line"/>
      <point x="112" y="374" type="line"/>
      <point x="112" y="344" type="line"/>
      <point x="375" y="344" type="line"/>
    </contour>
    <contour>
      <point x="420" y="682" type="line"/>
      <point x="55" y="682" type="line"/>
      <point x="55" y="653" type="line"/>
      <point x="417" y="653" type="line"/>
    </contour>
  </outline>
</glyph>
<glyph name="Phi" format="2">
  <advance width="775"/>
  <unicode hex="03A6"/>
  <anchor x="387.5" y="0" name="bottom"/>
  <anchor x="387.5" y="682" name="top"/>
  <outline>
    <contour>
      <point x="395" y="611" type="curve"/>
      <point x="393" y="583" type="line"/>
      <point x="595" y="581"/>
      <point x="698" y="494"/>
      <point x="698" y="342" type="curve" smooth="yes"/>
      <point x="698" y="177"/>
      <point x="596" y="109"/>
      <point x="393" y="100" type="curve"/>
      <point x="395" y="72" type="line"/>
      <point x="621" y="80"/>
      <point x="730" y="169"/>
      <point x="730" y="342" type="curve" smooth="yes"/>
      <point x="730" y="505"/>
      <point x="620" y="608"/>
    </contour>
    <contour>
      <point x="380" y="611" type="line"/>
      <point x="154" y="603"/>
      <point x="45" y="514"/>
      <point x="45" y="341" type="curve" smooth="yes"/>
      <point x="45" y="178"/>
      <point x="155" y="75"/>
      <point x="380" y="72" type="curve"/>
      <point x="382" y="100" type="line"/>
      <point x="180" y="102"/>
      <point x="77" y="189"/>
      <point x="77" y="341" type="curve" smooth="yes"/>
      <point x="77" y="506"/>
      <point x="179" y="574"/>
      <point x="382" y="583" type="curve"/>
    </contour>
    <contour>
      <point x="403" y="682" type="line"/>
      <point x="372" y="682" type="line"/>
      <point x="372" y="604" type="line"/>
      <point x="373" y="590" type="line"/>
      <point x="373" y="93" type="line"/>
      <point x="372" y="79" type="line"/>
      <point x="372" y="0" type="line"/>
      <point x="403" y="0" type="line"/>
      <point x="403" y="79" type="line"/>
      <point x="402" y="93" type="line"/>
      <point x="402" y="590" type="line"/>
      <point x="403" y="604" type="line"/>
    </contour>
  </outline>
</glyph>
<glyph name="Psi" format="2">
  <advance width="651"/>
  <unicode hex="03A8"/>
  <anchor x="325.5" y="0" name="bottom"/>
  <anchor x="325.5" y="682" name="top"/>
  <outline>
    <contour>
      <point x="319" y="207" type="curve"/>
      <point x="319" y="236" type="line"/>
      <point x="160" y="238"/>
      <point x="76" y="304"/>
      <point x="76" y="429" type="curve" smooth="yes"/>
      <point x="76" y="682" type="line"/>
      <point x="45" y="682" type="line"/>
      <point x="45" y="426" type="line" smooth="yes"/>
      <point x="45" y="285"/>
      <point x="142" y="209"/>
    </contour>
    <contour>
      <point x="332" y="236" type="curve"/>
      <point x="332" y="207" type="line"/>
      <point x="511" y="209"/>
      <point x="606" y="285"/>
      <point x="606" y="426" type="curve" smooth="yes"/>
      <point x="606" y="682" type="line"/>
      <point x="575" y="682" type="line"/>
      <point x="575" y="429" type="line" smooth="yes"/>
      <point x="575" y="304"/>
      <point x="493" y="238"/>
    </contour>
    <contour>
      <point x="341" y="214" type="line"/>
      <point x="341" y="229" type="line"/>
      <point x="341" y="682" type="line"/>
      <point x="310" y="682" type="line"/>
      <point x="310" y="229" type="line"/>
      <point x="310" y="214" type="line"/>
      <point x="310" y="0" type="line"/>
      <point x="341" y="0" type="line"/>
    </contour>
  </outline>
</glyph>
<glyph name="gamma" format="2">
  <advance width="445"/>
  <unicode hex="03B3"/>
  <anchor x="222.5" y="-193" name="bottom"/>
  <anchor x="222.5" y="520" name="top"/>
  <outline>
    <contour>
      <point x="44" y="525" type="curve"/>
      <point x="15" y="516" type="line"/>
      <point x="74.95" y="436.067"/>
      <point x="132.903" y="298.23"/>
      <point x="207" y="11" type="curve"/>
      <point x="179" y="-71"/>
      <point x="179" y="-125"/>
      <point x="204" y="-198" type="curve"/>
      <point x="229" y="-195" type="line"/>
      <point x="208" y="-116"/>
      <point x="212" y="-61"/>
      <point x="241" y="17" type="curve" smooth="yes"/>
      <point x="425" y="518" type="line"/>
      <point x="393" y="526" type="line"/>
      <point x="224" y="47" type="line"/>
      <point x="157" y="330"/>
      <point x="97" y="456"/>
    </contour>
  </outline>
</glyph>
<glyph name="iota" format="2">
  <advance width="258"/>
  <unicode hex="03B9"/>
  <anchor x="129" y="0" name="bottom"/>
  <anchor x="125" y="520" name="top"/>
  <outline>
    <contour>
      <point x="140" y="520" type="line"/>
      <point x="110" y="520" type="line"/>
      <point x="110" y="110" type="line" smooth="yes"/>
      <point x="110" y="43"/>
      <point x="128" y="13"/>
      <point x="179" y="-5" type="curve"/>
      <point x="188" y="21" type="line"/>
      <point x="154" y="34"/>
      <point x="140" y="54"/>
      <point x="140" y="110" type="curve" smooth="yes"/>
    </contour>
  </outline>
</glyph>
<glyph name="chi" format="2">
  <advance width="424"/>
  <unicode hex="03C7"/>
  <anchor x="212" y="-193" name="bottom"/>
  <anchor x="212" y="520" name="top"/>
  <outline>
    <contour>
      <point x="39" y="527" type="curve"/>
      <point x="10" y="516" type="line"/>
      <point x="69" y="448"/>
      <point x="113" y="376"/>
      <point x="197" y="183" type="curve"/>
      <point x="212" y="156" type="line"/>
      <point x="381" y="-197" type="line"/>
      <point x="409" y="-188" type="line"/>
      <point x="227" y="182" type="line"/>
      <point x="212" y="208" type="line"/>
      <point x="137" y="393"/>
      <point x="95" y="461"/>
    </contour>
    <contour>
      <point x="355" y="523" type="line"/>
      <point x="212" y="208" type="line"/>
      <point x="197" y="183" type="line"/>
      <point x="12" y="-192" type="line"/>
      <point x="43" y="-196" type="line"/>
      <point x="212" y="156" type="line"/>
      <point x="227" y="182" type="line"/>
      <point x="387" y="520" type="line"/>
    </contour>
  </outline>
</glyph>
<glyph name="KaiSymbol" format="2">
  <advance width="547"/>
  <unicode hex="03CF"/>
  <anchor x="273.5" y="-193" name="bottom"/>
  <anchor x="290" y="682" name="top"/>
  <outline>
    <contour>
      <point x="484" y="29" type="line"/>
      <point x="484" y="0" type="line"/>
      <point x="537" y="0" type="line"/>
      <point x="537" y="29" type="line"/>
    </contour>
    <component base="Kappa"/>
    <component base="hookHELPER.case" xOffset="303"/>
  </outline>
</glyph>
<glyph name="Digamma" format="2">
  <advance width="528"/>
  <unicode hex="03DC"/>
  <anchor x="329" y="682" name="top"/>
  <anchor x="161" y="0" name="bottomright"/>
  <anchor x="136" y="0" name="bottom"/>
  <outline>
    <contour>
      <point x="425" y="323" type="curve"/>
      <point x="436" y="348" type="line"/>
      <point x="412" y="360"/>
      <point x="389" y="367"/>
      <point x="357" y="367" type="curve" smooth="yes"/>
      <point x="138" y="367" type="line"/>
      <point x="138" y="338" type="line"/>
      <point x="355" y="338" type="line" smooth="yes"/>
      <point x="383" y="338"/>
      <point x="403" y="332"/>
    </contour>
    <component base="Gamma"/>
  </outline>
</glyph>
<glyph name="rhoStrokeSymbol" format="2">
  <advance width="560"/>
  <unicode hex="03FC"/>
  <anchor x="295" y="520" name="top"/>
  <anchor x="280" y="-193" name="bottom"/>
  <outline>
    <contour>
      <point x="30" y="-81" type="line"/>
      <point x="30" y="-108" type="line"/>
      <point x="105" y="-108" type="line"/>
      <point x="305" y="-108" type="line"/>
      <point x="305" y="-81" type="line"/>
    </contour>
    <component base="rho"/>
  </outline>
</glyph>
<glyph name="Tshe-cy" format="2">
  <advance width="687"/>
  <unicode hex="040B"/>
  <anchor x="395" y="682" name="top"/>
  <anchor x="642" y="0" name="bottomright"/>
  <anchor x="395" y="0" name="bottom"/>
  <outline>
    <contour>
      <point x="467" y="682" type="line"/>
      <point x="15" y="682" type="line"/>
      <point x="15" y="652" type="line"/>
      <point x="462" y="652" type="line"/>
    </contour>
    <component base="Shha-cy" xOffset="103"/>
  </outline>
</glyph>
<glyph name="Zhe-cy" format="2">
  <advance width="734"/>
  <unicode hex="0416"/>
  <anchor x="367" y="0" name="bottom"/>
  <anchor x="694" y="0" name="bottomright"/>
  <anchor x="367" y="682" name="top"/>
  <outline>
    <contour>
      <point x="704" y="682" type="line"/>
      <point x="671" y="682" type="line"/>
      <point x="485" y="374" type="line"/>
      <point x="382" y="374" type="line"/>
      <point x="382" y="682" type="line"/>
      <point x="352" y="682" type="line"/>
      <point x="352" y="374" type="line"/>
      <point x="249" y="374" type="line"/>
      <point x="65" y="682" type="line"/>
      <point x="30" y="682" type="line"/>
      <point x="222" y="361" type="line"/>
      <point x="15" y="0" type="line"/>
      <point x="49" y="0" type="line"/>
      <point x="248" y="346" type="line"/>
      <point x="352" y="346" type="line"/>
      <point x="352" y="0" type="line"/>
      <point x="382" y="0" type="line"/>
      <point x="382" y="346" type="line"/>
      <point x="485" y="346" type="line"/>
      <point x="684" y="0" type="line"/>
      <point x="719" y="0" type="line"/>
      <point x="511" y="361" type="line"/>
    </contour>
  </outline>
</glyph>
<glyph name="Ii-cy" format="2">
  <advance width="664"/>
  <unicode hex="0418"/>
  <anchor x="332" y="0" name="bottom"/>
  <anchor x="554" y="0" name="bottomright"/>
  <anchor x="333" y="682" name="top"/>
  <outline>
    <contour>
      <point x="544" y="682" type="line"/>
      <point x="507" y="682" type="line"/>
      <point x="147" y="35" type="line"/>
      <point x="149" y="95"/>
      <point x="151" y="205"/>
      <point x="151" y="292" type="curve" smooth="yes"/>
      <point x="151" y="682" type="line"/>
      <point x="120" y="682" type="line"/>
      <point x="120" y="0" type="line"/>
      <point x="157" y="0" type="line"/>
      <point x="517" y="647" type="line"/>
      <point x="513" y="577"/>
      <point x="513" y="487"/>
      <point x="513" y="388" type="curve" smooth="yes"/>
      <point x="513" y="0" type="line"/>
      <point x="544" y="0" type="line"/>
    </contour>
  </outline>
</glyph>
<glyph name="Ka-cy" format="2">
  <advance width="538"/>
  <unicode hex="041A"/>
  <anchor x="269" y="0" name="bottom"/>
  <anchor x="497" y="0" name="bottomright"/>
  <anchor x="309" y="682" name="top"/>
  <outline>
    <contour>
      <point x="508" y="682" type="line"/>
      <point x="474" y="682" type="line"/>
      <point x="272" y="374" type="line"/>
      <point x="151" y="374" type="line"/>
      <point x="151" y="682" type="line"/>
      <point x="120" y="682" type="line"/>
      <point x="120" y="0" type="line"/>
      <point x="151" y="0" type="line"/>
      <point x="151" y="346" type="line"/>
      <point x="271" y="346" type="line"/>
      <point x="487" y="0" type="line"/>
      <point x="523" y="0" type="line"/>
      <point x="298" y="361" type="line"/>
    </contour>
  </outline>
</glyph>
<glyph name="U-cy" format="2">
  <advance width="501"/>
  <unicode hex="0423"/>
  <anchor x="250.5" y="0" name="bottom"/>
  <anchor x="261" y="682" name="top"/>
  <outline>
    <contour>
      <point x="491" y="682" type="line"/>
      <point x="458" y="682" type="line"/>
      <point x="269" y="218" type="line"/>
      <point x="49" y="682" type="line"/>
      <point x="15" y="682" type="line"/>
      <point x="249" y="194" type="line"/>
      <point x="257" y="194" type="line"/>
      <point x="202" y="59"/>
      <point x="181" y="40"/>
      <point x="98" y="15" type="curve"/>
      <point x="106" y="-10" type="line"/>
      <point x="209" y="20"/>
      <point x="227" y="49"/>
      <point x="287" y="193" type="curve" smooth="yes"/>
    </contour>
  </outline>
</glyph>
<glyph name="Sha-cy" format="2">
  <advance width="900"/>
  <unicode hex="0428"/>
  <anchor x="450" y="0" name="bottom"/>
  <anchor x="790" y="0" name="bottomright"/>
  <anchor x="450" y="682" name="top"/>
  <outline>
    <contour>
      <point x="780" y="682" type="line"/>
      <point x="749" y="682" type="line"/>
      <point x="749" y="29" type="line"/>
      <point x="465" y="29" type="line"/>
      <point x="465" y="682" type="line"/>
      <point x="435" y="682" type="line"/>
      <point x="435" y="29" type="line"/>
      <point x="151" y="29" type="line"/>
      <point x="151" y="682" type="line"/>
      <point x="120" y="682" type="line"/>
      <point x="120" y="0" type="line"/>
      <point x="780" y="0" type="line"/>
    </contour>
  </outline>
</glyph>
<glyph name="Hardsign-cy" format="2">
  <advance width="592"/>
  <unicode hex="042A"/>
  <anchor x="316.5" y="682.0" name="top"/>
  <anchor x="316.5" y="0.0" name="bottom"/>
  <outline>
    <contour>
      <point x="161" y="653" type="line"/>
      <point x="192" y="682" type="line"/>
      <point x="0" y="682" type="line"/>
      <point x="0" y="653" type="line"/>
    </contour>
    <component base="Softsign-cy" xOffset="41"/>
  </outline>
</glyph>
<glyph name="Yeru-cy" format="2">
  <advance width="779"/>
  <unicode hex="042B"/>
  <anchor x="389.5" y="0" name="bottom"/>
  <anchor x="395" y="682" name="top"/>
  <outline>
    <contour>
      <point x="659" y="682" type="line"/>
      <point x="628" y="682" type="line"/>
      <point x="628" y="0" type="line"/>
      <point x="659" y="0" type="line"/>
    </contour>
    <contour>
      <point x="120" y="682" type="line"/>
      <point x="120" y="0" type="line"/>
      <point x="266" y="0" type="line" smooth="yes"/>
      <point x="401" y="0"/>
      <point x="496" y="64"/>
      <point x="496" y="213" type="curve" smooth="yes"/>
      <point x="496" y="348"/>
      <point x="410" y="412"/>
      <point x="266" y="412" type="curve" smooth="yes"/>
      <point x="144" y="412" type="line"/>
      <point x="144" y="383" type="line"/>
      <point x="269" y="383" type="line" smooth="yes"/>
      <point x="391" y="383"/>
      <point x="464" y="331"/>
      <point x="464" y="214" type="curve" smooth="yes"/>
      <point x="464" y="83"/>
      <point x="389" y="29"/>
      <point x="274" y="29" type="curve" smooth="yes"/>
      <point x="151" y="29" type="line"/>
      <point x="151" y="682" type="line"/>
    </contour>
  </outline>
</glyph>
<glyph name="Ia-cy" format="2">
  <advance width="585"/>
  <unicode hex="042F"/>
  <anchor x="292.5" y="0" name="bottom"/>
  <anchor x="292.5" y="682" name="top"/>
  <outline>
    <contour>
      <point x="244" y="303" type="line"/>
      <point x="211" y="308" type="line"/>
      <point x="50" y="0" type="line"/>
      <point x="87" y="0" type="line"/>
    </contour>
    <contour>
      <point x="213" y="299" type="curve"/>
      <point x="229" y="296" type="line"/>
      <point x="441" y="296" type="line"/>
      <point x="441" y="325" type="line"/>
      <point x="268" y="325" type="line" smooth="yes"/>
      <point x="161" y="325"/>
      <point x="94" y="380"/>
      <point x="94" y="484" type="curve" smooth="yes"/>
      <point x="94" y="597"/>
      <point x="162" y="653"/>
      <point x="314" y="653" type="curve" smooth="yes"/>
      <point x="434" y="653" type="line"/>
      <point x="434" y="0" type="line"/>
      <point x="465" y="0" type="line"/>
      <point x="465" y="682" type="line"/>
      <point x="314" y="682" type="line" smooth="yes"/>
      <point x="138" y="682"/>
      <point x="61" y="609"/>
      <point x="61" y="484" type="curve" smooth="yes"/>
      <point x="61" y="371"/>
      <point x="124" y="322"/>
    </contour>
  </outline>
</glyph>
<glyph name="ge-cy" format="2">
  <advance width="418"/>
  <unicode hex="0433"/>
  <anchor x="130" y="0" name="bottom"/>
  <anchor x="155" y="0" name="bottomright"/>
  <anchor x="262" y="520" name="top"/>
  <outline>
    <contour>
      <point x="145" y="0" type="line"/>
      <point x="145" y="492" type="line"/>
      <point x="404" y="492" type="line"/>
      <point x="408" y="520" type="line"/>
      <point x="115" y="520" type="line"/>
      <point x="115" y="0" type="line"/>
    </contour>
  </outline>
</glyph>
<glyph name="ii-cy" format="2">
  <advance width="586"/>
  <unicode hex="0438"/>
  <anchor x="293" y="0" name="bottom"/>
  <anchor x="481" y="0" name="bottomright"/>
  <anchor x="293" y="520" name="top"/>
  <outline>
    <contour>
      <point x="471" y="520" type="line"/>
      <point x="437" y="520" type="line"/>
      <point x="143" y="37" type="line"/>
      <point x="145" y="86"/>
      <point x="145" y="119"/>
      <point x="145" y="156" type="curve" smooth="yes"/>
      <point x="145" y="520" type="line"/>
      <point x="115" y="520" type="line"/>
      <point x="115" y="0" type="line"/>
      <point x="150" y="0" type="line"/>
      <point x="444" y="483" type="line"/>
      <point x="442" y="452"/>
      <point x="441" y="428"/>
      <point x="441" y="394" type="curve" smooth="yes"/>
      <point x="441" y="0" type="line"/>
      <point x="471" y="0" type="line"/>
    </contour>
  </outline>
</glyph>
<glyph name="ka-cy" format="2">
  <advance width="482"/>
  <unicode hex="043A"/>
  <anchor x="241" y="0" name="bottom"/>
  <anchor x="445" y="0" name="bottomright"/>
  <anchor x="277" y="520" name="top"/>
  <outline>
    <contour>
      <point x="427" y="520" type="line"/>
      <point x="393" y="520" type="line"/>
      <point x="233" y="290" type="line"/>
      <point x="145" y="290" type="line"/>
      <point x="145" y="520" type="line"/>
      <point x="115" y="520" type="line"/>
      <point x="115" y="0" type="line"/>
      <point x="145" y="0" type="line"/>
      <point x="145" y="264" type="line"/>
      <point x="233" y="264" type="line"/>
      <point x="422" y="0" type="line"/>
      <point x="457" y="0" type="line"/>
      <point x="258" y="279" type="line"/>
    </contour>
  </outline>
</glyph>
<glyph name="en-cy" format="2">
  <advance width="584"/>
  <unicode hex="043D"/>
  <anchor x="292" y="0" name="bottom"/>
  <anchor x="479" y="0" name="bottomright"/>
  <anchor x="292" y="520" name="top"/>
  <outline>
    <contour>
      <point x="439" y="0" type="line"/>
      <point x="469" y="0" type="line"/>
      <point x="469" y="520" type="line"/>
      <point x="439" y="520" type="line"/>
      <point x="439" y="286" type="line"/>
      <point x="145" y="286" type="line"/>
      <point x="145" y="520" type="line"/>
      <point x="115" y="520" type="line"/>
      <point x="115" y="0" type="line"/>
      <point x="145" y="0" type="line"/>
      <point x="145" y="258" type="line"/>
      <point x="439" y="258" type="line"/>
    </contour>
  </outline>
</glyph>
<glyph name="pe-cy" format="2">
  <advance width="581"/>
  <unicode hex="043F"/>
  <anchor x="290.5" y="0" name="bottom"/>
  <anchor x="476" y="0" name="bottomright"/>
  <anchor x="290.5" y="520" name="top"/>
  <outline>
    <contour>
      <point x="436" y="0" type="line"/>
      <point x="466" y="0" type="line"/>
      <point x="466" y="520" type="line"/>
      <point x="115" y="520" type="line"/>
      <point x="115" y="0" type="line"/>
      <point x="145" y="0" type="line"/>
      <point x="145" y="492" type="line"/>
      <point x="436" y="492" type="line"/>
    </contour>
  </outline>
</glyph>
<glyph name="te-cy" format="2">
  <advance width="418"/>
  <unicode hex="0442"/>
  <anchor x="209" y="0" name="bottom"/>
  <anchor x="235" y="0" name="bottomright"/>
  <anchor x="209" y="520" name="top"/>
  <outline>
    <contour>
      <point x="408" y="520" type="line"/>
      <point x="10" y="520" type="line"/>
      <point x="10" y="491" type="line"/>
      <point x="195" y="491" type="line"/>
      <point x="195" y="0" type="line"/>
      <point x="225" y="0" type="line"/>
      <point x="225" y="491" type="line"/>
      <point x="404" y="491" type="line"/>
    </contour>
  </outline>
</glyph>
<glyph name="che-cy" format="2">
  <advance width="531"/>
  <unicode hex="0447"/>
  <anchor x="265.5" y="0" name="bottom"/>
  <anchor x="366" y="0" name="bottomleft"/>
  <anchor x="426" y="0" name="bottomright"/>
  <anchor x="241" y="520" name="top"/>
  <outline>
    <contour>
      <point x="392" y="266" type="curve"/>
      <point x="391" y="302" type="line"/>
      <point x="357" y="252"/>
      <point x="296" y="211"/>
      <point x="220" y="211" type="curve" smooth="yes"/>
      <point x="140" y="211"/>
      <point x="95" y="248"/>
      <point x="95" y="324" type="curve" smooth="yes"/>
      <point x="95" y="520" type="line"/>
      <point x="65" y="520" type="line"/>
      <point x="65" y="320" type="line" smooth="yes"/>
      <point x="65" y="226"/>
      <point x="134" y="183"/>
      <point x="215" y="183" type="curve" smooth="yes"/>
      <point x="296" y="183"/>
      <point x="355" y="222"/>
    </contour>
    <contour>
      <point x="386" y="520" type="line"/>
      <point x="386" y="0" type="line"/>
      <point x="416" y="0" type="line"/>
      <point x="416" y="520" type="line"/>
    </contour>
  </outline>
</glyph>
<glyph name="sha-cy" format="2">
  <advance width="796"/>
  <unicode hex="0448"/>
  <anchor x="398" y="0" name="bottom"/>
  <anchor x="691" y="0" name="bottomright"/>
  <anchor x="398" y="520" name="top"/>
  <outline>
    <contour>
      <point x="681" y="520" type="line"/>
      <point x="651" y="520" type="line"/>
      <point x="651" y="28" type="line"/>
      <point x="412" y="28" type="line"/>
      <point x="412" y="520" type="line"/>
      <point x="383" y="520" type="line"/>
      <point x="383" y="28" type="line"/>
      <point x="145" y="28" type="line"/>
      <point x="145" y="520" type="line"/>
      <point x="115" y="520" type="line"/>
      <point x="115" y="0" type="line"/>
      <point x="681" y="0" type="line"/>
    </contour>
  </outline>
</glyph>
<glyph name="hardsign-cy" format="2">
  <advance width="533"/>
  <unicode hex="044A"/>
  <anchor x="287.5" y="520.0" name="top"/>
  <anchor x="287.5" y="0.0" name="bottom"/>
  <outline>
    <contour>
      <point x="157" y="492" type="line"/>
      <point x="177" y="520" type="line"/>
      <point x="4" y="520" type="line"/>
      <point x="4" y="492" type="line"/>
    </contour>
    <component base="softsign-cy" xOffset="42"/>
  </outline>
</glyph>
<glyph name="dje-cy" format="2">
  <advance width="587"/>
  <unicode hex="0452"/>
  <anchor x="293.5" y="-193" name="bottom"/>
  <anchor x="293.5" y="734" name="top"/>
  <outline>
    <contour>
      <point x="477" y="216" type="line"/>
      <point x="447" y="216" type="line"/>
      <point x="447" y="9" type="line" smooth="yes"/>
      <point x="447" y="-108"/>
      <point x="419" y="-138"/>
      <point x="350" y="-174" type="curve"/>
      <point x="359" y="-196" type="line"/>
      <point x="439" y="-156"/>
      <point x="477" y="-124"/>
      <point x="477" y="8" type="curve" smooth="yes"/>
    </contour>
    <contour>
      <point x="330" y="652" type="line"/>
      <point x="45" y="652" type="line"/>
      <point x="45" y="625" type="line"/>
      <point x="120" y="625" type="line"/>
      <point x="330" y="625" type="line"/>
    </contour>
    <contour>
      <point x="150" y="739" type="line"/>
      <point x="120" y="734" type="line"/>
      <point x="120" y="0" type="line"/>
      <point x="150" y="0" type="line"/>
    </contour>
    <contour>
      <point x="337" y="530" type="curve" smooth="yes"/>
      <point x="251" y="530"/>
      <point x="189" y="480"/>
      <point x="141" y="408" type="curve"/>
      <point x="150" y="383" type="line"/>
      <point x="199" y="453"/>
      <point x="254" y="503"/>
      <point x="336" y="503" type="curve" smooth="yes"/>
      <point x="410" y="503"/>
      <point x="447" y="457"/>
      <point x="447" y="366" type="curve" smooth="yes"/>
      <point x="447" y="200" type="line"/>
      <point x="477" y="200" type="line"/>
      <point x="477" y="370" type="line" smooth="yes"/>
      <point x="477" y="470"/>
      <point x="430" y="530"/>
    </contour>
  </outline>
</glyph>
<glyph name="Yuslittle-cy" format="2">
  <advance width="566"/>
  <unicode hex="0466"/>
  <anchor x="283" y="0" name="bottom"/>
  <anchor x="283" y="682" name="top"/>
  <outline>
    <contour>
      <point x="302" y="682" type="line"/>
      <point x="264" y="682" type="line"/>
      <point x="25" y="0" type="line"/>
      <point x="56" y="0" type="line"/>
      <point x="283" y="657" type="line"/>
      <point x="508" y="0" type="line"/>
      <point x="541" y="0" type="line"/>
    </contour>
    <contour>
      <point x="398" y="362" type="line"/>
      <point x="167" y="362" type="line"/>
      <point x="156" y="333" type="line"/>
      <point x="408" y="333" type="line"/>
    </contour>
    <contour>
      <point x="294" y="344" type="line"/>
      <point x="265" y="344" type="line"/>
      <point x="264" y="0" type="line"/>
      <point x="294" y="0" type="line"/>
    </contour>
  </outline>
</glyph>
<glyph name="yuslittle-cy" format="2">
  <advance width="482"/>
  <unicode hex="0467"/>
  <anchor x="241" y="0" name="bottom"/>
  <anchor x="241" y="520" name="top"/>
  <outline>
    <contour>
      <point x="259" y="520" type="line"/>
      <point x="223" y="520" type="line"/>
      <point x="20" y="0" type="line"/>
      <point x="50" y="0" type="line"/>
      <point x="241" y="494" type="line"/>
      <point x="430" y="0" type="line"/>
      <point x="462" y="0" type="line"/>
    </contour>
    <contour>
      <point x="354" y="275" type="line"/>
      <point x="129" y="275" type="line"/>
      <point x="129" y="247" type="line"/>
      <point x="354" y="247" type="line"/>
    </contour>
    <contour>
      <point x="228" y="257" type="line"/>
      <point x="228" y="0" type="line"/>
      <point x="256" y="0" type="line"/>
      <point x="256" y="257" type="line"/>
    </contour>
  </outline>
</glyph>
<glyph name="Yuslittleiotified-cy" format="2">
  <advance width="767"/>
  <unicode hex="0468"/>
  <anchor x="383.5" y="0" name="bottom"/>
  <anchor x="383.5" y="682" name="top"/>
  <outline>
    <contour>
      <point x="365" y="333" type="line"/>
      <point x="365" y="362" type="line"/>
      <point x="151" y="362" type="line"/>
      <point x="151" y="682" type="line"/>
      <point x="120" y="682" type="line"/>
      <point x="120" y="0" type="line"/>
      <point x="151" y="0" type="line"/>
      <point x="151" y="333" type="line"/>
    </contour>
    <component base="Yuslittle-cy" xOffset="201"/>
  </outline>
</glyph>
<glyph name="yuslittleiotified-cy" format="2">
  <advance width="658"/>
  <unicode hex="0469"/>
  <anchor x="329" y="0" name="bottom"/>
  <anchor x="329" y="520" name="top"/>
  <outline>
    <contour>
      <point x="435" y="520" type="line"/>
      <point x="399" y="520" type="line"/>
      <point x="196" y="0" type="line"/>
      <point x="226" y="0" type="line"/>
      <point x="417" y="494" type="line"/>
      <point x="606" y="0" type="line"/>
      <point x="638" y="0" type="line"/>
    </contour>
    <contour>
      <point x="404" y="257" type="line"/>
      <point x="404" y="0" type="line"/>
      <point x="432" y="0" type="line"/>
      <point x="432" y="257" type="line"/>
    </contour>
    <contour>
      <point x="530" y="275" type="line"/>
      <point x="145" y="275" type="line"/>
      <point x="145" y="520" type="line"/>
      <point x="115" y="520" type="line"/>
      <point x="115" y="0" type="line"/>
      <point x="145" y="0" type="line"/>
      <point x="145" y="247" type="line"/>
      <point x="530" y="247" type="line"/>
    </contour>
  </outline>
</glyph>
<glyph name="Gheupturn-cy" format="2">
  <advance width="508"/>
  <unicode hex="0490"/>
  <anchor x="329" y="682" name="top"/>
  <anchor x="161" y="0" name="bottomright"/>
  <anchor x="136" y="0" name="bottom"/>
  <outline>
    <contour>
      <point x="468" y="671" type="line"/>
      <point x="498" y="682" type="line"/>
      <point x="498" y="790" type="line"/>
      <point x="468" y="790" type="line"/>
    </contour>
    <component base="Ge-cy"/>
  </outline>
</glyph>
<glyph name="gheupturn-cy" format="2">
  <advance width="418"/>
  <unicode hex="0491"/>
  <anchor x="262" y="520" name="top"/>
  <anchor x="155" y="0" name="bottomright"/>
  <anchor x="130" y="0" name="bottom"/>
  <outline>
    <contour>
      <point x="379" y="510" type="line"/>
      <point x="408" y="520" type="line"/>
      <point x="408" y="629" type="line"/>
      <point x="379" y="629" type="line"/>
    </contour>
    <component base="ge-cy"/>
  </outline>
</glyph>
<glyph name="Ghestroke-cy" format="2">
  <advance width="511"/>
  <unicode hex="0492"/>
  <anchor x="332" y="682" name="top"/>
  <anchor x="164" y="0" name="bottomright"/>
  <anchor x="139" y="0" name="bottom"/>
  <outline>
    <contour>
      <point x="328" y="392" type="line"/>
      <point x="25" y="392" type="line"/>
      <point x="25" y="364" type="line"/>
      <point x="123" y="364" type="line"/>
      <point x="328" y="364" type="line"/>
    </contour>
    <component base="Ge-cy" xOffset="3"/>
  </outline>
</glyph>
<glyph name="ghestroke-cy" format="2">
  <advance width="420"/>
  <unicode hex="0493"/>
  <anchor x="264" y="520" name="top"/>
  <anchor x="157" y="0" name="bottomright"/>
  <anchor x="132" y="0" name="bottom"/>
  <outline>
    <contour>
      <point x="281" y="298" type="line"/>
      <point x="117" y="298" type="line"/>
      <point x="50" y="298" type="line"/>
      <point x="50" y="271" type="line"/>
      <point x="281" y="271" type="line"/>
    </contour>
    <component base="ge-cy" xOffset="2"/>
  </outline>
</glyph>
<glyph name="kaverticalstroke-cy" format="2">
  <advance width="494"/>
  <unicode hex="049D"/>
  <anchor x="247" y="0" name="bottom"/>
  <anchor x="247" y="520" name="top"/>
  <outline>
    <contour>
      <point x="424" y="520" type="line"/>
      <point x="392" y="520" type="line"/>
      <point x="265" y="290" type="line"/>
      <point x="145" y="290" type="line"/>
      <point x="145" y="520" type="line"/>
      <point x="115" y="520" type="line"/>
      <point x="115" y="0" type="line"/>
      <point x="145" y="0" type="line"/>
      <point x="145" y="264" type="line"/>
      <point x="265" y="264" type="line"/>
      <point x="421" y="0" type="line"/>
      <point x="454" y="0" type="line"/>
      <point x="290" y="279" type="line"/>
    </contour>
    <contour>
      <point x="226" y="408" type="line"/>
      <point x="200" y="408" type="line"/>
      <point x="200" y="124" type="line"/>
      <point x="226" y="124" type="line"/>
    </contour>
  </outline>
</glyph>
<glyph name="Kastroke-cy" format="2">
  <advance width="538"/>
  <unicode hex="049E"/>
  <anchor x="309" y="682" name="top"/>
  <anchor x="497" y="0" name="bottomright"/>
  <anchor x="269" y="0" name="bottom"/>
  <outline>
    <contour>
      <point x="25" y="557" type="line"/>
      <point x="286" y="557" type="line"/>
      <point x="286" y="586" type="line"/>
      <point x="120" y="586" type="line"/>
      <point x="25" y="586" type="line"/>
    </contour>
    <component base="Ka-cy"/>
  </outline>
</glyph>
<glyph name="Kabashkir-cy" format="2">
  <advance width="579"/>
  <unicode hex="04A0"/>
  <anchor x="350" y="682" name="top"/>
  <anchor x="538" y="0" name="bottomright"/>
  <anchor x="310" y="0" name="bottom"/>
  <outline>
    <contour>
      <point x="182" y="682" type="line"/>
      <point x="0" y="682" type="line"/>
      <point x="0" y="654" type="line"/>
      <point x="171" y="654" type="line"/>
    </contour>
    <component base="Ka-cy" xOffset="41"/>
  </outline>
</glyph>
<glyph name="kabashkir-cy" format="2">
  <advance width="524"/>
  <unicode hex="04A1"/>
  <anchor x="319" y="520" name="top"/>
  <anchor x="487" y="0" name="bottomright"/>
  <anchor x="283" y="0" name="bottom"/>
  <outline>
    <contour>
      <point x="157" y="492" type="line"/>
      <point x="187" y="520" type="line"/>
      <point x="4" y="520" type="line"/>
      <point x="4" y="492" type="line"/>
    </contour>
    <component base="ka-cy" xOffset="42"/>
  </outline>
</glyph>
<glyph name="Enghe-cy" format="2">
  <advance width="705"/>
  <unicode hex="04A4"/>
  <anchor x="90" y="682" name="topleft"/>
  <anchor x="329" y="682" name="top"/>
  <anchor x="329" y="341" name="center"/>
  <anchor x="552" y="0" name="bottomright"/>
  <anchor x="331" y="0" name="bottom"/>
  <outline>
    <contour>
      <point x="521" y="682" type="line"/>
      <point x="532" y="654" type="line"/>
      <point x="700" y="654" type="line"/>
      <point x="705" y="682" type="line"/>
    </contour>
    <component base="H"/>
  </outline>
</glyph>
<glyph name="enghe-cy" format="2">
  <advance width="628"/>
  <unicode hex="04A5"/>
  <anchor x="292" y="520" name="top"/>
  <anchor x="479" y="0" name="bottomright"/>
  <anchor x="292" y="0" name="bottom"/>
  <outline>
    <contour>
      <point x="469" y="492" type="line"/>
      <point x="620" y="492" type="line"/>
      <point x="624" y="520" type="line"/>
      <point x="439" y="520" type="line"/>
    </contour>
    <component base="en-cy"/>
  </outline>
</glyph>
<glyph name="Pemiddlehook-cy" format="2">
  <advance width="974"/>
  <unicode hex="04A6"/>
  <anchor x="487" y="-193" name="bottom"/>
  <anchor x="487" y="682" name="top"/>
  <anchor x="547" y="0" name="bottomright"/>
  <outline>
    <contour>
      <point x="734" y="424" type="curve" smooth="yes"/>
      <point x="646" y="424"/>
      <point x="586" y="387"/>
      <point x="535" y="327" type="curve"/>
      <point x="535" y="287" type="line"/>
      <point x="592" y="360"/>
      <point x="652" y="395"/>
      <point x="733" y="395" type="curve" smooth="yes"/>
      <point x="843" y="395"/>
      <point x="888" y="332"/>
      <point x="888" y="241" type="curve" smooth="yes"/>
      <point x="888" y="0" type="line"/>
      <point x="919" y="0" type="line"/>
      <point x="919" y="243" type="line" smooth="yes"/>
      <point x="919" y="354"/>
      <point x="858" y="424"/>
    </contour>
    <component base="Pe-cy"/>
    <component base="hookHELPER.case" xOffset="685"/>
  </outline>
</glyph>
<glyph name="Ustraitstroke-cy" format="2">
  <advance width="500"/>
  <unicode hex="04B0"/>
  <anchor x="15" y="682" name="topleft"/>
  <anchor x="250" y="682" name="top"/>
  <anchor x="252" y="0" name="bottom"/>
  <outline>
    <contour>
      <point x="389" y="288" type="line"/>
      <point x="236" y="288" type="line"/>
      <point x="114" y="288" type="line"/>
      <point x="114" y="259" type="line"/>
      <point x="267" y="259" type="line"/>
      <point x="389" y="259" type="line"/>
    </contour>
    <component base="Y"/>
  </outline>
</glyph>
<glyph name="ustraitstroke-cy" format="2">
  <advance width="452"/>
  <unicode hex="04B1"/>
  <anchor x="226" y="520" name="top"/>
  <anchor x="226" y="-193" name="bottom"/>
  <outline>
    <contour>
      <point x="216" y="5" type="line"/>
      <point x="245" y="5" type="line"/>
      <point x="351" y="5" type="line"/>
      <point x="351" y="32" type="line"/>
      <point x="110" y="32" type="line"/>
      <point x="110" y="5" type="line"/>
    </contour>
    <component base="ustrait-cy"/>
  </outline>
</glyph>
<glyph name="Tetse-cy" format="2">
  <advance width="765"/>
  <unicode hex="04B4"/>
  <anchor x="382.5" y="-193" name="bottom"/>
  <anchor x="382.5" y="682" name="top"/>
  <anchor x="647" y="0" name="bottomright"/>
  <outline>
    <contour>
      <point x="467" y="682" type="line"/>
      <point x="15" y="682" type="line"/>
      <point x="15" y="654" type="line"/>
      <point x="223" y="654" type="line"/>
      <point x="254" y="654" type="line"/>
      <point x="462" y="654" type="line"/>
    </contour>
    <component base="Tse-cy" xOffset="103"/>
  </outline>
</glyph>
<glyph name="tetse-cy" format="2">
  <advance width="659"/>
  <unicode hex="04B5"/>
  <anchor x="329.5" y="-193" name="bottom"/>
  <anchor x="329.5" y="520" name="top"/>
  <anchor x="549" y="0" name="bottomright"/>
  <outline>
    <contour>
      <point x="408" y="520" type="line"/>
      <point x="10" y="520" type="line"/>
      <point x="10" y="492" type="line"/>
      <point x="195" y="492" type="line"/>
      <point x="225" y="492" type="line"/>
      <point x="404" y="492" type="line"/>
    </contour>
    <component base="tse-cy" xOffset="80"/>
  </outline>
</glyph>
<glyph name="Cheverticalstroke-cy" format="2">
  <advance width="579"/>
  <unicode hex="04B8"/>
  <anchor x="255" y="682" name="top"/>
  <anchor x="408" y="0" name="bottomleft"/>
  <anchor x="469" y="0" name="bottomright"/>
  <anchor x="289.5" y="0.0" name="bottom"/>
  <outline>
    <contour>
      <point x="270" y="517" type="line"/>
      <point x="240" y="517" type="line"/>
      <point x="240" y="115" type="line"/>
      <point x="270" y="115" type="line"/>
    </contour>
    <component base="Che-cy"/>
  </outline>
</glyph>
<glyph name="cheverticalstroke-cy" format="2">
  <advance width="531"/>
  <unicode hex="04B9"/>
  <anchor x="241" y="520" name="top"/>
  <anchor x="366" y="0" name="bottomleft"/>
  <anchor x="426" y="0" name="bottomright"/>
  <anchor x="265.5" y="0.0" name="bottom"/>
  <outline>
    <contour>
      <point x="247" y="375" type="line"/>
      <point x="219" y="375" type="line"/>
      <point x="219" y="96" type="line"/>
      <point x="247" y="96" type="line"/>
    </contour>
    <component base="che-cy"/>
  </outline>
</glyph>
<glyph name="Shha-cy" format="2">
  <advance width="584"/>
  <unicode hex="04BA"/>
  <anchor x="292" y="0" name="bottom"/>
  <anchor x="539" y="0" name="bottomright"/>
  <anchor x="292" y="682" name="top"/>
  <outline>
    <contour>
      <point x="344" y="424" type="curve" smooth="yes"/>
      <point x="256" y="424"/>
      <point x="196" y="387"/>
      <point x="145" y="327" type="curve"/>
      <point x="145" y="287" type="line"/>
      <point x="202" y="360"/>
      <point x="262" y="395"/>
      <point x="343" y="395" type="curve" smooth="yes"/>
      <point x="453" y="395"/>
      <point x="498" y="332"/>
      <point x="498" y="241" type="curve" smooth="yes"/>
      <point x="498" y="0" type="line"/>
      <point x="529" y="0" type="line"/>
      <point x="529" y="243" type="line" smooth="yes"/>
      <point x="529" y="354"/>
      <point x="468" y="424"/>
    </contour>
    <contour>
      <point x="151" y="682" type="line"/>
      <point x="120" y="682" type="line"/>
      <point x="120" y="0" type="line"/>
      <point x="151" y="0" type="line"/>
    </contour>
  </outline>
</glyph>
<glyph name="gestrokehook-cy" format="2">
  <advance width="420"/>
  <unicode hex="04FB"/>
  <anchor x="210" y="-193" name="bottom"/>
  <anchor x="210" y="520" name="top"/>
  <anchor x="157" y="0" name="bottomright"/>
  <outline>
    <contour>
      <point x="146" y="28" type="line"/>
      <point x="146" y="0" type="line"/>
      <point x="208" y="0" type="line"/>
      <point x="208" y="28" type="line"/>
    </contour>
    <component base="ghestroke-cy"/>
    <component base="hookHELPER" xOffset="-26"/>
  </outline>
</glyph>
<glyph name="hastroke-cy" format="2">
  <advance width="437"/>
  <unicode hex="04FF"/>
  <anchor x="218.5" y="0" name="bottom"/>
  <anchor x="218.5" y="520" name="top"/>
  <outline>
    <contour>
      <point x="75" y="520" type="line"/>
      <point x="40" y="520" type="line"/>
      <point x="199" y="278" type="line"/>
      <point x="217" y="260" type="line"/>
      <point x="386" y="0" type="line"/>
      <point x="422" y="0" type="line"/>
      <point x="236" y="279" type="line"/>
      <point x="218" y="297" type="line"/>
    </contour>
    <contour>
      <point x="397" y="520" type="line"/>
      <point x="362" y="520" type="line"/>
      <point x="218" y="297" type="line"/>
      <point x="199" y="278" type="line"/>
      <point x="15" y="0" type="line"/>
      <point x="50" y="0" type="line"/>
      <point x="217" y="260" type="line"/>
      <point x="236" y="279" type="line"/>
    </contour>
    <component base="hyphen" xScale="1.3" yScale="0.95" xOffset="-41" yOffset="-14"/>
  </outline>
</glyph>
<glyph name="Lha-cy" format="2">
  <advance width="781"/>
  <unicode hex="0514"/>
  <anchor x="390.5" y="0" name="bottom"/>
  <anchor x="390.5" y="682" name="top"/>
  <anchor x="745" y="0" name="bottomright"/>
  <outline>
    <contour>
      <point x="50" y="-6" type="line"/>
      <point x="134" y="24"/>
      <point x="146" y="75"/>
      <point x="162" y="288" type="curve" smooth="yes"/>
      <point x="189" y="657" type="line"/>
      <point x="161" y="682" type="line"/>
      <point x="131" y="290" type="line" smooth="yes"/>
      <point x="115" y="83"/>
      <point x="103" y="43"/>
      <point x="41" y="20" type="curve"/>
    </contour>
    <contour>
      <point x="177" y="653" type="line"/>
      <point x="362" y="653" type="line"/>
      <point x="362" y="682" type="line"/>
      <point x="161" y="682" type="line"/>
    </contour>
    <component base="X" xOffset="292"/>
  </outline>
</glyph>
<glyph name="lha-cy" format="2">
  <advance width="661"/>
  <unicode hex="0515"/>
  <anchor x="330.5" y="0" name="bottom"/>
  <anchor x="330.5" y="520" name="top"/>
  <anchor x="636" y="0" name="bottomright"/>
  <outline>
    <contour>
      <point x="141" y="520" type="line"/>
      <point x="160" y="493" type="line"/>
      <point x="281" y="493" type="line"/>
      <point x="281" y="520" type="line"/>
    </contour>
    <contour>
      <point x="170" y="493" type="line"/>
      <point x="141" y="520" type="line"/>
      <point x="136" y="286" type="line" smooth="yes"/>
      <point x="132" y="80"/>
      <point x="115" y="41"/>
      <point x="52" y="19" type="curve"/>
      <point x="61" y="-6" type="line"/>
      <point x="146" y="23"/>
      <point x="162" y="67"/>
      <point x="166" y="284" type="curve" smooth="yes"/>
    </contour>
    <component base="x" xOffset="224"/>
  </outline>
</glyph>
<glyph name="Aleutka-cy" format="2">
  <advance width="538"/>
  <unicode hex="051E"/>
  <anchor x="309" y="682" name="top"/>
  <anchor x="497" y="0" name="bottomright"/>
  <anchor x="269" y="0" name="bottom"/>
  <outline>
    <contour>
      <point x="252" y="607" type="line"/>
      <point x="511" y="426" type="line"/>
      <point x="526" y="446" type="line"/>
      <point x="267" y="627" type="line"/>
    </contour>
    <component base="Ka-cy"/>
  </outline>
</glyph>
<glyph name="aleutka-cy" format="2">
  <advance width="482"/>
  <unicode hex="051F"/>
  <anchor x="241" y="0" name="bottom"/>
  <anchor x="241" y="520" name="top"/>
  <anchor x="445" y="0" name="bottomright"/>
  <outline>
    <contour>
      <point x="202" y="457" type="line"/>
      <point x="430" y="298" type="line"/>
      <point x="444" y="317" type="line"/>
      <point x="216" y="476" type="line"/>
    </contour>
    <component base="ka-cy"/>
  </outline>
</glyph>
<glyph name="elmiddlehook-cy" format="2">
  <advance width="839"/>
  <unicode hex="0521"/>
  <anchor x="419.5" y="-193" name="bottom"/>
  <anchor x="419.5" y="520" name="top"/>
  <anchor x="457" y="0" name="bottomright"/>
  <outline>
    <contour>
      <point x="744" y="0" type="line"/>
      <point x="774" y="0" type="line"/>
      <point x="774" y="180" type="line" smooth="yes"/>
      <point x="774" y="282"/>
      <point x="728" y="340"/>
      <point x="634" y="340" type="curve" smooth="yes"/>
      <point x="551" y="340"/>
      <point x="488" y="290"/>
      <point x="438" y="229" type="curve"/>
      <point x="447" y="203" type="line"/>
      <point x="499" y="263"/>
      <point x="554" y="313"/>
      <point x="633" y="313" type="curve" smooth="yes"/>
      <point x="707" y="313"/>
      <point x="744" y="269"/>
      <point x="744" y="176" type="curve" smooth="yes"/>
    </contour>
    <component base="el-cy"/>
    <component base="hookHELPER" xOffset="540"/>
  </outline>
</glyph>
<glyph name="Enmiddlehook-cy" format="2">
  <advance width="980"/>
  <unicode hex="0522"/>
  <anchor x="490" y="-193" name="bottom"/>
  <anchor x="490" y="682" name="top"/>
  <anchor x="90" y="682" name="topleft"/>
  <anchor x="329" y="341" name="center"/>
  <anchor x="552" y="0" name="bottomright"/>
  <outline>
    <contour>
      <point x="740" y="424" type="curve" smooth="yes"/>
      <point x="652" y="424"/>
      <point x="592" y="387"/>
      <point x="541" y="327" type="curve"/>
      <point x="541" y="287" type="line"/>
      <point x="598" y="360"/>
      <point x="658" y="395"/>
      <point x="739" y="395" type="curve" smooth="yes"/>
      <point x="849" y="395"/>
      <point x="894" y="332"/>
      <point x="894" y="241" type="curve" smooth="yes"/>
      <point x="894" y="0" type="line"/>
      <point x="925" y="0" type="line"/>
      <point x="925" y="243" type="line" smooth="yes"/>
      <point x="925" y="354"/>
      <point x="864" y="424"/>
    </contour>
    <component base="H"/>
    <component base="hookHELPER.case" xOffset="691"/>
  </outline>
</glyph>
<glyph name="dche-cy" format="2">
  <advance width="606"/>
  <unicode hex="052D"/>
  <anchor x="303" y="-193" name="bottom"/>
  <anchor x="303" y="520" name="top"/>
  <outline>
    <contour>
      <point x="95" y="28" type="curve"/>
      <point x="123" y="25" type="line"/>
      <point x="172" y="55"/>
      <point x="224" y="98"/>
      <point x="239" y="317" type="curve" smooth="yes"/>
      <point x="251" y="492" type="line"/>
      <point x="459" y="492" type="line"/>
      <point x="459" y="28" type="line"/>
      <point x="95" y="28" type="line"/>
      <point x="95" y="0" type="line"/>
      <point x="491" y="0" type="line"/>
      <point x="491" y="520" type="line"/>
      <point x="221" y="520" type="line"/>
      <point x="207" y="314" type="line" smooth="yes"/>
      <point x="192" y="94"/>
      <point x="138" y="64"/>
    </contour>
    <contour>
      <point x="462" y="285" type="line"/>
      <point x="462" y="313" type="line"/>
      <point x="237" y="313" type="line" smooth="yes"/>
      <point x="134" y="313"/>
      <point x="112" y="340"/>
      <point x="112" y="426" type="curve" smooth="yes"/>
      <point x="112" y="520" type="line"/>
      <point x="82" y="520" type="line"/>
      <point x="82" y="422" type="line" smooth="yes"/>
      <point x="82" y="318"/>
      <point x="128" y="285"/>
      <point x="232" y="285" type="curve" smooth="yes"/>
    </contour>
    <component base="descStraight-cy" xScale="-1" xOffset="159"/>
    <component base="descStraight-cy" xOffset="442"/>
  </outline>
</glyph>
<glyph name="uni1D6C" format="2">
  <advance width="638"/>
  <unicode hex="1D6C"/>
  <anchor x="367" y="734" name="top"/>
  <anchor x="371" y="0" name="bottom"/>
  <outline>
    <contour>
      <point x="287" y="588" type="curve" smooth="yes"/>
      <point x="327" y="588"/>
      <point x="348" y="611"/>
      <point x="373" y="647" type="curve"/>
      <point x="353" y="659" type="line"/>
      <point x="332" y="634"/>
      <point x="319" y="618"/>
      <point x="287" y="618" type="curve" smooth="yes"/>
      <point x="239" y="618"/>
      <point x="192" y="673"/>
      <point x="134" y="673" type="curve"/>
      <point x="92" y="673"/>
      <point x="70" y="650"/>
      <point x="45" y="614" type="curve"/>
      <point x="65" y="602" type="line"/>
      <point x="86" y="627"/>
      <point x="100" y="643"/>
      <point x="134" y="643" type="curve"/>
      <point x="181" y="643"/>
      <point x="233" y="588"/>
    </contour>
    <component base="b" xOffset="73"/>
  </outline>
</glyph>
<glyph name="uni1D6D" format="2">
  <advance width="646"/>
  <unicode hex="1D6D"/>
  <anchor x="274" y="734" name="top"/>
  <anchor x="288" y="260" name="center"/>
  <anchor x="485" y="734" name="topright"/>
  <anchor x="293" y="0" name="bottom"/>
  <outline>
    <contour>
      <point x="515" y="588" type="curve" smooth="yes"/>
      <point x="555" y="588"/>
      <point x="576" y="611"/>
      <point x="601" y="647" type="curve"/>
      <point x="581" y="659" type="line"/>
      <point x="560" y="634"/>
      <point x="547" y="618"/>
      <point x="515" y="618" type="curve" smooth="yes"/>
      <point x="467" y="618"/>
      <point x="420" y="673"/>
      <point x="362" y="673" type="curve"/>
      <point x="320" y="673"/>
      <point x="298" y="650"/>
      <point x="273" y="614" type="curve"/>
      <point x="293" y="602" type="line"/>
      <point x="314" y="627"/>
      <point x="328" y="643"/>
      <point x="362" y="643" type="curve"/>
      <point x="409" y="643"/>
      <point x="461" y="588"/>
    </contour>
    <component base="d" xOffset="-5"/>
  </outline>
</glyph>
<glyph name="uni1D70" format="2">
  <advance width="566"/>
  <unicode hex="1D70"/>
  <anchor x="94" y="520" name="topleft"/>
  <anchor x="286" y="520" name="top"/>
  <anchor x="278" y="0" name="bottom"/>
  <outline>
    <contour>
      <point x="40" y="238" type="line"/>
      <point x="61" y="263"/>
      <point x="74" y="279"/>
      <point x="106" y="279" type="curve"/>
      <point x="106" y="309" type="line"/>
      <point x="66" y="309"/>
      <point x="45" y="286"/>
      <point x="20" y="250" type="curve"/>
    </contour>
    <contour>
      <point x="432" y="227" type="curve"/>
      <point x="432" y="255" type="line"/>
      <point x="332" y="272"/>
      <point x="232" y="289"/>
      <point x="132" y="306" type="curve"/>
      <point x="132" y="278" type="line"/>
      <point x="232" y="261"/>
      <point x="332" y="244"/>
    </contour>
    <contour>
      <point x="460" y="225" type="line"/>
      <point x="500" y="225"/>
      <point x="521" y="248"/>
      <point x="546" y="284" type="curve"/>
      <point x="526" y="296" type="line"/>
      <point x="505" y="271"/>
      <point x="492" y="255"/>
      <point x="460" y="255" type="curve"/>
    </contour>
    <component base="n" xOffset="-11"/>
  </outline>
</glyph>
<glyph name="uni1D74" format="2">
  <advance width="461"/>
  <unicode hex="1D74"/>
  <anchor x="235" y="520" name="top"/>
  <anchor x="230" y="0" name="bottom"/>
  <outline>
    <contour>
      <point x="90" y="238" type="line"/>
      <point x="111" y="263"/>
      <point x="124" y="279"/>
      <point x="176" y="279" type="curve"/>
      <point x="176" y="297" type="line"/>
      <point x="116" y="307"/>
      <point x="95" y="286"/>
      <point x="70" y="250" type="curve"/>
    </contour>
    <contour>
      <point x="296" y="250" type="line"/>
      <point x="356" y="240"/>
      <point x="377" y="261"/>
      <point x="402" y="297" type="curve"/>
      <point x="382" y="309" type="line"/>
      <point x="361" y="284"/>
      <point x="348" y="268"/>
      <point x="296" y="268" type="curve"/>
    </contour>
    <component base="s"/>
  </outline>
</glyph>
<glyph name="acutemacron" format="2">
  <advance width="371"/>
  <unicode hex="1DC7"/>
  <anchor x="186" y="520" name="_top"/>
  <anchor x="188" y="725" name="top"/>
  <outline>
    <contour>
      <point x="44" y="604" type="line"/>
      <point x="184" y="696" type="line"/>
      <point x="169" y="725" type="line"/>
      <point x="30" y="623" type="line"/>
    </contour>
    <contour>
      <point x="169" y="696" type="line"/>
      <point x="341" y="696" type="line"/>
      <point x="341" y="725" type="line"/>
      <point x="169" y="725" type="line"/>
    </contour>
  </outline>
</glyph>
<glyph name="acutegraveacute" format="2">
  <advance width="419"/>
  <unicode hex="1DC9"/>
  <anchor x="210" y="520" name="_top"/>
  <anchor x="212" y="774" name="top"/>
  <outline>
    <contour>
      <point x="265" y="673" type="line"/>
      <point x="389" y="750" type="line"/>
      <point x="372" y="774" type="line"/>
      <point x="265" y="704" type="line"/>
      <point x="152" y="774" type="line"/>
      <point x="30" y="696" type="line"/>
      <point x="42" y="677" type="line"/>
      <point x="153" y="737" type="line"/>
    </contour>
  </outline>
</glyph>
<glyph name="dasiavaria" format="2">
  <advance width="254"/>
  <unicode hex="1FDD"/>
  <anchor x="140" y="520" name="_top"/>
  <outline>
    <contour>
      <point x="170" y="765" type="line"/>
      <point x="133" y="751" type="line"/>
      <point x="196" y="590" type="line"/>
      <point x="220" y="598" type="line"/>
    </contour>
    <component base="dasia"/>
  </outline>
</glyph>
<glyph name="dasiaperispomeni" format="2">
  <advance width="333"/>
  <unicode hex="1FDF"/>
  <anchor x="167" y="520" name="_top"/>
  <anchor x="288" y="801" name="_topleft"/>
  <anchor x="169" y="808" name="top"/>
  <outline>
    <contour>
      <point x="199" y="573" type="line"/>
      <point x="176" y="650" type="line"/>
      <point x="192" y="655"/>
      <point x="199" y="664"/>
      <point x="199" y="680" type="curve" smooth="yes"/>
      <point x="199" y="697"/>
      <point x="186" y="711"/>
      <point x="167" y="711" type="curve" smooth="yes"/>
      <point x="145" y="711"/>
      <point x="134" y="697"/>
      <point x="134" y="680" type="curve" smooth="yes"/>
      <point x="134" y="664"/>
      <point x="139" y="654"/>
      <point x="153" y="623" type="curve" smooth="yes"/>
      <point x="176" y="573" type="line"/>
    </contour>
    <component base="perispomeni" yOffset="63"/>
  </outline>
</glyph>
<glyph name="figuredash" format="2">
  <advance width="560"/>
  <unicode hex="2012"/>
  <outline>
    <contour>
      <point x="42" y="320" type="line"/>
      <point x="518" y="320" type="line"/>
      <point x="518" y="347" type="line"/>
      <point x="42" y="347" type="line"/>
    </contour>
  </outline>
</glyph>
<glyph name="daggerdbl" format="2">
  <advance width="508"/>
  <unicode hex="2021"/>
  <outline>
    <contour>
      <point x="450" y="213" type="line"/>
      <point x="58" y="213" type="line"/>
      <point x="58" y="186" type="line"/>
      <point x="450" y="186" type="line"/>
    </contour>
    <component base="dagger" xOffset="2"/>
  </outline>
</glyph>
<glyph name="bullet" format="2">
  <advance width="256"/>
  <unicode hex="2022"/>
  <outline>
    <contour>
      <point x="128" y="392" type="curve" smooth="yes"/>
      <point x="102" y="392"/>
      <point x="85" y="373"/>
      <point x="85" y="349" type="curve" smooth="yes"/>
      <point x="85" y="326"/>
      <point x="102" y="307"/>
      <point x="128" y="307" type="curve" smooth="yes"/>
      <point x="155" y="307"/>
      <point x="171" y="326"/>
      <point x="171" y="349" type="curve" smooth="yes"/>
      <point x="171" y="373"/>
      <point x="155" y="392"/>
    </contour>
  </outline>
</glyph>
<glyph name="fraction" format="2">
  <advance width="100"/>
  <unicode hex="2044"/>
  <outline>
    <contour>
      <point x="242" y="745" type="line"/>
      <point x="-167" y="-53" type="line"/>
      <point x="-142" y="-65" type="line"/>
      <point x="267" y="733" type="line"/>
    </contour>
  </outline>
</glyph>
<glyph name="drachma" format="2">
  <advance width="1118"/>
  <unicode hex="20AF"/>
  <anchor x="853" y="520" name="top"/>
  <anchor x="838" y="-193" name="bottom"/>
  <outline>
    <contour>
      <point x="97" y="0" type="line"/>
      <point x="274" y="0" type="line" smooth="yes"/>
      <point x="408" y="0"/>
      <point x="569" y="61"/>
      <point x="569" y="338" type="curve" smooth="yes"/>
      <point x="569" y="607"/>
      <point x="417" y="662"/>
      <point x="271" y="662" type="curve" smooth="yes"/>
      <point x="162" y="662" type="line"/>
      <point x="162" y="634" type="line"/>
      <point x="268" y="634" type="line" smooth="yes"/>
      <point x="397" y="634"/>
      <point x="537" y="594"/>
      <point x="537" y="338" type="curve" smooth="yes"/>
      <point x="537" y="87"/>
      <point x="402" y="29"/>
      <point x="275" y="29" type="curve" smooth="yes"/>
      <point x="140" y="29" type="line"/>
    </contour>
    <contour>
      <point x="97" y="0" type="line"/>
      <point x="140" y="29" type="line"/>
      <point x="188" y="53"/>
      <point x="211" y="77"/>
      <point x="211" y="144" type="curve" smooth="yes"/>
      <point x="211" y="584" type="line"/>
      <point x="181" y="585" type="line"/>
      <point x="181" y="142" type="line" smooth="yes"/>
      <point x="181" y="81"/>
      <point x="156" y="58"/>
      <point x="97" y="28" type="curve"/>
    </contour>
    <component base="rho" xOffset="558"/>
    <component base="hookaboveHELPER2.case" yOffset="-20"/>
  </outline>
</glyph>
<glyph name="rupeeIndian" format="2">
  <advance width="517"/>
  <unicode hex="20B9"/>
  <outline>
    <contour>
      <point x="70" y="290" type="line"/>
      <point x="212" y="290" type="line"/>
      <point x="322" y="306"/>
      <point x="398" y="355"/>
      <point x="398" y="478" type="curve" smooth="yes"/>
      <point x="398" y="575"/>
      <point x="353" y="633"/>
      <point x="251" y="642" type="curve"/>
      <point x="170" y="662" type="line"/>
      <point x="70" y="662" type="line"/>
      <point x="70" y="634" type="line"/>
      <point x="166" y="633" type="line" smooth="yes"/>
      <point x="313" y="631"/>
      <point x="366" y="579"/>
      <point x="366" y="478" type="curve" smooth="yes"/>
      <point x="366" y="367"/>
      <point x="296" y="319"/>
      <point x="176" y="319" type="curve" smooth="yes"/>
      <point x="70" y="319" type="line"/>
    </contour>
    <contour>
      <point x="394" y="0" type="line"/>
      <point x="433" y="0" type="line"/>
      <point x="239" y="302" type="line"/>
      <point x="205" y="297" type="line"/>
    </contour>
    <contour>
      <point x="70" y="492" type="line"/>
      <point x="487" y="492" type="line"/>
      <point x="487" y="521" type="line"/>
      <point x="70" y="521" type="line"/>
    </contour>
    <contour>
      <point x="70" y="634" type="line"/>
      <point x="254" y="634" type="line"/>
      <point x="260" y="634" type="line"/>
      <point x="487" y="634" type="line"/>
      <point x="487" y="662" type="line"/>
      <point x="70" y="662" type="line"/>
    </contour>
  </outline>
</glyph>
<glyph name="numero" format="2">
  <advance width="1091"/>
  <unicode hex="2116"/>
  <anchor x="339" y="682" name="top"/>
  <anchor x="332" y="0" name="bottom"/>
  <outline>
    <contour>
      <point x="831" y="692" type="curve"/>
      <point x="725" y="692"/>
      <point x="651" y="613"/>
      <point x="651" y="479" type="curve" smooth="yes"/>
      <point x="651" y="346"/>
      <point x="725" y="266"/>
      <point x="831" y="266" type="curve"/>
      <point x="937" y="266"/>
      <point x="1011" y="345"/>
      <point x="1011" y="479" type="curve" smooth="yes"/>
      <point x="1011" y="612"/>
      <point x="937" y="692"/>
    </contour>
    <contour>
      <point x="831" y="665" type="curve"/>
      <point x="916" y="665"/>
      <point x="981" y="605"/>
      <point x="981" y="479" type="curve" smooth="yes"/>
      <point x="981" y="352"/>
      <point x="920" y="293"/>
      <point x="831" y="293" type="curve"/>
      <point x="746" y="293"/>
      <point x="681" y="353"/>
      <point x="681" y="479" type="curve" smooth="yes"/>
      <point x="681" y="606"/>
      <point x="742" y="665"/>
    </contour>
    <component base="N"/>
    <component base="minus" xOffset="587" yOffset="-316"/>
  </outline>
</glyph>
<glyph name="notequal" format="2">
  <advance width="488"/>
  <unicode hex="2260"/>
  <outline>
    <contour>
      <point x="357" y="543" type="line"/>
      <point x="108" y="124" type="line"/>
      <point x="131" y="111" type="line"/>
      <point x="380" y="530" type="line"/>
    </contour>
    <component base="equal"/>
  </outline>
</glyph>
<glyph name="upBlackSmallTriangle" format="2">
  <advance width="500"/>
  <unicode hex="25B4"/>
  <outline>
    <contour>
      <point x="35" y="169" type="line"/>
      <point x="466" y="169" type="line"/>
      <point x="250" y="505" type="line"/>
    </contour>
  </outline>
</glyph>
<glyph name="lozenge" format="2">
  <advance width="490"/>
  <unicode hex="25CA"/>
  <outline>
    <contour>
      <point x="261" y="662" type="line"/>
      <point x="229" y="662" type="line"/>
      <point x="45" y="333" type="line"/>
      <point x="229" y="0" type="line"/>
      <point x="261" y="0" type="line"/>
      <point x="445" y="333" type="line"/>
    </contour>
    <contour>
      <point x="245" y="635" type="line"/>
      <point x="412" y="333" type="line"/>
      <point x="245" y="26" type="line"/>
      <point x="78" y="333" type="line"/>
    </contour>
  </outline>
</glyph>
<glyph name="uniA7AE" format="2">
  <advance width="359"/>
  <unicode hex="A7AE"/>
  <anchor x="179.5" y="0" name="bottom"/>
  <anchor x="179.5" y="682" name="top"/>
  <outline>
    <contour>
      <point x="164" y="0" type="line"/>
      <point x="194" y="0" type="line"/>
      <point x="194" y="682" type="line"/>
      <point x="164" y="682" type="line"/>
    </contour>
    <contour>
      <point x="35" y="0" type="line"/>
      <point x="324" y="0" type="line"/>
      <point x="324" y="29" type="line"/>
      <point x="35" y="29" type="line"/>
    </contour>
    <contour>
      <point x="35" y="653" type="line"/>
      <point x="324" y="653" type="line"/>
      <point x="324" y="682" type="line"/>
      <point x="35" y="682" type="line"/>
    </contour>
  </outline>
</glyph>
<glyph name="Iotaafrican.sc" format="2">
  <advance width="325"/>
  <anchor x="162.5" y="0" name="bottom"/>
  <anchor x="125" y="560" name="top"/>
  <outline>
    <contour>
      <point x="140" y="560" type="line"/>
      <point x="110" y="560" type="line"/>
      <point x="110" y="191" type="line"/>
      <point x="140" y="191" type="line"/>
    </contour>
    <component base="hookHELPER" xScale="-1" xOffset="344" yOffset="191"/>
  </outline>
</glyph>
<glyph name="Nhookleft.ss01" format="2">
  <advance width="655"/>
  <anchor x="327.5" y="-193" name="bottom"/>
  <anchor x="327.5" y="682" name="top"/>
  <outline>
    <contour>
      <point x="370" y="692" type="curve" smooth="yes"/>
      <point x="265" y="692"/>
      <point x="189" y="632"/>
      <point x="142" y="561" type="curve"/>
      <point x="151" y="533" type="line"/>
      <point x="200" y="603"/>
      <point x="268" y="663"/>
      <point x="369" y="663" type="curve" smooth="yes"/>
      <point x="458" y="663"/>
      <point x="512" y="609"/>
      <point x="512" y="487" type="curve" smooth="yes"/>
      <point x="512" y="0" type="line"/>
      <point x="543" y="0" type="line"/>
      <point x="543" y="492" type="line" smooth="yes"/>
      <point x="543" y="624"/>
      <point x="479" y="692"/>
    </contour>
    <contour>
      <point x="147" y="682" type="line"/>
      <point x="120" y="682" type="line"/>
      <point x="120" y="0" type="line"/>
      <point x="151" y="0" type="line"/>
      <point x="151" y="541" type="line"/>
    </contour>
    <component base="hookHELPER.case" xOffset="-83"/>
  </outline>
</glyph>
<glyph name="Rtail.ss01" format="2">
  <advance width="398"/>
  <anchor x="199" y="-193" name="bottom"/>
  <anchor x="199" y="682" name="top"/>
  <outline>
    <contour>
      <point x="322" y="692" type="curve" smooth="yes"/>
      <point x="237" y="692"/>
      <point x="171" y="643"/>
      <point x="142" y="540" type="curve"/>
      <point x="145" y="472" type="line"/>
      <point x="177" y="606"/>
      <point x="238" y="662"/>
      <point x="322" y="662" type="curve" smooth="yes"/>
      <point x="348" y="662"/>
      <point x="368" y="659"/>
      <point x="381" y="655" type="curve"/>
      <point x="388" y="683" type="line"/>
      <point x="377" y="686"/>
      <point x="359" y="692"/>
    </contour>
    <contour>
      <point x="147" y="682" type="line"/>
      <point x="120" y="682" type="line"/>
      <point x="120" y="0" type="line"/>
      <point x="151" y="0" type="line"/>
      <point x="151" y="508" type="line"/>
      <point x="148" y="546" type="line"/>
    </contour>
    <component base="hookHELPER.case" xScale="-1" xOffset="354"/>
  </outline>
</glyph>
<glyph name="TseHelper-cy" format="2">
  <advance width="654"/>
  <anchor x="327" y="0" name="bottom"/>
  <anchor x="544" y="0" name="bottomright"/>
  <outline>
    <contour>
      <point x="534" y="0" type="line"/>
      <point x="534" y="682" type="line"/>
      <point x="503" y="682" type="line"/>
      <point x="503" y="29" type="line"/>
      <point x="151" y="29" type="line"/>
      <point x="151" y="682" type="line"/>
      <point x="120" y="682" type="line"/>
      <point x="120" y="0" type="line"/>
    </contour>
  </outline>
</glyph>
<glyph name="Upsilonafrican.sc" format="2">
  <advance width="620"/>
  <anchor x="310" y="0" name="bottom"/>
  <anchor x="310" y="560" name="top"/>
  <outline>
    <contour>
      <point x="310" y="-8" type="curve" smooth="yes"/>
      <point x="448" y="-8"/>
      <point x="545" y="96"/>
      <point x="545" y="263" type="curve" smooth="yes"/>
      <point x="545" y="413"/>
      <point x="490" y="487"/>
      <point x="422" y="533" type="curve"/>
      <point x="526" y="533" type="line"/>
      <point x="526" y="560" type="line"/>
      <point x="379" y="560" type="line"/>
      <point x="379" y="533" type="line"/>
      <point x="453" y="488"/>
      <point x="514" y="409"/>
      <point x="514" y="263" type="curve" smooth="yes"/>
      <point x="514" y="106"/>
      <point x="431" y="19"/>
      <point x="310" y="19" type="curve" smooth="yes"/>
      <point x="187" y="19"/>
      <point x="106" y="106"/>
      <point x="106" y="263" type="curve" smooth="yes"/>
      <point x="106" y="409"/>
      <point x="168" y="488"/>
      <point x="241" y="533" type="curve"/>
      <point x="241" y="560" type="line"/>
      <point x="94" y="560" type="line"/>
      <point x="94" y="533" type="line"/>
      <point x="198" y="533" type="line"/>
      <point x="136" y="487"/>
      <point x="75" y="412"/>
      <point x="75" y="263" type="curve" smooth="yes"/>
      <point x="75" y="95"/>
      <point x="170" y="-8"/>
    </contour>
  </outline>
</glyph>
<glyph name="acute.sc.loclPLK" format="2">
  <advance width="243"/>
  <anchor x="121" y="560" name="_top"/>
  <outline>
    <contour>
      <point x="192" y="791" type="line"/>
      <point x="91" y="630" type="line"/>
      <point x="109" y="618" type="line"/>
      <point x="221" y="772" type="line"/>
    </contour>
  </outline>
</glyph>
<glyph name="acutecomb.case" format="2">
  <anchor x="127" y="682" name="_top"/>
  <anchor x="129" y="869" name="top"/>
  <outline>
    <contour>
      <point x="207" y="869" type="line"/>
      <point x="30" y="782" type="line"/>
      <point x="39" y="761" type="line"/>
      <point x="223" y="837" type="line"/>
    </contour>
  </outline>
</glyph>
<glyph name="acutedbl" format="2">
  <advance width="196"/>
  <anchor x="49" y="520" name="_top"/>
  <anchor x="29" y="520" name="_topright"/>
  <outline>
    <contour>
      <point x="130" y="783" type="line"/>
      <point x="30" y="661" type="line"/>
      <point x="47" y="646" type="line"/>
      <point x="154" y="761" type="line"/>
    </contour>
  </outline>
</glyph>
<glyph name="aleutka-cy.sc" format="2">
  <advance width="489"/>
  <anchor x="290" y="560" name="top"/>
  <anchor x="448" y="0" name="bottomright"/>
  <anchor x="244.5" y="0.0" name="bottom"/>
  <outline>
    <contour>
      <point x="226" y="484" type="line"/>
      <point x="451" y="336" type="line"/>
      <point x="465" y="355" type="line"/>
      <point x="240" y="504" type="line"/>
    </contour>
    <component base="ka-cy.sc"/>
  </outline>
</glyph>
<glyph name="be-cy.sc" format="2">
  <advance width="512"/>
  <anchor x="256" y="0" name="bottom"/>
  <anchor x="256" y="560" name="top"/>
  <outline>
    <contour>
      <point x="150" y="550" type="line"/>
      <point x="120" y="560" type="line"/>
      <point x="120" y="0" type="line"/>
      <point x="256" y="0" type="line" smooth="yes"/>
      <point x="373" y="0"/>
      <point x="457" y="52"/>
      <point x="457" y="174" type="curve" smooth="yes"/>
      <point x="457" y="283"/>
      <point x="381" y="336"/>
      <point x="256" y="336" type="curve" smooth="yes"/>
      <point x="143" y="336" type="line"/>
      <point x="143" y="308" type="line"/>
      <point x="259" y="308" type="line" smooth="yes"/>
      <point x="363" y="308"/>
      <point x="426" y="267"/>
      <point x="426" y="174" type="curve" smooth="yes"/>
      <point x="426" y="70"/>
      <point x="361" y="28"/>
      <point x="264" y="28" type="curve" smooth="yes"/>
      <point x="150" y="28" type="line"/>
    </contour>
    <contour>
      <point x="402" y="560" type="line"/>
      <point x="120" y="560" type="line"/>
      <point x="139" y="532" type="line"/>
      <point x="396" y="532" type="line"/>
    </contour>
  </outline>
</glyph>
<glyph name="brevecomb.case" format="2">
  <anchor x="143" y="682" name="_top"/>
  <anchor x="145" y="857" name="top"/>
  <outline>
    <contour>
      <point x="143" y="770" type="curve"/>
      <point x="203" y="770"/>
      <point x="247" y="808"/>
      <point x="256" y="852" type="curve"/>
      <point x="234" y="857" type="line"/>
      <point x="222" y="823"/>
      <point x="190" y="799"/>
      <point x="143" y="799" type="curve"/>
      <point x="96" y="799"/>
      <point x="64" y="823"/>
      <point x="52" y="857" type="curve"/>
      <point x="30" y="852" type="line"/>
      <point x="39" y="808"/>
      <point x="83" y="770"/>
    </contour>
  </outline>
</glyph>
<glyph name="bstroke.sc" format="2">
  <advance width="536"/>
  <anchor x="268" y="0" name="bottom"/>
  <anchor x="268" y="560" name="top"/>
  <outline>
    <contour>
      <point x="312" y="173" type="line"/>
      <point x="119" y="173" type="line"/>
      <point x="65" y="173" type="line"/>
      <point x="65" y="147" type="line"/>
      <point x="312" y="147" type="line"/>
    </contour>
    <contour>
      <point x="244" y="560" type="curve" smooth="yes"/>
      <point x="119" y="560" type="line"/>
      <point x="119" y="0" type="line"/>
      <point x="281" y="0" type="line" smooth="yes"/>
      <point x="406" y="0"/>
      <point x="476" y="58"/>
      <point x="476" y="152" type="curve" smooth="yes"/>
      <point x="476" y="249"/>
      <point x="412" y="292"/>
      <point x="346" y="297" type="curve"/>
      <point x="407" y="311"/>
      <point x="447" y="347"/>
      <point x="447" y="421" type="curve" smooth="yes"/>
      <point x="447" y="514"/>
      <point x="372" y="560"/>
    </contour>
    <contour>
      <point x="248" y="532" type="line" smooth="yes"/>
      <point x="355" y="532"/>
      <point x="416" y="498"/>
      <point x="416" y="420" type="curve" smooth="yes"/>
      <point x="416" y="349"/>
      <point x="366" y="309"/>
      <point x="291" y="309" type="curve" smooth="yes"/>
      <point x="142" y="309" type="line"/>
      <point x="142" y="282" type="line"/>
      <point x="296" y="282" type="line" smooth="yes"/>
      <point x="383" y="282"/>
      <point x="445" y="242"/>
      <point x="445" y="152" type="curve" smooth="yes"/>
      <point x="445" y="72"/>
      <point x="385" y="28"/>
      <point x="282" y="28" type="curve" smooth="yes"/>
      <point x="149" y="28" type="line"/>
      <point x="149" y="532" type="line"/>
    </contour>
  </outline>
</glyph>
<glyph name="caron.alt" format="2">
  <advance width="180"/>
  <anchor x="23" y="682" name="_topright"/>
  <outline>
    <contour>
      <point x="82" y="685" type="line"/>
      <point x="64" y="537" type="line"/>
      <point x="85" y="534" type="line"/>
      <point x="115" y="681" type="line"/>
    </contour>
  </outline>
</glyph>
<glyph name="cheverticalstroke-cy.sc" format="2">
  <advance width="516"/>
  <anchor x="229" y="560" name="top"/>
  <anchor x="358" y="0" name="bottomleft"/>
  <anchor x="408" y="0" name="bottomright"/>
  <anchor x="263.5" y="0.0" name="bottom"/>
  <outline>
    <contour>
      <point x="233" y="417" type="line"/>
      <point x="208" y="417" type="line"/>
      <point x="208" y="100" type="line"/>
      <point x="233" y="100" type="line"/>
    </contour>
    <component base="che-cy.sc"/>
  </outline>
</glyph>
<glyph name="circumflexcomb.case" format="2">
  <anchor x="163" y="682" name="_top"/>
  <anchor x="162" y="877" name="top"/>
  <anchor x="77" y="730" name="topleft"/>
  <anchor x="247" y="730" name="topright"/>
  <outline>
    <contour>
      <point x="280" y="765" type="line"/>
      <point x="295" y="783" type="line"/>
      <point x="171" y="877" type="line"/>
      <point x="155" y="877" type="line"/>
      <point x="30" y="783" type="line"/>
      <point x="45" y="765" type="line"/>
      <point x="163" y="844" type="line"/>
    </contour>
  </outline>
</glyph>
<glyph name="cstroke.sc" format="2">
  <advance width="484"/>
  <anchor x="311" y="560" name="top"/>
  <anchor x="306" y="0" name="bottom"/>
  <outline>
    <contour>
      <point x="356" y="607" type="line"/>
      <point x="174" y="-51" type="line"/>
      <point x="194" y="-56" type="line"/>
      <point x="375" y="602" type="line"/>
    </contour>
    <component base="c.sc"/>
  </outline>
</glyph>
<glyph name="d.sc" format="2">
  <advance width="568"/>
  <anchor x="289" y="0" name="bottom"/>
  <anchor x="292" y="280" name="center"/>
  <anchor x="275" y="560" name="top"/>
  <outline>
    <contour>
      <point x="235" y="560" type="curve" smooth="yes"/>
      <point x="120" y="560" type="line"/>
      <point x="120" y="0" type="line"/>
      <point x="237" y="0" type="line" smooth="yes"/>
      <point x="352" y="0"/>
      <point x="493" y="49"/>
      <point x="493" y="285" type="curve" smooth="yes"/>
      <point x="493" y="514"/>
      <point x="361" y="560"/>
    </contour>
    <contour>
      <point x="232" y="532" type="line" smooth="yes"/>
      <point x="341" y="532"/>
      <point x="462" y="502"/>
      <point x="462" y="285" type="curve" smooth="yes"/>
      <point x="462" y="74"/>
      <point x="346" y="28"/>
      <point x="238" y="28" type="curve" smooth="yes"/>
      <point x="150" y="28" type="line"/>
      <point x="150" y="532" type="line"/>
    </contour>
  </outline>
</glyph>
<glyph name="dasia.case" format="2">
  <advance width="59"/>
  <anchor x="122" y="682" name="_topleft"/>
  <anchor x="72" y="687" name="top"/>
  <outline>
    <contour>
      <point x="63" y="687" type="curve" smooth="yes"/>
      <point x="41" y="687"/>
      <point x="30" y="673"/>
      <point x="30" y="656" type="curve" smooth="yes"/>
      <point x="30" y="640"/>
      <point x="35" y="630"/>
      <point x="49" y="599" type="curve" smooth="yes"/>
      <point x="88" y="513" type="line"/>
      <point x="109" y="513" type="line"/>
      <point x="75" y="626" type="line"/>
      <point x="88" y="631"/>
      <point x="95" y="640"/>
      <point x="95" y="656" type="curve" smooth="yes"/>
      <point x="95" y="673"/>
      <point x="82" y="687"/>
    </contour>
  </outline>
</glyph>
<glyph name="dasiaperispomeni.case" format="2">
  <advance width="162"/>
  <anchor x="207" y="682" name="_topleft"/>
  <anchor x="88" y="689" name="top"/>
  <outline>
    <contour>
      <point x="118" y="454" type="line"/>
      <point x="95" y="531" type="line"/>
      <point x="111" y="536"/>
      <point x="118" y="545"/>
      <point x="118" y="561" type="curve" smooth="yes"/>
      <point x="118" y="578"/>
      <point x="105" y="592"/>
      <point x="86" y="592" type="curve" smooth="yes"/>
      <point x="64" y="592"/>
      <point x="53" y="578"/>
      <point x="53" y="561" type="curve" smooth="yes"/>
      <point x="53" y="545"/>
      <point x="58" y="535"/>
      <point x="72" y="504" type="curve" smooth="yes"/>
      <point x="95" y="454" type="line"/>
    </contour>
    <component base="perispomeni" xOffset="-81" yOffset="-56"/>
  </outline>
</glyph>
<glyph name="de-cy.sc" format="2">
  <advance width="535"/>
  <anchor x="267.5" y="-193" name="bottom"/>
  <anchor x="267.5" y="560" name="top"/>
  <outline>
    <contour>
      <point x="35" y="26" type="curve"/>
      <point x="65" y="25" type="line"/>
      <point x="101" y="61"/>
      <point x="127" y="100"/>
      <point x="156" y="310" type="curve" smooth="yes"/>
      <point x="186" y="532" type="line"/>
      <point x="385" y="532" type="line"/>
      <point x="385" y="28" type="line"/>
      <point x="37" y="28" type="line"/>
      <point x="37" y="0" type="line"/>
      <point x="415" y="0" type="line"/>
      <point x="415" y="560" type="line"/>
      <point x="158" y="560" type="line"/>
      <point x="126" y="319" type="line" smooth="yes"/>
      <point x="97" y="98"/>
      <point x="69" y="60"/>
    </contour>
    <component base="descStraight-cy" xOffset="368"/>
    <component base="descStraight-cy" xScale="-1" xOffset="89"/>
  </outline>
</glyph>
<glyph name="descRound-cy" format="2">
  <advance width="232"/>
  <anchor x="126" y="0" name="_bottom"/>
  <outline>
    <contour>
      <point x="91" y="16" type="curve"/>
      <point x="81" y="0" type="line"/>
      <point x="131" y="-31"/>
      <point x="171" y="-62"/>
      <point x="171" y="-125" type="curve" smooth="yes"/>
      <point x="171" y="-167"/>
      <point x="143" y="-191"/>
      <point x="105" y="-191" type="curve" smooth="yes"/>
      <point x="77" y="-191"/>
      <point x="59" y="-185"/>
      <point x="42" y="-176" type="curve"/>
      <point x="30" y="-201" type="line"/>
      <point x="46" y="-211"/>
      <point x="74" y="-219"/>
      <point x="102" y="-219" type="curve" smooth="yes"/>
      <point x="168" y="-219"/>
      <point x="202" y="-180"/>
      <point x="202" y="-124" type="curve" smooth="yes"/>
      <point x="202" y="-51"/>
      <point x="154" y="-15"/>
    </contour>
  </outline>
</glyph>
<glyph name="descStraight-cy" format="2">
  <advance width="179"/>
  <anchor x="78" y="0" name="_bottom"/>
  <anchor x="54" y="0" name="_bottomleft"/>
  <anchor x="44" y="0" name="_bottomright"/>
  <outline>
    <contour>
      <point x="94" y="28" type="line"/>
      <point x="19" y="28" type="line"/>
      <point x="34" y="0" type="line"/>
      <point x="61" y="0" type="line"/>
      <point x="72" y="-141" type="line"/>
      <point x="94" y="-141" type="line"/>
    </contour>
  </outline>
</glyph>
<glyph name="descTail-cy.case" format="2">
  <advance width="179"/>
  <anchor x="78" y="0" name="_bottom"/>
  <anchor x="1" y="0" name="_bottomleft"/>
  <anchor x="41" y="0" name="_bottomright"/>
  <outline>
    <contour>
      <point x="97" y="29" type="line"/>
      <point x="16" y="29" type="line"/>
      <point x="31" y="0" type="line"/>
      <point x="61" y="0" type="line"/>
      <point x="32" y="-141" type="line"/>
      <point x="54" y="-141" type="line"/>
    </contour>
  </outline>
</glyph>
<glyph name="dieresisacutecomb.case" format="2">
  <anchor x="142" y="682" name="_top"/>
  <outline>
    <contour>
      <point x="55" y="792" type="curve" smooth="yes"/>
      <point x="40" y="792"/>
      <point x="30" y="781"/>
      <point x="30" y="767" type="curve" smooth="yes"/>
      <point x="30" y="753"/>
      <point x="40" y="742"/>
      <point x="55" y="742" type="curve" smooth="yes"/>
      <point x="71" y="742"/>
      <point x="81" y="753"/>
      <point x="81" y="767" type="curve" smooth="yes"/>
      <point x="81" y="781"/>
      <point x="71" y="792"/>
    </contour>
    <contour>
      <point x="228" y="792" type="curve" smooth="yes"/>
      <point x="212" y="792"/>
      <point x="202" y="781"/>
      <point x="202" y="767" type="curve" smooth="yes"/>
      <point x="202" y="753"/>
      <point x="212" y="742"/>
      <point x="228" y="742" type="curve" smooth="yes"/>
      <point x="243" y="742"/>
      <point x="253" y="753"/>
      <point x="253" y="767" type="curve" smooth="yes"/>
      <point x="253" y="781"/>
      <point x="243" y="792"/>
    </contour>
    <component base="acutedbl" xOffset="87" yOffset="152"/>
  </outline>
</glyph>
<glyph name="dieresisacutecomb" format="2">
  <advance width="283"/>
  <anchor x="142" y="520" name="_top"/>
  <outline>
    <contour>
      <point x="55" y="690" type="curve" smooth="yes"/>
      <point x="40" y="690"/>
      <point x="30" y="679"/>
      <point x="30" y="665" type="curve" smooth="yes"/>
      <point x="30" y="651"/>
      <point x="40" y="640"/>
      <point x="55" y="640" type="curve" smooth="yes"/>
      <point x="71" y="640"/>
      <point x="81" y="651"/>
      <point x="81" y="665" type="curve" smooth="yes"/>
      <point x="81" y="679"/>
      <point x="71" y="690"/>
    </contour>
    <contour>
      <point x="228" y="690" type="curve" smooth="yes"/>
      <point x="212" y="690"/>
      <point x="202" y="679"/>
      <point x="202" y="665" type="curve" smooth="yes"/>
      <point x="202" y="651"/>
      <point x="212" y="640"/>
      <point x="228" y="640" type="curve" smooth="yes"/>
      <point x="243" y="640"/>
      <point x="253" y="651"/>
      <point x="253" y="665" type="curve" smooth="yes"/>
      <point x="253" y="679"/>
      <point x="243" y="690"/>
    </contour>
    <component base="acutedbl" xOffset="87" yOffset="50"/>
  </outline>
</glyph>
<glyph name="dieresiscaroncomb" format="2">
  <advance width="325"/>
  <anchor x="166" y="520" name="_top"/>
  <outline>
    <contour>
      <point x="252" y="690" type="curve" smooth="yes"/>
      <point x="236" y="690"/>
      <point x="226" y="679"/>
      <point x="226" y="665" type="curve" smooth="yes"/>
      <point x="226" y="651"/>
      <point x="236" y="640"/>
      <point x="252" y="640" type="curve" smooth="yes"/>
      <point x="267" y="640"/>
      <point x="277" y="651"/>
      <point x="277" y="665" type="curve" smooth="yes"/>
      <point x="277" y="679"/>
      <point x="267" y="690"/>
    </contour>
    <contour>
      <point x="79" y="690" type="curve" smooth="yes"/>
      <point x="64" y="690"/>
      <point x="54" y="679"/>
      <point x="54" y="665" type="curve" smooth="yes"/>
      <point x="54" y="651"/>
      <point x="64" y="640"/>
      <point x="79" y="640" type="curve" smooth="yes"/>
      <point x="95" y="640"/>
      <point x="105" y="651"/>
      <point x="105" y="665" type="curve" smooth="yes"/>
      <point x="105" y="679"/>
      <point x="95" y="690"/>
    </contour>
    <component base="caroncomb.case" yOffset="-60"/>
  </outline>
</glyph>
<glyph name="dieresisgravecomb.case" format="2">
  <advance width="283"/>
  <anchor x="142" y="682" name="_top"/>
  <outline>
    <contour>
      <point x="228" y="792" type="curve" smooth="yes"/>
      <point x="212" y="792"/>
      <point x="202" y="781"/>
      <point x="202" y="767" type="curve" smooth="yes"/>
      <point x="202" y="753"/>
      <point x="212" y="742"/>
      <point x="228" y="742" type="curve" smooth="yes"/>
      <point x="243" y="742"/>
      <point x="253" y="753"/>
      <point x="253" y="767" type="curve" smooth="yes"/>
      <point x="253" y="781"/>
      <point x="243" y="792"/>
    </contour>
    <contour>
      <point x="55" y="792" type="curve" smooth="yes"/>
      <point x="40" y="792"/>
      <point x="30" y="781"/>
      <point x="30" y="767" type="curve" smooth="yes"/>
      <point x="30" y="753"/>
      <point x="40" y="742"/>
      <point x="55" y="742" type="curve" smooth="yes"/>
      <point x="71" y="742"/>
      <point x="81" y="753"/>
      <point x="81" y="767" type="curve" smooth="yes"/>
      <point x="81" y="781"/>
      <point x="71" y="792"/>
    </contour>
    <component base="gravedbl" xOffset="7" yOffset="152"/>
  </outline>
</glyph>
<glyph name="digamma.sc" format="2">
  <advance width="437"/>
  <anchor x="267" y="560" name="top"/>
  <anchor x="158" y="0" name="bottomright"/>
  <anchor x="135" y="0" name="bottom"/>
  <outline>
    <contour>
      <point x="361" y="259" type="curve"/>
      <point x="372" y="284" type="line"/>
      <point x="348" y="296"/>
      <point x="325" y="303"/>
      <point x="293" y="303" type="curve" smooth="yes"/>
      <point x="134" y="303" type="line"/>
      <point x="134" y="274" type="line"/>
      <point x="291" y="274" type="line" smooth="yes"/>
      <point x="319" y="274"/>
      <point x="339" y="268"/>
    </contour>
    <component base="gamma.sc"/>
  </outline>
</glyph>
<glyph name="enmiddlehook-cy.sc" format="2">
  <advance width="870"/>
  <anchor x="435" y="-193" name="bottom"/>
  <anchor x="435" y="560" name="top"/>
  <anchor x="302" y="280" name="center"/>
  <anchor x="496" y="0" name="bottomright"/>
  <outline>
    <contour>
      <point x="658" y="360" type="curve" smooth="yes"/>
      <point x="580" y="360"/>
      <point x="525" y="327"/>
      <point x="482" y="280" type="curve"/>
      <point x="482" y="245" type="line"/>
      <point x="531" y="304"/>
      <point x="586" y="332"/>
      <point x="657" y="332" type="curve" smooth="yes"/>
      <point x="745" y="332"/>
      <point x="785" y="282"/>
      <point x="785" y="207" type="curve" smooth="yes"/>
      <point x="785" y="0" type="line"/>
      <point x="815" y="0" type="line"/>
      <point x="815" y="209" type="line" smooth="yes"/>
      <point x="815" y="302"/>
      <point x="759" y="360"/>
    </contour>
    <component base="h.sc"/>
    <component base="hookHELPER" xOffset="581"/>
  </outline>
</glyph>
<glyph name="four.osf" format="2">
  <advance width="457"/>
  <outline>
    <contour>
      <point x="234" y="567" type="line"/>
      <point x="30" y="77" type="line"/>
      <point x="30" y="52" type="line"/>
      <point x="457" y="52" type="line"/>
      <point x="457" y="80" type="line"/>
      <point x="62" y="80" type="line"/>
      <point x="260" y="556" type="line"/>
    </contour>
    <contour>
      <point x="365" y="287" type="line"/>
      <point x="339" y="287" type="line"/>
      <point x="335" y="73" type="line"/>
      <point x="335" y="-102" type="line"/>
      <point x="365" y="-102" type="line"/>
    </contour>
  </outline>
</glyph>
<glyph name="ge-cy.sc" format="2">
  <advance width="417"/>
  <anchor x="135" y="0" name="bottom"/>
  <anchor x="158" y="0" name="bottomright"/>
  <anchor x="267" y="560" name="top"/>
  <outline>
    <contour>
      <point x="120" y="560" type="line"/>
      <point x="120" y="0" type="line"/>
      <point x="150" y="0" type="line"/>
      <point x="150" y="541" type="line"/>
    </contour>
    <contour>
      <point x="407" y="560" type="line"/>
      <point x="120" y="560" type="line"/>
      <point x="139" y="532" type="line"/>
      <point x="402" y="532" type="line"/>
    </contour>
  </outline>
</glyph>
<glyph name="gestrokehook-cy.sc" format="2">
  <advance width="399"/>
  <anchor x="249" y="560" name="top"/>
  <anchor x="140" y="0" name="bottomright"/>
  <anchor x="117" y="0" name="bottom"/>
  <outline>
    <contour>
      <point x="131" y="28" type="line"/>
      <point x="131" y="0" type="line"/>
      <point x="193" y="0" type="line"/>
      <point x="193" y="28" type="line"/>
    </contour>
    <component base="ghestroke-cy.sc"/>
    <component base="hookHELPER" xOffset="-41"/>
  </outline>
</glyph>
<glyph name="ghestroke-cy.sc" format="2">
  <advance width="399"/>
  <anchor x="249" y="560" name="top"/>
  <anchor x="140" y="0" name="bottomright"/>
  <anchor x="117" y="0" name="bottom"/>
  <outline>
    <contour>
      <point x="305" y="327" type="line"/>
      <point x="104" y="327" type="line"/>
      <point x="25" y="327" type="line"/>
      <point x="25" y="300" type="line"/>
      <point x="305" y="300" type="line"/>
    </contour>
    <component base="ge-cy.sc" xOffset="-18"/>
  </outline>
</glyph>
<glyph name="gheupturn-cy.sc" format="2">
  <advance width="417"/>
  <anchor x="267" y="560" name="top"/>
  <anchor x="158" y="0" name="bottomright"/>
  <anchor x="135" y="0" name="bottom"/>
  <outline>
    <contour>
      <point x="379" y="550" type="line"/>
      <point x="407" y="560" type="line"/>
      <point x="407" y="667" type="line"/>
      <point x="379" y="667" type="line"/>
    </contour>
    <component base="ge-cy.sc"/>
  </outline>
</glyph>
<glyph name="grave.case" format="2">
  <advance width="253"/>
  <outline>
    <contour>
      <point x="46" y="869" type="line"/>
      <point x="30" y="837" type="line"/>
      <point x="214" y="761" type="line"/>
      <point x="223" y="782" type="line"/>
    </contour>
  </outline>
</glyph>
<glyph name="gravecomb.case" format="2">
  <anchor x="127" y="682" name="_top"/>
  <anchor x="129" y="869" name="top"/>
  <outline>
    <contour>
      <point x="46" y="869" type="line"/>
      <point x="30" y="837" type="line"/>
      <point x="214" y="761" type="line"/>
      <point x="223" y="782" type="line"/>
    </contour>
  </outline>
</glyph>
<glyph name="gravedbl" format="2">
  <advance width="196"/>
  <anchor x="138" y="520" name="_top"/>
  <anchor x="158" y="520" name="_topleft"/>
  <outline>
    <contour>
      <point x="66" y="783" type="line"/>
      <point x="42" y="761" type="line"/>
      <point x="149" y="646" type="line"/>
      <point x="166" y="661" type="line"/>
    </contour>
  </outline>
</glyph>
<glyph name="h.sc" format="2">
  <advance width="608"/>
  <anchor x="304" y="0" name="bottom"/>
  <anchor x="496" y="0" name="bottomright"/>
  <anchor x="302" y="280" name="center"/>
  <anchor x="302" y="560" name="top"/>
  <outline>
    <contour>
      <point x="488" y="560" type="line"/>
      <point x="458" y="560" type="line"/>
      <point x="458" y="309" type="line"/>
      <point x="150" y="309" type="line"/>
      <point x="150" y="560" type="line"/>
      <point x="120" y="560" type="line"/>
      <point x="120" y="0" type="line"/>
      <point x="150" y="0" type="line"/>
      <point x="150" y="281" type="line"/>
      <point x="458" y="281" type="line"/>
      <point x="458" y="0" type="line"/>
      <point x="488" y="0" type="line"/>
    </contour>
  </outline>
</glyph>
<glyph name="hbar.sc" format="2">
  <advance width="598"/>
  <anchor x="297" y="560" name="top"/>
  <anchor x="297" y="280" name="center"/>
  <anchor x="491" y="0" name="bottomright"/>
  <anchor x="299" y="0" name="bottom"/>
  <outline>
    <contour>
      <point x="541" y="451" type="line"/>
      <point x="483" y="451" type="line"/>
      <point x="57" y="451" type="line"/>
      <point x="57" y="427" type="line"/>
      <point x="115" y="427" type="line"/>
      <point x="541" y="427" type="line"/>
    </contour>
    <component base="h.sc" xOffset="-5"/>
  </outline>
</glyph>
<glyph name="hookabovecomb.case" format="2">
  <anchor x="98" y="682" name="_top"/>
  <anchor x="71" y="676" name="_topright"/>
  <anchor x="107" y="968" name="top"/>
  <outline>
    <contour>
      <point x="81" y="783" type="line"/>
      <point x="111" y="783" type="line"/>
      <point x="111" y="828" type="line"/>
      <point x="156" y="833"/>
      <point x="181" y="856"/>
      <point x="181" y="898" type="curve" smooth="yes"/>
      <point x="181" y="940"/>
      <point x="150" y="968"/>
      <point x="101" y="968" type="curve" smooth="yes"/>
      <point x="72" y="968"/>
      <point x="51" y="961"/>
      <point x="30" y="949" type="curve"/>
      <point x="41" y="927" type="line"/>
      <point x="59" y="936"/>
      <point x="75" y="941"/>
      <point x="99" y="941" type="curve" smooth="yes"/>
      <point x="131" y="941"/>
      <point x="149" y="925"/>
      <point x="149" y="897" type="curve" smooth="yes"/>
      <point x="149" y="860"/>
      <point x="119" y="848"/>
      <point x="81" y="847" type="curve"/>
    </contour>
  </outline>
</glyph>
<glyph name="j.sc" format="2">
  <advance width="262"/>
  <anchor x="131" y="-193" name="bottom"/>
  <anchor x="133" y="560" name="top"/>
  <outline>
    <contour>
      <point x="148" y="560" type="line"/>
      <point x="118" y="560" type="line"/>
      <point x="118" y="75" type="line" smooth="yes"/>
      <point x="118" y="-2"/>
      <point x="98" y="-28"/>
      <point x="20" y="-65" type="curve"/>
      <point x="29" y="-87" type="line"/>
      <point x="127" y="-45"/>
      <point x="148" y="-14"/>
      <point x="148" y="73" type="curve" smooth="yes"/>
    </contour>
  </outline>
</glyph>
<glyph name="k.sc" format="2">
  <advance width="464"/>
  <anchor x="279" y="0" name="bottom"/>
  <anchor x="269" y="560" name="top"/>
  <outline>
    <contour>
      <point x="450" y="560" type="line"/>
      <point x="415" y="560" type="line"/>
      <point x="152" y="301" type="line"/>
      <point x="427" y="0" type="line"/>
      <point x="464" y="0" type="line"/>
      <point x="191" y="301" type="line"/>
    </contour>
    <contour>
      <point x="150" y="560" type="line"/>
      <point x="120" y="560" type="line"/>
      <point x="120" y="0" type="line"/>
      <point x="150" y="0" type="line"/>
    </contour>
  </outline>
</glyph>
<glyph name="ka-cy.sc" format="2">
  <advance width="489"/>
  <anchor x="244.5" y="0" name="bottom"/>
  <anchor x="448" y="0" name="bottomright"/>
  <anchor x="290" y="560" name="top"/>
  <outline>
    <contour>
      <point x="462" y="560" type="line"/>
      <point x="428" y="560" type="line"/>
      <point x="254" y="309" type="line"/>
      <point x="151" y="309" type="line"/>
      <point x="151" y="560" type="line"/>
      <point x="120" y="560" type="line"/>
      <point x="120" y="0" type="line"/>
      <point x="151" y="0" type="line"/>
      <point x="151" y="281" type="line"/>
      <point x="253" y="281" type="line"/>
      <point x="438" y="0" type="line"/>
      <point x="474" y="0" type="line"/>
      <point x="280" y="296" type="line"/>
    </contour>
  </outline>
</glyph>
<glyph name="kabashkir-cy.sc" format="2">
  <advance width="512"/>
  <anchor x="313" y="560" name="top"/>
  <anchor x="471" y="0" name="bottomright"/>
  <anchor x="267.5" y="0.0" name="bottom"/>
  <outline>
    <contour>
      <point x="143" y="532" type="line"/>
      <point x="173" y="560" type="line"/>
      <point x="0" y="560" type="line"/>
      <point x="0" y="532" type="line"/>
    </contour>
    <component base="ka-cy.sc" xOffset="23"/>
  </outline>
</glyph>
<glyph name="kaiSymbol.sc" format="2">
  <advance width="497"/>
  <anchor x="248.5" y="-193" name="bottom"/>
  <anchor x="269" y="560" name="top"/>
  <outline>
    <contour>
      <point x="428" y="28" type="line"/>
      <point x="428" y="0" type="line"/>
      <point x="487" y="0" type="line"/>
      <point x="487" y="28" type="line"/>
    </contour>
    <component base="k.sc"/>
    <component base="hookHELPER" xOffset="253"/>
  </outline>
</glyph>
<glyph name="kaverticalstroke-cy.sc" format="2">
  <advance width="487"/>
  <anchor x="243.5" y="0" name="bottom"/>
  <anchor x="243.5" y="560" name="top"/>
  <outline>
    <contour>
      <point x="460" y="560" type="line"/>
      <point x="427" y="560" type="line"/>
      <point x="253" y="309" type="line"/>
      <point x="150" y="309" type="line"/>
      <point x="150" y="560" type="line"/>
      <point x="120" y="560" type="line"/>
      <point x="120" y="0" type="line"/>
      <point x="150" y="0" type="line"/>
      <point x="150" y="282" type="line"/>
      <point x="252" y="282" type="line"/>
      <point x="438" y="0" type="line"/>
      <point x="472" y="0" type="line"/>
      <point x="278" y="296" type="line"/>
    </contour>
    <contour>
      <point x="227" y="462" type="line"/>
      <point x="200" y="462" type="line"/>
      <point x="200" y="129" type="line"/>
      <point x="227" y="129" type="line"/>
    </contour>
  </outline>
</glyph>
<glyph name="koppaArchaic.sc" format="2">
  <advance width="620"/>
  <anchor x="310" y="-193" name="bottom"/>
  <anchor x="107" y="560" name="topleft"/>
  <anchor x="309" y="560" name="top"/>
  <anchor x="379" y="0" name="ogonek"/>
  <anchor x="492" y="560" name="topright"/>
  <outline>
    <contour>
      <point x="295" y="-193" type="line"/>
      <point x="325" y="-193" type="line"/>
      <point x="325" y="-2" type="line"/>
      <point x="295" y="-2" type="line"/>
    </contour>
    <component base="o.sc"/>
  </outline>
</glyph>
<glyph name="l.sc" format="2">
  <advance width="420"/>
  <anchor x="261" y="0" name="bottom"/>
  <anchor x="334" y="316" name="center"/>
  <anchor x="135" y="560" name="top"/>
  <anchor x="180" y="560" name="topright"/>
  <outline>
    <contour>
      <point x="150" y="560" type="line"/>
      <point x="120" y="560" type="line"/>
      <point x="120" y="0" type="line"/>
      <point x="394" y="0" type="line"/>
      <point x="400" y="29" type="line"/>
      <point x="150" y="29" type="line"/>
    </contour>
  </outline>
</glyph>
<glyph name="lambda.sc" format="2">
  <advance width="507"/>
  <anchor x="253.5" y="0" name="bottom"/>
  <anchor x="253.5" y="560" name="top"/>
  <outline>
    <contour>
      <point x="280" y="560" type="line"/>
      <point x="244" y="560" type="line"/>
      <point x="40" y="0" type="line"/>
      <point x="70" y="0" type="line"/>
      <point x="262" y="535" type="line"/>
      <point x="450" y="0" type="line"/>
      <point x="482" y="0" type="line"/>
    </contour>
  </outline>
</glyph>
<glyph name="lha-cy.sc" format="2">
  <advance width="688"/>
  <anchor x="344" y="0" name="bottom"/>
  <anchor x="344" y="560" name="top"/>
  <anchor x="651" y="0" name="bottomright"/>
  <outline>
    <contour>
      <point x="153" y="560" type="line"/>
      <point x="168" y="533" type="line"/>
      <point x="320" y="533" type="line"/>
      <point x="320" y="560" type="line"/>
    </contour>
    <contour>
      <point x="181" y="536" type="line"/>
      <point x="153" y="560" type="line"/>
      <point x="125" y="287" type="line" smooth="yes"/>
      <point x="103" y="71"/>
      <point x="94" y="41"/>
      <point x="41" y="19" type="curve"/>
      <point x="50" y="-6" type="line"/>
      <point x="124" y="24"/>
      <point x="131" y="58"/>
      <point x="155" y="285" type="curve" smooth="yes"/>
    </contour>
    <component base="x.sc" xOffset="257"/>
  </outline>
</glyph>
<glyph name="lslash.sc" format="2">
  <advance width="418"/>
  <anchor x="133" y="560" name="top"/>
  <anchor x="332" y="316" name="center"/>
  <anchor x="178" y="560" name="topright"/>
  <anchor x="259" y="0" name="bottom"/>
  <outline>
    <contour>
      <point x="326" y="384" type="line"/>
      <point x="118" y="253" type="line"/>
      <point x="42" y="206" type="line"/>
      <point x="55" y="185" type="line"/>
      <point x="339" y="363" type="line"/>
    </contour>
    <component base="l.sc" xOffset="-2"/>
  </outline>
</glyph>
<glyph name="n.sc" format="2">
  <advance width="610"/>
  <anchor x="305" y="0" name="bottom"/>
  <anchor x="305" y="560" name="top"/>
  <outline>
    <contour>
      <point x="490" y="560" type="line"/>
      <point x="461" y="560" type="line"/>
      <point x="461" y="205" type="line"/>
      <point x="461" y="122"/>
      <point x="463" y="64"/>
      <point x="465" y="29" type="curve"/>
      <point x="159" y="560" type="line"/>
      <point x="120" y="560" type="line"/>
      <point x="120" y="0" type="line"/>
      <point x="149" y="0" type="line"/>
      <point x="149" y="338" type="line"/>
      <point x="149" y="447"/>
      <point x="148" y="491"/>
      <point x="145" y="531" type="curve"/>
      <point x="450" y="0" type="line"/>
      <point x="490" y="0" type="line"/>
    </contour>
  </outline>
</glyph>
<glyph name="nje-cy.sc" format="2">
  <advance width="823"/>
  <anchor x="411.5" y="0" name="bottom"/>
  <anchor x="411.5" y="560" name="top"/>
  <outline>
    <contour>
      <point x="150" y="560" type="line"/>
      <point x="120" y="560" type="line"/>
      <point x="120" y="0" type="line"/>
      <point x="150" y="0" type="line"/>
      <point x="150" y="288" type="line"/>
      <point x="460" y="288" type="line"/>
      <point x="460" y="316" type="line"/>
      <point x="150" y="316" type="line"/>
    </contour>
    <contour>
      <point x="481" y="560" type="line"/>
      <point x="451" y="560" type="line"/>
      <point x="451" y="0" type="line"/>
      <point x="585" y="0" type="line" smooth="yes"/>
      <point x="695" y="0"/>
      <point x="778" y="49"/>
      <point x="778" y="162" type="curve" smooth="yes"/>
      <point x="778" y="267"/>
      <point x="700" y="316"/>
      <point x="587" y="316" type="curve" smooth="yes"/>
      <point x="474" y="316" type="line"/>
      <point x="474" y="288" type="line"/>
      <point x="589" y="288" type="line" smooth="yes"/>
      <point x="682" y="288"/>
      <point x="747" y="249"/>
      <point x="747" y="164" type="curve" smooth="yes"/>
      <point x="747" y="69"/>
      <point x="683" y="28"/>
      <point x="593" y="28" type="curve" smooth="yes"/>
      <point x="481" y="28" type="line"/>
    </contour>
  </outline>
</glyph>
<glyph name="numbersign.tf" format="2">
  <advance width="560"/>
  <outline>
    <contour>
      <point x="462" y="682" type="line"/>
      <point x="428" y="682" type="line"/>
      <point x="336" y="0" type="line"/>
      <point x="370" y="0" type="line"/>
    </contour>
    <contour>
      <point x="474" y="222" type="line"/>
      <point x="50" y="222" type="line"/>
      <point x="50" y="194" type="line"/>
      <point x="474" y="194" type="line"/>
    </contour>
    <contour>
      <point x="228" y="682" type="line"/>
      <point x="195" y="682" type="line"/>
      <point x="103" y="0" type="line"/>
      <point x="136" y="0" type="line"/>
    </contour>
    <contour>
      <point x="511" y="494" type="line"/>
      <point x="87" y="494" type="line"/>
      <point x="87" y="466" type="line"/>
      <point x="511" y="466" type="line"/>
    </contour>
  </outline>
</glyph>
<glyph name="o.sc" format="2">
  <advance width="620"/>
  <anchor x="309" y="0" name="bottom"/>
  <anchor x="379" y="0" name="ogonek"/>
  <anchor x="309" y="560" name="top"/>
  <anchor x="107" y="560" name="topleft"/>
  <anchor x="492" y="560" name="topright"/>
  <outline>
    <contour>
      <point x="309" y="568" type="curve" smooth="yes"/>
      <point x="172" y="568"/>
      <point x="75" y="465"/>
      <point x="75" y="278" type="curve" smooth="yes"/>
      <point x="75" y="93"/>
      <point x="171" y="-8"/>
      <point x="309" y="-8" type="curve" smooth="yes"/>
      <point x="453" y="-8"/>
      <point x="545" y="96"/>
      <point x="545" y="279" type="curve" smooth="yes"/>
      <point x="545" y="469"/>
      <point x="450" y="568"/>
    </contour>
    <contour>
      <point x="309" y="540" type="curve"/>
      <point x="432" y="540"/>
      <point x="514" y="455"/>
      <point x="514" y="279" type="curve" smooth="yes"/>
      <point x="514" y="107"/>
      <point x="435" y="20"/>
      <point x="309" y="20" type="curve" smooth="yes"/>
      <point x="190" y="20"/>
      <point x="106" y="107"/>
      <point x="106" y="278" type="curve" smooth="yes"/>
      <point x="106" y="454"/>
      <point x="190" y="540"/>
    </contour>
  </outline>
</glyph>
<glyph name="obarred-cy.sc" format="2">
  <advance width="620"/>
  <anchor x="310" y="0" name="bottom"/>
  <anchor x="310" y="560" name="top"/>
  <outline>
    <contour>
      <point x="309" y="567" type="curve" smooth="yes"/>
      <point x="172" y="567"/>
      <point x="75" y="464"/>
      <point x="75" y="276" type="curve" smooth="yes"/>
      <point x="75" y="93"/>
      <point x="171" y="-8"/>
      <point x="309" y="-8" type="curve" smooth="yes"/>
      <point x="454" y="-8"/>
      <point x="545" y="97"/>
      <point x="545" y="277" type="curve" smooth="yes"/>
      <point x="545" y="468"/>
      <point x="450" y="567"/>
    </contour>
    <contour>
      <point x="309" y="539" type="curve"/>
      <point x="432" y="539"/>
      <point x="514" y="454"/>
      <point x="514" y="277" type="curve" smooth="yes"/>
      <point x="514" y="107"/>
      <point x="436" y="20"/>
      <point x="309" y="20" type="curve" smooth="yes"/>
      <point x="190" y="20"/>
      <point x="106" y="107"/>
      <point x="106" y="276" type="curve" smooth="yes"/>
      <point x="106" y="453"/>
      <point x="190" y="539"/>
    </contour>
    <contour>
      <point x="533" y="301" type="line"/>
      <point x="97" y="301" type="line"/>
      <point x="97" y="274" type="line"/>
      <point x="533" y="274" type="line"/>
    </contour>
  </outline>
</glyph>
<glyph name="one.osf" format="2">
  <advance width="391"/>
  <outline>
    <contour>
      <point x="271" y="560" type="line"/>
      <point x="247" y="560" type="line"/>
      <point x="45" y="440" type="line"/>
      <point x="60" y="416" type="line"/>
      <point x="241" y="524" type="line"/>
      <point x="241" y="0" type="line"/>
      <point x="271" y="0" type="line"/>
    </contour>
  </outline>
</glyph>
<glyph name="one.tf" format="2">
  <advance width="560"/>
  <outline>
    <contour>
      <point x="326" y="682" type="line"/>
      <point x="302" y="682" type="line"/>
      <point x="110" y="562" type="line"/>
      <point x="125" y="538" type="line"/>
      <point x="296" y="646" type="line"/>
      <point x="296" y="20" type="line"/>
      <point x="326" y="20" type="line"/>
    </contour>
    <contour>
      <point x="483" y="30" type="line"/>
      <point x="131" y="30" type="line"/>
      <point x="131" y="0" type="line"/>
      <point x="483" y="0" type="line"/>
    </contour>
  </outline>
</glyph>
<glyph name="p.sc" format="2">
  <advance width="512"/>
  <anchor x="256" y="0" name="bottom"/>
  <anchor x="256" y="560" name="top"/>
  <outline>
    <contour>
      <point x="247" y="560" type="curve" smooth="yes"/>
      <point x="120" y="560" type="line"/>
      <point x="120" y="0" type="line"/>
      <point x="150" y="0" type="line"/>
      <point x="150" y="532" type="line"/>
      <point x="247" y="532" type="line" smooth="yes"/>
      <point x="361" y="532"/>
      <point x="426" y="498"/>
      <point x="426" y="395" type="curve" smooth="yes"/>
      <point x="426" y="286"/>
      <point x="350" y="254"/>
      <point x="245" y="254" type="curve" smooth="yes"/>
      <point x="143" y="254" type="line"/>
      <point x="143" y="226" type="line"/>
      <point x="242" y="226" type="line" smooth="yes"/>
      <point x="368" y="226"/>
      <point x="457" y="271"/>
      <point x="457" y="396" type="curve" smooth="yes"/>
      <point x="457" y="511"/>
      <point x="380" y="560"/>
    </contour>
  </outline>
</glyph>
<glyph name="parenright.dnom" format="2">
  <advance width="402"/>
  <outline>
    <contour>
      <point x="156" y="502" type="curve"/>
      <point x="135" y="488" type="line"/>
      <point x="188" y="407"/>
      <point x="234" y="337"/>
      <point x="234" y="194" type="curve"/>
      <point x="234" y="51"/>
      <point x="188" y="-19"/>
      <point x="135" y="-100" type="curve"/>
      <point x="156" y="-114" type="line"/>
      <point x="214" y="-31"/>
      <point x="267" y="43"/>
      <point x="267" y="194" type="curve"/>
      <point x="267" y="345"/>
      <point x="214" y="419"/>
    </contour>
  </outline>
</glyph>
<glyph name="pe-cy.sc" format="2">
  <advance width="603"/>
  <anchor x="301.5" y="0" name="bottom"/>
  <anchor x="493" y="0" name="bottomright"/>
  <anchor x="301.5" y="560" name="top"/>
  <outline>
    <contour>
      <point x="483" y="560" type="line"/>
      <point x="120" y="560" type="line"/>
      <point x="120" y="0" type="line"/>
      <point x="150" y="0" type="line"/>
      <point x="150" y="532" type="line"/>
      <point x="453" y="532" type="line"/>
      <point x="453" y="0" type="line"/>
      <point x="483" y="0" type="line"/>
    </contour>
  </outline>
</glyph>
<glyph name="psili.case" format="2">
  <advance width="69"/>
  <anchor x="116" y="682" name="_topleft"/>
  <anchor x="75" y="687" name="top"/>
  <outline>
    <contour>
      <point x="76" y="687" type="curve" smooth="yes"/>
      <point x="57" y="687"/>
      <point x="44" y="673"/>
      <point x="44" y="656" type="curve" smooth="yes"/>
      <point x="44" y="640"/>
      <point x="51" y="631"/>
      <point x="64" y="626" type="curve"/>
      <point x="30" y="513" type="line"/>
      <point x="51" y="513" type="line"/>
      <point x="90" y="599" type="line" smooth="yes"/>
      <point x="104" y="630"/>
      <point x="109" y="640"/>
      <point x="109" y="656" type="curve" smooth="yes"/>
      <point x="109" y="673"/>
      <point x="98" y="687"/>
    </contour>
  </outline>
</glyph>
<glyph name="psilioxia.case" format="2">
  <advance width="164"/>
  <anchor x="227" y="682" name="_topleft"/>
  <anchor x="140" y="686" name="top"/>
  <outline>
    <contour>
      <point x="161" y="510" type="line"/>
      <point x="224" y="671" type="line"/>
      <point x="187" y="685" type="line"/>
      <point x="137" y="518" type="line"/>
    </contour>
    <contour>
      <point x="30" y="512" type="line"/>
      <point x="51" y="512" type="line"/>
      <point x="90" y="598" type="line" smooth="yes"/>
      <point x="104" y="629"/>
      <point x="109" y="639"/>
      <point x="109" y="655" type="curve" smooth="yes"/>
      <point x="109" y="672"/>
      <point x="98" y="686"/>
      <point x="76" y="686" type="curve" smooth="yes"/>
      <point x="57" y="686"/>
      <point x="44" y="672"/>
      <point x="44" y="655" type="curve" smooth="yes"/>
      <point x="44" y="639"/>
      <point x="51" y="630"/>
      <point x="64" y="625" type="curve"/>
    </contour>
  </outline>
</glyph>
<glyph name="radical.tf" format="2">
  <advance width="560"/>
  <outline>
    <contour>
      <point x="661" y="820" type="line"/>
      <point x="494" y="820" type="line"/>
      <point x="272" y="33" type="line"/>
      <point x="106" y="463" type="line"/>
      <point x="78" y="454" type="line"/>
      <point x="256" y="0" type="line"/>
      <point x="290" y="0" type="line"/>
      <point x="516" y="792" type="line"/>
      <point x="661" y="792" type="line"/>
    </contour>
  </outline>
</glyph>
<glyph name="seven.osf" format="2">
  <advance width="434"/>
  <outline>
    <contour>
      <point x="389" y="560" type="line"/>
      <point x="20" y="560" type="line"/>
      <point x="20" y="532" type="line"/>
      <point x="356" y="532" type="line"/>
      <point x="93" y="-103" type="line"/>
      <point x="122" y="-113" type="line"/>
      <point x="389" y="535" type="line"/>
    </contour>
  </outline>
</glyph>
<glyph name="seven.tf" format="2">
  <advance width="560"/>
  <outline>
    <contour>
      <point x="469" y="682" type="line"/>
      <point x="90" y="682" type="line"/>
      <point x="90" y="654" type="line"/>
      <point x="436" y="654" type="line"/>
      <point x="150" y="3" type="line"/>
      <point x="177" y="-8" type="line"/>
      <point x="469" y="657" type="line"/>
    </contour>
  </outline>
</glyph>
<glyph name="sha-cy.sc" format="2">
  <advance width="815"/>
  <anchor x="408" y="0" name="bottom"/>
  <anchor x="705" y="0" name="bottomright"/>
  <anchor x="407.5" y="560" name="top"/>
  <outline>
    <contour>
      <point x="695" y="560" type="line"/>
      <point x="665" y="560" type="line"/>
      <point x="665" y="28" type="line"/>
      <point x="422" y="28" type="line"/>
      <point x="422" y="560" type="line"/>
      <point x="393" y="560" type="line"/>
      <point x="393" y="28" type="line"/>
      <point x="150" y="28" type="line"/>
      <point x="150" y="560" type="line"/>
      <point x="120" y="560" type="line"/>
      <point x="120" y="0" type="line"/>
      <point x="695" y="0" type="line"/>
    </contour>
  </outline>
</glyph>
<glyph name="shha-cy.sc" format="2">
  <advance width="532"/>
  <anchor x="266" y="0" name="bottom"/>
  <anchor x="487" y="0" name="bottomright"/>
  <anchor x="266" y="560" name="top"/>
  <outline>
    <contour>
      <point x="150" y="560" type="line"/>
      <point x="120" y="560" type="line"/>
      <point x="120" y="0" type="line"/>
      <point x="150" y="0" type="line"/>
    </contour>
    <contour>
      <point x="320" y="360" type="curve" smooth="yes"/>
      <point x="242" y="360"/>
      <point x="187" y="327"/>
      <point x="144" y="280" type="curve"/>
      <point x="144" y="245" type="line"/>
      <point x="193" y="304"/>
      <point x="248" y="332"/>
      <point x="319" y="332" type="curve" smooth="yes"/>
      <point x="407" y="332"/>
      <point x="447" y="282"/>
      <point x="447" y="207" type="curve" smooth="yes"/>
      <point x="447" y="0" type="line"/>
      <point x="477" y="0" type="line"/>
      <point x="477" y="209" type="line" smooth="yes"/>
      <point x="477" y="302"/>
      <point x="421" y="360"/>
    </contour>
  </outline>
</glyph>
<glyph name="tbar.sc" format="2">
  <advance width="418"/>
  <anchor x="209" y="560" name="top"/>
  <anchor x="209" y="283" name="center"/>
  <anchor x="234" y="0" name="bottomright"/>
  <anchor x="209" y="0" name="bottom"/>
  <outline>
    <contour>
      <point x="358" y="303" type="line"/>
      <point x="358" y="327" type="line"/>
      <point x="66" y="327" type="line"/>
      <point x="66" y="303" type="line"/>
    </contour>
    <component base="t.sc"/>
  </outline>
</glyph>
<glyph name="tonos.case" format="2">
  <advance width="40"/>
  <anchor x="110" y="682" name="_topleft"/>
  <outline>
    <contour>
      <point x="62" y="690" type="line"/>
      <point x="30" y="555" type="line"/>
      <point x="52" y="551" type="line"/>
      <point x="100" y="682" type="line"/>
    </contour>
  </outline>
</glyph>
<glyph name="tsehelper-cy" format="2">
  <advance width="574"/>
  <anchor x="287" y="0" name="bottom"/>
  <anchor x="469" y="0" name="bottomright"/>
  <outline>
    <contour>
      <point x="429" y="520" type="line"/>
      <point x="429" y="28" type="line"/>
      <point x="145" y="28" type="line"/>
      <point x="145" y="520" type="line"/>
      <point x="115" y="520" type="line"/>
      <point x="115" y="0" type="line"/>
      <point x="459" y="0" type="line"/>
      <point x="459" y="520" type="line"/>
    </contour>
  </outline>
</glyph>
<glyph name="tsehelper-cy.sc" format="2">
  <advance width="614"/>
  <anchor x="305" y="0" name="bottom"/>
  <anchor x="504" y="0" name="bottomright"/>
  <outline>
    <contour>
      <point x="464" y="560" type="line"/>
      <point x="464" y="28" type="line"/>
      <point x="150" y="28" type="line"/>
      <point x="150" y="560" type="line"/>
      <point x="120" y="560" type="line"/>
      <point x="120" y="0" type="line"/>
      <point x="494" y="0" type="line"/>
      <point x="494" y="560" type="line"/>
    </contour>
  </outline>
</glyph>
<glyph name="tshe-cy.sc" format="2">
  <advance width="591"/>
  <anchor x="325" y="560" name="top"/>
  <anchor x="546" y="0" name="bottomright"/>
  <anchor x="325" y="0" name="bottom"/>
  <outline>
    <contour>
      <point x="377" y="560" type="line"/>
      <point x="15" y="560" type="line"/>
      <point x="15" y="531" type="line"/>
      <point x="372" y="531" type="line"/>
    </contour>
    <component base="shha-cy.sc" xOffset="59"/>
  </outline>
</glyph>
<glyph name="u-cy.sc" format="2">
  <advance width="439"/>
  <anchor x="219.5" y="0" name="bottom"/>
  <anchor x="230" y="560" name="top"/>
  <outline>
    <contour>
      <point x="429" y="560" type="line"/>
      <point x="397" y="560" type="line"/>
      <point x="230" y="181" type="line"/>
      <point x="47" y="560" type="line"/>
      <point x="15" y="560" type="line"/>
      <point x="211" y="159" type="line"/>
      <point x="220" y="159" type="line"/>
      <point x="173" y="52"/>
      <point x="155" y="35"/>
      <point x="82" y="14" type="curve"/>
      <point x="90" y="-9" type="line"/>
      <point x="181" y="17"/>
      <point x="196" y="42"/>
      <point x="248" y="158" type="curve" smooth="yes"/>
    </contour>
  </outline>
</glyph>
<glyph name="u.sc" format="2">
  <advance width="589"/>
  <anchor x="295" y="0" name="bottom"/>
  <anchor x="371" y="0" name="ogonek"/>
  <anchor x="295" y="560" name="top"/>
  <anchor x="489" y="560" name="topright"/>
  <outline>
    <contour>
      <point x="479" y="560" type="line"/>
      <point x="449" y="560" type="line"/>
      <point x="449" y="174" type="line" smooth="yes"/>
      <point x="449" y="84"/>
      <point x="406" y="20"/>
      <point x="295" y="20" type="curve" smooth="yes"/>
      <point x="186" y="20"/>
      <point x="140" y="82"/>
      <point x="140" y="174" type="curve" smooth="yes"/>
      <point x="140" y="560" type="line"/>
      <point x="110" y="560" type="line"/>
      <point x="110" y="171" type="line" smooth="yes"/>
      <point x="110" y="66"/>
      <point x="166" y="-8"/>
      <point x="295" y="-8" type="curve" smooth="yes"/>
      <point x="423" y="-8"/>
      <point x="479" y="66"/>
      <point x="479" y="171" type="curve" smooth="yes"/>
    </contour>
  </outline>
</glyph>
<glyph name="ubar.sc" format="2">
  <advance width="599"/>
  <anchor x="300" y="560" name="top"/>
  <anchor x="376" y="0" name="ogonek"/>
  <anchor x="494" y="560" name="topright"/>
  <anchor x="300" y="0" name="bottom"/>
  <outline>
    <contour>
      <point x="542" y="437" type="line"/>
      <point x="484" y="437" type="line"/>
      <point x="57" y="437" type="line"/>
      <point x="57" y="413" type="line"/>
      <point x="115" y="413" type="line"/>
      <point x="542" y="413" type="line"/>
    </contour>
    <component base="u.sc" xOffset="5"/>
  </outline>
</glyph>
<glyph name="uniA7B3.sc" format="2">
  <advance width="431"/>
  <anchor x="215.5" y="-193" name="bottom"/>
  <anchor x="215.5" y="560" name="top"/>
  <outline>
    <contour>
      <point x="67" y="560" type="line"/>
      <point x="33" y="560" type="line"/>
      <point x="196" y="262" type="line"/>
      <point x="214" y="242" type="line"/>
      <point x="386" y="-80" type="line"/>
      <point x="420" y="-80" type="line"/>
      <point x="231" y="263" type="line"/>
      <point x="213" y="282" type="line"/>
    </contour>
    <contour>
      <point x="392" y="560" type="line"/>
      <point x="359" y="560" type="line"/>
      <point x="213" y="282" type="line"/>
      <point x="196" y="262" type="line"/>
      <point x="15" y="-80" type="line"/>
      <point x="48" y="-80" type="line"/>
      <point x="214" y="242" type="line"/>
      <point x="231" y="263" type="line"/>
    </contour>
  </outline>
</glyph>
<glyph name="ustraitstroke-cy.sc" format="2">
  <advance width="441"/>
  <anchor x="221" y="560" name="top"/>
  <anchor x="222" y="0" name="bottom"/>
  <outline>
    <contour>
      <point x="351" y="243" type="line"/>
      <point x="93" y="243" type="line"/>
      <point x="93" y="216" type="line"/>
      <point x="351" y="216" type="line"/>
    </contour>
    <component base="y.sc"/>
  </outline>
</glyph>
<glyph name="v.sc" format="2">
  <advance width="476"/>
  <anchor x="238" y="0" name="bottom"/>
  <anchor x="238" y="560" name="top"/>
  <outline>
    <contour>
      <point x="451" y="560" type="line"/>
      <point x="419" y="560" type="line"/>
      <point x="238" y="29" type="line"/>
      <point x="57" y="560" type="line"/>
      <point x="25" y="560" type="line"/>
      <point x="219" y="0" type="line"/>
      <point x="256" y="0" type="line"/>
    </contour>
  </outline>
</glyph>
<glyph name="varia.case" format="2">
  <advance width="40"/>
  <anchor x="100" y="682" name="_topleft"/>
  <outline>
    <contour>
      <point x="58" y="690" type="line"/>
      <point x="20" y="682" type="line"/>
      <point x="68" y="551" type="line"/>
      <point x="90" y="555" type="line"/>
    </contour>
  </outline>
</glyph>
<glyph name="x.sc" format="2">
  <advance width="431"/>
  <anchor x="215.5" y="0" name="bottom"/>
  <anchor x="394" y="0" name="bottomright"/>
  <anchor x="215.5" y="560" name="top"/>
  <outline>
    <contour>
      <point x="67" y="560" type="line"/>
      <point x="33" y="560" type="line"/>
      <point x="196" y="302" type="line"/>
      <point x="214" y="282" type="line"/>
      <point x="386" y="0" type="line"/>
      <point x="420" y="0" type="line"/>
      <point x="231" y="303" type="line"/>
      <point x="213" y="322" type="line"/>
    </contour>
    <contour>
      <point x="392" y="560" type="line"/>
      <point x="359" y="560" type="line"/>
      <point x="213" y="322" type="line"/>
      <point x="196" y="302" type="line"/>
      <point x="15" y="0" type="line"/>
      <point x="48" y="0" type="line"/>
      <point x="214" y="282" type="line"/>
      <point x="231" y="303" type="line"/>
    </contour>
  </outline>
</glyph>
